SplineFontDB: 3.0
FontName: Crimson-Italic
FullName: Crimson Italic
FamilyName: Crimson
Weight: Italic
Copyright: Copyright (c) 2010, Sebastian Kosch (sebastian@aldusleaf.org),\nwith Reserved Font Name "Crimson".\nThis Font Software is licensed under the SIL Open Font License, Version 1.1.\nThis license is available with a FAQ at: http://scripts.sil.org/OFL
UComments: "2010-5-9: Created." 
Version: 0.12
ItalicAngle: -11
UnderlinePosition: -102
UnderlineWidth: 51
Ascent: 717
Descent: 307
LayerCount: 2
Layer: 0 0 "Back"  1
Layer: 1 0 "Fore"  0
NeedsXUIDChange: 1
XUID: [1021 85 519305545 10852408]
FSType: 0
OS2Version: 0
OS2_WeightWidthSlopeOnly: 0
OS2_UseTypoMetrics: 1
CreationTime: 1273443993
ModificationTime: 1294003681
OS2TypoAscent: 0
OS2TypoAOffset: 1
OS2TypoDescent: 0
OS2TypoDOffset: 1
OS2TypoLinegap: 92
OS2WinAscent: 0
OS2WinAOffset: 1
OS2WinDescent: 0
OS2WinDOffset: 1
HheadAscent: 0
HheadAOffset: 1
HheadDescent: 0
HheadDOffset: 1
Lookup: 1 0 0 "'onum' Oldstyle Figures in Latin lookup 5"  {"'onum' Oldstyle Figures in Latin lookup 5-1" ("onum" ) } ['onum' ('DFLT' <'dflt' > 'latn' <'dflt' > ) ]
Lookup: 1 0 0 "Ordinals"  {"Ordinals-1" ("ordn" ) } ['ordn' ('DFLT' <'dflt' > 'latn' <'dflt' > ) ]
Lookup: 1 0 0 "'smcp' Lowercase to Small Capitals in Latin lookup 3"  {"'smcp' Lowercase to Small Capitals in Latin lookup 3-1" ("sc" ) } ['smcp' ('DFLT' <'dflt' > 'latn' <'dflt' > ) ]
Lookup: 6 0 0 "'calt' Contextual Alternates in Latin lookup 3"  {"'calt' Contextual Alternates in Latin lookup 3-1"  } ['calt' ('DFLT' <'dflt' > 'latn' <'dflt' > ) ]
Lookup: 1 0 0 "Short f"  {"Short f-1"  } []
Lookup: 4 0 1 "'liga' Standard Ligatures in Latin lookup 0"  {"'liga' Standard Ligatures in Latin lookup 0-1"  } ['dlig' ('DFLT' <'dflt' > 'latn' <'dflt' > ) ]
Lookup: 258 0 0 "'kern' Horizontal Kerning in Latin lookup 0"  {"'kern' Horizontal Kerning in Latin lookup 0-1"  } ['kern' ('DFLT' <'dflt' > 'latn' <'dflt' > ) ]
MarkAttachClasses: 1
DEI: 91125

StartChar: exclam
Encoding: 33 33 0
Width: 187
VWidth: 0
Flags: W
HStem: -14 116<86.9533 161.814>
VStem: 70 109<3.29198 85.0467> 183 90<492.709 614.186>
LayerCount: 2
Fore
SplineSet
70 36 m 27
 70 73 99 102 136 102 c 27
 160 102 179 80 179 56 c 27
 179 18 152 -14 114 -14 c 27
 88 -14 70 10 70 36 c 27
242 631 m 3
 263 631 273 609 273 588 c 3
 273 561 210 352 164 170 c 0
 161 156 140 148 136 148 c 3
 131 148 130 159 130 166 c 3
 130 170 162 429 183 577 c 0
 186 596 210 631 242 631 c 3
EndSplineSet
Validated: 1
Substitution2: "Ordinals-1" exclam.ordn
Substitution2: "'smcp' Lowercase to Small Capitals in Latin lookup 3-1" exclam.sc
EndChar

StartChar: quotedbl
Encoding: 34 34 1
Width: 297
VWidth: 0
Flags: W
HStem: 434 264<76 82.8097 226 232.81>
VStem: 45 95<556.545 674.219> 195 95<556.545 674.219>
LayerCount: 2
Fore
SplineSet
112 698 m 31
 140 698 151 692 140 633 c 4
 129 577 100 516 81 449 c 4
 78 439 67 434 60 434 c 4
 53 434 44 439 45 447 c 4
 54 537 45 590 45 636 c 5
 48 654 76 698 112 698 c 31
262 698 m 27
 290 698 301 692 290 633 c 0
 279 577 250 516 231 449 c 0
 228 439 217 434 210 434 c 0
 203 434 194 439 195 447 c 0
 204 537 195 590 195 636 c 1
 198 654 226 698 262 698 c 27
EndSplineSet
Validated: 33
Substitution2: "'smcp' Lowercase to Small Capitals in Latin lookup 3-1" quotedbl.sc
EndChar

StartChar: numbersign
Encoding: 35 35 2
Width: 419
VWidth: 0
Flags: W
HStem: 175 56<5.04192 81 153 221 293 368.958> 317 56<53.0419 129 201 269 341 416.522>
LayerCount: 2
Fore
SplineSet
341 373 m 1
 417 373 l 2
 422 373 424 372 424 368 c 3
 424 352 410 317 399 317 c 2
 322 317 l 1
 293 231 l 1
 369 231 l 2
 374 231 376 229 376 225 c 3
 376 209 362 175 351 175 c 2
 274 175 l 1
 223 24 l 2
 222 21 218 16 190 16 c 0
 179 16 168 18 168 21 c 2
 168 21 169 23 169 24 c 0
 170 28 221 175 221 175 c 1
 134 175 l 1
 83 24 l 2
 82 21 78 16 50 16 c 0
 39 16 28 18 28 21 c 2
 28 21 29 23 29 24 c 0
 30 28 81 175 81 175 c 1
 5 175 l 2
 0 175 -2 177 -2 181 c 3
 -2 197 12 231 23 231 c 2
 100 231 l 1
 129 317 l 1
 53 317 l 2
 48 317 46 319 46 323 c 3
 46 339 60 373 71 373 c 2
 148 373 l 1
 199 524 l 2
 200 527 204 532 232 532 c 0
 243 532 254 529 254 526 c 1
 254 526 253 525 253 524 c 0
 252 520 201 373 201 373 c 1
 288 373 l 1
 339 524 l 2
 340 527 344 532 372 532 c 0
 383 532 394 529 394 526 c 1
 394 526 393 525 393 524 c 0
 392 520 341 373 341 373 c 1
269 317 m 1
 182 317 l 1
 153 231 l 1
 240 231 l 1
 269 317 l 1
EndSplineSet
Validated: 1
Substitution2: "'smcp' Lowercase to Small Capitals in Latin lookup 3-1" numbersign.sc
EndChar

StartChar: dollar
Encoding: 36 36 3
Width: 430
Flags: W
HStem: -8 39<179.813 282.249> 602 42<247.86 356.244>
VStem: 55 37<88.5478 173.986> 418 30<477.016 547.479>
LayerCount: 2
Fore
SplineSet
156 -52 m 17
 148 -52 124 -50 125 -43 c 9
 378 683 l 17
 385 683 410 683 409 676 c 9
 156 -52 l 17
203 -8 m 0
 147 -8 87 8 52 15 c 1
 47 50 49 124 55 166 c 0
 56 171 66 174 73 174 c 0
 81 174 90 169 92 166 c 1
 94 125 103 31 213 31 c 0
 269 31 331 67 345 141 c 0
 360 218 306 245 268 269 c 0
 175 327 105 377 124 473 c 0
 143 572 242 644 334 644 c 0
 381 644 442 625 464 621 c 1
 461 580 459 542 448 484 c 0
 446 476 444 476 440 476 c 0
 431 477 418 479 418 487 c 0
 420 520 397 602 321 602 c 0
 256 602 214 570 201 505 c 0
 188 437 231 404 286 366 c 0
 357 316 447 266 428 170 c 0
 407 64 302 -8 203 -8 c 0
EndSplineSet
Validated: 37
Substitution2: "'smcp' Lowercase to Small Capitals in Latin lookup 3-1" dollar.sc
EndChar

StartChar: percent
Encoding: 37 37 4
Width: 618
VWidth: 0
Flags: W
HStem: -8 28<365.061 435.221> 300 27<402.525 472.689> 338 28<153.061 223.221> 643 20G<599 610> 646 27<190.525 260.689>
VStem: 58 63<389.827 559.144> 270 63<43.8269 213.144> 288 65<451.145 624.049> 500 65<105.145 278.049>
LayerCount: 2
Fore
SplineSet
230 646 m 3xed80
 167 646 121 556 121 478 c 27
 121 427 138 366 186 366 c 3
 249 366 288 462 288 541 c 27
 288 588 275 646 230 646 c 3xed80
240 673 m 3
 317 673 353 609 353 541 c 3
 353 445 272 338 174 338 c 3
 98 338 58 401 58 469 c 3
 58 567 138 673 240 673 c 3
631 650 m 13
 35 0 l 6
 31 -4 15 -12 1 -12 c 31
 -6 -12 -12 -9 -14 -1 c 13
 582 652 l 6
 586 656 594 663 604 663 c 31xf480
 616 663 627 660 631 650 c 13
442 300 m 3
 379 300 333 210 333 132 c 27xe680
 333 81 350 20 398 20 c 3
 461 20 500 116 500 195 c 27
 500 242 487 300 442 300 c 3
452 327 m 3
 529 327 565 263 565 195 c 3
 565 99 484 -8 386 -8 c 3
 310 -8 270 55 270 123 c 3
 270 221 350 327 452 327 c 3
EndSplineSet
Validated: 1
Substitution2: "Ordinals-1" percent.ordn
Substitution2: "'smcp' Lowercase to Small Capitals in Latin lookup 3-1" percent.sc
EndChar

StartChar: ampersand
Encoding: 38 38 5
Width: 644
VWidth: 0
Flags: W
HStem: -14 43<254.643 426.186> 320 82<249.653 354.792> 335 51<417.743 546.303> 346 38<531.431 641.233> 462 76<553.73 629.978> 590 45<261.814 380.638>
VStem: 78 86<118.059 280.658> 166 50<407.626 542.563> 355 41<254.682 318.492> 404 59<487.385 566.425> 549 68<148.934 303.661> 663 37<405.939 475.819>
LayerCount: 2
Fore
SplineSet
396 280 m 27xaff0
 396 239 465 260 465 217 c 3
 465 195 451 175 432 170 c 1
 406 170 355 202 355 258 c 3
 355 333 424 386 499 386 c 27xaff0
 529 386 545 384 575 384 c 27
 617 384 663 402 663 444 c 27
 663 463 650 480 631 480 c 27
 609 480 600 462 578 462 c 27
 561 462 549 478 549 495 c 27
 549 515 558 525 575 538 c 1
 648 538 700 504 700 444 c 3
 700 386 656 346 588 346 c 3x9ff0
 578 346 572 347 562 348 c 17
 590 323 617 277 617 224 c 3
 617 88 473 -14 326 -14 c 27
 199 -14 78 69 78 196 c 27
 78 283 147 359 204 381 c 1
 188 399 166 438 166 479 c 27
 166 572 266 635 348 635 c 3
 406 635 463 601 463 543 c 3
 463 502 423 462 403 462 c 3
 398 462 394 465 394 469 c 3
 394 477 404 485 404 514 c 3
 404 557 369 590 326 590 c 27
 264 590 216 536 216 474 c 27
 216 441 233 409 249 395 c 1
 263 399 272 402 288 402 c 27
 321 402 363 389 363 360 c 3
 363 333 328 320 298 320 c 27xcff0
 272 320 250 329 236 341 c 1
 198 309 164 265 164 204 c 27
 164 107 238 29 338 29 c 0
 445 29 549 121 549 237 c 27
 549 287 516 335 466 335 c 27
 431 335 396 315 396 280 c 27xaff0
EndSplineSet
Validated: 1
Substitution2: "'smcp' Lowercase to Small Capitals in Latin lookup 3-1" ampersand.sc
EndChar

StartChar: quotesingle
Encoding: 39 39 6
Width: 147
VWidth: 0
Flags: W
HStem: 434 264<76 82.8097>
VStem: 45 95<556.545 674.219>
LayerCount: 2
Fore
SplineSet
112 698 m 31
 140 698 151 692 140 633 c 4
 129 577 100 516 81 449 c 4
 78 439 67 434 60 434 c 4
 53 434 44 439 45 447 c 4
 54 537 45 590 45 636 c 5
 48 654 76 698 112 698 c 31
EndSplineSet
Validated: 33
Substitution2: "'smcp' Lowercase to Small Capitals in Latin lookup 3-1" quotesingle.sc
EndChar

StartChar: parenleft
Encoding: 40 40 7
Width: 250
VWidth: 0
Flags: W
HStem: -121 26<190.609 199.15> 721 27<341.778 361.41>
VStem: 76 59<10.0652 339.427>
LayerCount: 2
Fore
SplineSet
76 174 m 0
 76 471 279 748 353 748 c 3
 359 748 362 736 362 728 c 0
 362 725 361 722 360 721 c 0
 284 685 135 418 135 164 c 0
 135 23 177 -80 202 -95 c 0
 203 -95 203 -97 203 -98 c 0
 203 -105 192 -121 185 -121 c 3
 144 -121 76 1 76 174 c 0
EndSplineSet
Validated: 1
Substitution2: "Ordinals-1" parenleft.ordn
Substitution2: "'smcp' Lowercase to Small Capitals in Latin lookup 3-1" parenleft.sc
EndChar

StartChar: parenright
Encoding: 41 41 8
Width: 264
VWidth: 0
Flags: W
HStem: -121 26<13.4951 30.7951>
VStem: 240 59<292.995 625.353>
LayerCount: 2
Fore
SplineSet
299 457 m 4
 299 121 77 -121 22 -121 c 7
 17 -121 13 -111 13 -103 c 4
 13 -99 14 -96 16 -95 c 4
 59 -75 240 155 240 477 c 4
 240 603 212 700 175 721 c 5
 175 721 174 722 174 723 c 4
 174 729 184 748 191 748 c 7
 240 748 299 629 299 457 c 4
EndSplineSet
Validated: 1
Substitution2: "Ordinals-1" parenright.ordn
Substitution2: "'smcp' Lowercase to Small Capitals in Latin lookup 3-1" parenright.sc
EndChar

StartChar: asterisk
Encoding: 42 42 9
Width: 343
Flags: W
HStem: 432 68<15.7409 111.231> 466 48<190.834 212.802> 473 20<131.821 170.891> 644 20G<147.5 171.5>
VStem: 106 64<305.242 381.874> 171 167<409.5 471> 173 41<493.177 514.922>
LayerCount: 2
Fore
SplineSet
201 514 m 0x5a
 226 514 273 633 324 633 c 0
 338 633 347 623 347 609 c 0
 347 552 214 523 214 491 c 0x5a
 214 464 338 473 338 419 c 0
 338 400 321 383 301 383 c 0
 258 383 225 466 200 466 c 0x5c
 177 466 188 398 170 341 c 0
 161 311 143 298 129 298 c 0
 116 298 106 309 106 326 c 0
 106 366 171 438 171 464 c 0
 171 469 169 473 162 473 c 0x3c
 141 473 77 432 39 432 c 0
 22 432 9 440 9 456 c 0
 9 469 16 500 70 500 c 0x9c
 99 500 128 493 148 493 c 0x3c
 170 493 173 503 173 510 c 0
 173 534 122 580 122 623 c 0
 122 648 139 664 156 664 c 0
 187 664 189 620 189 580 c 0
 189 574 187 514 201 514 c 0x5a
EndSplineSet
Validated: 33
Substitution2: "'smcp' Lowercase to Small Capitals in Latin lookup 3-1" asterisk.sc
EndChar

StartChar: plus
Encoding: 43 43 10
Width: 457
Flags: W
HStem: 222 56<4.66422 185.001 267.998 446.644>
LayerCount: 2
Fore
SplineSet
234 470 m 4
 237 484 286 488 290 488 c 4
 299 488 301 483 300 479 c 6
 300 479 277 345 265 283 c 4
 264 280 265 278 268 278 c 14
 449 278 l 6
 452 278 453 275 453 269 c 7
 453 255 444 235 432 222 c 5
 253 222 l 22
 250 222 249 220 249 218 c 6
 214 30 l 6
 212 19 182 12 164 12 c 4
 153 12 148 17 149 21 c 6
 149 21 174 161 185 217 c 4
 185 219 186 222 181 222 c 14
 2 222 l 6
 -1 222 -3 225 -3 231 c 7
 -3 245 8 264 19 278 c 5
 197 278 l 22
 200 278 201 280 201 282 c 4
 213 342 220 400 234 470 c 4
EndSplineSet
Validated: 1
Substitution2: "Ordinals-1" plus.ordn
Substitution2: "'smcp' Lowercase to Small Capitals in Latin lookup 3-1" plus.sc
EndChar

StartChar: comma
Encoding: 44 44 11
Width: 209
VWidth: 0
Flags: W
HStem: -163 292
VStem: 77 104<2.84906 107.313>
LayerCount: 2
Fore
SplineSet
-5 -143 m 0
 -5 -133 90 -74 90 -5 c 0
 90 23 77 52 77 66 c 0
 77 101 119 129 156 129 c 0
 164 129 171 127 178 125 c 1
 180 120 181 112 181 102 c 0
 181 80 174 52 170 35 c 0
 143 -83 13 -163 13 -163 c 1
 9 -163 -5 -153 -5 -143 c 0
EndSplineSet
Validated: 1
Substitution2: "Ordinals-1" comma.ordn
Substitution2: "'smcp' Lowercase to Small Capitals in Latin lookup 3-1" comma.sc
EndChar

StartChar: hyphen
Encoding: 45 45 12
Width: 295
VWidth: 0
Flags: W
VStem: 19 254<210.346 261>
LayerCount: 2
Fore
SplineSet
40 261 m 2
 267 273 l 2
 272 273 273 266 273 261 c 0
 273 248 260 211 250 210 c 10
 24 199 l 2
 21 199 19 206 19 214 c 0
 19 225 29 260 40 261 c 2
EndSplineSet
Validated: 1
Substitution2: "Ordinals-1" hyphen.ordn
Substitution2: "'smcp' Lowercase to Small Capitals in Latin lookup 3-1" hyphen.sc
EndChar

StartChar: period
Encoding: 46 46 13
Width: 169
VWidth: 0
Flags: W
HStem: -14 116<79.9536 149.375>
VStem: 60 110<6.4082 82.5449>
LayerCount: 2
Fore
SplineSet
170 57 m 0
 170 20 137 -14 104 -14 c 0
 78 -14 60 6 60 33 c 0
 60 70 94 102 127 102 c 0
 153 102 170 83 170 57 c 0
EndSplineSet
Validated: 1
Substitution2: "Ordinals-1" period.ordn
Substitution2: "'smcp' Lowercase to Small Capitals in Latin lookup 3-1" period.sc
EndChar

StartChar: slash
Encoding: 47 47 14
Width: 463
VWidth: 0
Flags: W
LayerCount: 2
Fore
SplineSet
478 755 m 1
 54 -12 l 2
 51 -17 38 -33 3 -33 c 0
 -9 -33 -11 -32 -15 -28 c 9
 410 739 l 2
 420 756 436 761 454 761 c 0
 463 761 476 756 478 755 c 1
EndSplineSet
Validated: 1
Substitution2: "Ordinals-1" slash.ordn
Substitution2: "'smcp' Lowercase to Small Capitals in Latin lookup 3-1" slash.sc
EndChar

StartChar: zero
Encoding: 48 48 15
Width: 410
Flags: W
HStem: -3 38<170.514 258.74> 603 38<277.823 366.636>
LayerCount: 2
Fore
SplineSet
147 320 m 4
 116 163 139 35 208 35 c 4
 291 35 359 168 390 325 c 4
 421 482 397 603 328 603 c 4
 250 603 178 477 147 320 c 4
65 319 m 4
 99 493 202 641 330 641 c 4
 460 641 504 493 470 319 c 4
 436 145 333 -3 205 -3 c 4
 79 -3 31 145 65 319 c 4
EndSplineSet
Validated: 33
Substitution2: "'onum' Oldstyle Figures in Latin lookup 5-1" zero.onum
Substitution2: "Ordinals-1" zero.ordn
Substitution2: "'smcp' Lowercase to Small Capitals in Latin lookup 3-1" zero.sc
EndChar

StartChar: one
Encoding: 49 49 16
Width: 410
Flags: W
HStem: -3 29<104.209 170.718 273.124 325.062>
VStem: 103 279
LayerCount: 2
Fore
SplineSet
198 496 m 5
 191 500 185 514 186 521 c 4
 186 523 187 525 189 527 c 4
 298 597 369 642 372 642 c 6
 374 642 l 6
 380 642 382 628 382 623 c 5
 382 623 366 590 354 529 c 6
 278 135 l 6
 272 102 267 73 268 46 c 4
 269 35 319 26 326 26 c 4
 329 26 327 15 326 8 c 4
 325 3 324 -1 323 -3 c 5
 286 -1 249 2 212 2 c 4
 175 2 141 -1 103 -3 c 5
 99 2 104 26 109 26 c 4
 120 26 173 35 178 46 c 4
 187 66 190 84 194 103 c 6
 264 463 l 6
 276 523 272 529 264 529 c 4
 252 529 216 505 198 496 c 5
EndSplineSet
Validated: 33
Substitution2: "'onum' Oldstyle Figures in Latin lookup 5-1" one.onum
Substitution2: "Ordinals-1" one.ordn
Substitution2: "'smcp' Lowercase to Small Capitals in Latin lookup 3-1" one.sc
EndChar

StartChar: two
Encoding: 50 50 17
Width: 410
Flags: W
HStem: 0 72<127 352.85> 572 70<255.022 388.298>
LayerCount: 2
Fore
SplineSet
415 156 m 1
 396 105 380 68 362 16 c 0
 357 2 349 0 340 0 c 18
 340 0 42 0 35 0 c 1
 32 8 31 26 32 33 c 1
 174 161 337 340 360 459 c 0
 374 533 344 572 291 572 c 0
 217 572 166 509 151 489 c 1
 144 489 136 501 137 505 c 1
 148 530 229 642 342 642 c 0
 431 642 459 555 444 479 c 0
 414 326 212 153 127 79 c 0
 124 76 123 72 127 72 c 2
 298 72 l 2
 352 72 362 106 384 150 c 0
 387 155 393 160 399 160 c 0
 403 160 414 158 415 156 c 1
EndSplineSet
Validated: 33
Substitution2: "'onum' Oldstyle Figures in Latin lookup 5-1" two.onum
Substitution2: "Ordinals-1" two.ordn
Substitution2: "'smcp' Lowercase to Small Capitals in Latin lookup 3-1" two.sc
EndChar

StartChar: three
Encoding: 51 51 18
Width: 410
Flags: W
HStem: -5 40<133.774 258.885> 314 36<178.331 242.055> 583 59<251.065 360.5>
LayerCount: 2
Fore
SplineSet
337 642 m 0
 384 642 441 596 425 514 c 0
 412 449 369 412 322 379 c 1
 369 360 437 305 418 206 c 0
 393 76 281 -5 161 -5 c 0
 104 -5 70 5 46 25 c 1
 41 29 40 46 42 54 c 0
 48 83 64 101 86 101 c 0
 105 101 115 72 132 56 c 0
 153 37 173 35 198 35 c 0
 242 35 311 68 333 180 c 0
 349 261 304 321 243 321 c 0
 223 321 193 317 181 314 c 1
 178 319 177 332 179 340 c 0
 180 344 181 347 183 350 c 1
 267 365 335 410 352 496 c 0
 361 541 330 583 288 583 c 0
 229 583 198 539 188 532 c 1
 182 532 180 549 182 558 c 1
 220 604 264 642 337 642 c 0
EndSplineSet
Validated: 33
Substitution2: "'onum' Oldstyle Figures in Latin lookup 5-1" three.onum
Substitution2: "Ordinals-1" three.ordn
Substitution2: "'smcp' Lowercase to Small Capitals in Latin lookup 3-1" three.sc
EndChar

StartChar: four
Encoding: 52 52 19
Width: 410
Flags: W
HStem: -6 21G<274 303> 174 58<128 286 370 435.912>
LayerCount: 2
Fore
SplineSet
50 174 m 5
 46 182 49 199 50 205 c 5
 415 633 l 6
 422 641 432 645 439 645 c 4
 445 645 451 643 449 635 c 6
 370 232 l 29
 437 232 l 22
 444 232 444 228 443 225 c 4
 439 203 432 183 427 174 c 5
 403 174 359 174 359 174 c 29
 325 -1 l 5
 325 -1 321 -6 285 -6 c 4
 263 -6 251 -5 252 2 c 6
 286 174 l 29
 50 174 l 5
349 498 m 6
 350 501 348 507 346 507 c 5
 346 507 345 506 344 505 c 6
 124 244 l 6
 123 243 123 242 123 241 c 4
 122 237 124 232 128 232 c 14
 297 232 l 29
 349 498 l 6
EndSplineSet
Validated: 33
Substitution2: "'onum' Oldstyle Figures in Latin lookup 5-1" four.onum
Substitution2: "Ordinals-1" four.ordn
Substitution2: "'smcp' Lowercase to Small Capitals in Latin lookup 3-1" four.sc
EndChar

StartChar: five
Encoding: 53 53 20
Width: 410
Flags: W
HStem: -5 40<135.443 259.233> 323 68<181.796 301.424> 546 77<234.438 433.921> 617 20G<433.5 452>
LayerCount: 2
Fore
SplineSet
203 35 m 0xe0
 247 35 312 71 333 180 c 0
 345 242 333 323 225 323 c 3
 205 323 161 318 142 312 c 1
 139 314 132 321 128 326 c 1
 173 458 215 581 230 623 c 1xe0
 296 625 416 629 451 637 c 1xd0
 453 633 454 627 452 616 c 0
 449 599 442 576 436 561 c 1
 393 548 262 549 247 546 c 0
 241 545 241 542 239 538 c 0
 214 474 200 431 181 378 c 1
 201 386 246 391 271 391 c 0
 371 391 437 306 418 206 c 0
 394 82 287 -5 166 -5 c 0
 109 -5 71 5 47 25 c 1
 42 29 41 46 43 54 c 0
 49 83 65 101 87 101 c 0
 106 101 116 72 133 56 c 0
 154 37 178 35 203 35 c 0xe0
EndSplineSet
Validated: 33
Substitution2: "'onum' Oldstyle Figures in Latin lookup 5-1" five.onum
Substitution2: "Ordinals-1" five.ordn
Substitution2: "'smcp' Lowercase to Small Capitals in Latin lookup 3-1" five.sc
EndChar

StartChar: six
Encoding: 54 54 21
Width: 410
VWidth: 0
Flags: W
HStem: -6 39<172.263 270.908> 329 43<212.895 315.746> 617 20G<299.5 456.5>
VStem: 58 80<65.9596 284.345> 350 80<136.491 296.002>
LayerCount: 2
Fore
SplineSet
284 372 m 0
 370 372 430 307 430 226 c 0
 430 110 314 -6 205 -6 c 0
 117 -6 58 50 58 162 c 0
 58 298 146 503 453 637 c 1
 460 637 461 617 461 612 c 1
 346 563 242 491 182 350 c 0
 148 270 138 207 138 152 c 0
 138 91 161 33 219 33 c 0
 273 33 350 106 350 217 c 0
 350 279 323 329 254 329 c 0
 230 329 211 318 201 314 c 1
 197 317 195 324 195 328 c 3
 195 354 263 372 284 372 c 0
EndSplineSet
Validated: 1
Substitution2: "'onum' Oldstyle Figures in Latin lookup 5-1" six.onum
Substitution2: "Ordinals-1" six.ordn
Substitution2: "'smcp' Lowercase to Small Capitals in Latin lookup 3-1" six.sc
EndChar

StartChar: seven
Encoding: 55 55 22
Width: 410
Flags: W
HStem: -6 21G<106 115.5> 553 80<172.6 436>
LayerCount: 2
Fore
SplineSet
113 -6 m 0
 99 -6 84 13 86 22 c 9
 436 553 l 1
 357 553 212 553 212 553 c 2
 179 553 155 508 138 474 c 0
 135 468 114 467 106 471 c 1
 123 516 149 576 164 621 c 0
 167 629 173 633 181 633 c 2
 450 633 l 2
 474 633 507 636 513 636 c 0
 519 636 518 632 517 627 c 0
 514 614 495 588 477 560 c 2
 123 -3 l 1
 121 -5 118 -6 113 -6 c 0
EndSplineSet
Validated: 33
Substitution2: "'onum' Oldstyle Figures in Latin lookup 5-1" seven.onum
Substitution2: "Ordinals-1" seven.ordn
Substitution2: "'smcp' Lowercase to Small Capitals in Latin lookup 3-1" seven.sc
EndChar

StartChar: eight
Encoding: 56 56 23
Width: 410
Flags: W
HStem: -9 36<163.417 271.334> 608 35<276.852 365.212>
LayerCount: 2
Fore
SplineSet
335 643 m 0
 418 643 476 586 458 491 c 0
 445 424 373 373 325 344 c 1
 321 343 322 340 324 338 c 0
 373 304 427 239 413 167 c 0
 394 67 294 -9 201 -9 c 0
 99 -9 41 57 60 154 c 0
 77 242 171 293 212 318 c 0
 215 320 216 323 214 324 c 0
 180 349 135 406 149 480 c 0
 166 565 253 643 335 643 c 0
323 608 m 0
 278 608 234 562 220 492 c 0
 208 430 261 386 292 364 c 0
 294 363 295 362 297 362 c 0
 299 362 300 362 303 364 c 0
 346 391 379 431 390 486 c 0
 401 544 379 608 323 608 c 0
210 27 m 0
 271 27 319 70 332 138 c 0
 348 221 254 287 243 295 c 0
 241 296 241 297 238 297 c 0
 237 297 235 297 234 296 c 0
 176 261 146 221 134 157 c 0
 118 75 161 27 210 27 c 0
EndSplineSet
Validated: 33
Substitution2: "'onum' Oldstyle Figures in Latin lookup 5-1" eight.onum
Substitution2: "Ordinals-1" eight.ordn
Substitution2: "'smcp' Lowercase to Small Capitals in Latin lookup 3-1" eight.sc
EndChar

StartChar: nine
Encoding: 57 57 24
Width: 410
VWidth: 0
Flags: W
HStem: -6 21G<77.5 240.5> 260 45<214.302 322.473> 594 39<258.155 355.464>
VStem: 104 81<335.485 493.378> 388 82<335.175 563.722>
LayerCount: 2
Fore
SplineSet
245 260 m 0
 159 260 104 321 104 402 c 0
 104 518 214 633 323 633 c 0
 411 633 470 577 470 465 c 0
 470 329 397 120 84 -6 c 1
 71 -3 68 4 67 15 c 1
 182 64 288 136 348 277 c 0
 382 357 388 420 388 475 c 0
 388 536 367 594 309 594 c 0
 255 594 185 522 185 411 c 0
 185 349 211 305 280 305 c 0
 315 305 317 309 327 313 c 1
 331 310 333 303 333 299 c 3
 333 273 266 260 245 260 c 0
EndSplineSet
Validated: 1
Substitution2: "'onum' Oldstyle Figures in Latin lookup 5-1" nine.onum
Substitution2: "Ordinals-1" nine.ordn
Substitution2: "'smcp' Lowercase to Small Capitals in Latin lookup 3-1" nine.sc
EndChar

StartChar: colon
Encoding: 58 58 25
Width: 180
VWidth: 0
Flags: W
HStem: -14 120<81.25 151.75> 318 120<144.544 216.353>
VStem: 60 113<6.94727 85.0527> 124 114<339.191 416.75>
LayerCount: 2
Fore
SplineSet
124 367 m 4xd0
 124 405 159 438 193 438 c 4
 220 438 238 418 238 391 c 4
 238 353 204 318 170 318 c 4
 143 318 124 339 124 367 c 4xd0
60 34 m 0xe0
 60 72 94 106 128 106 c 0
 155 106 173 85 173 58 c 0
 173 20 139 -14 105 -14 c 0
 78 -14 60 7 60 34 c 0xe0
EndSplineSet
Validated: 1
Substitution2: "Ordinals-1" colon.ordn
Substitution2: "'smcp' Lowercase to Small Capitals in Latin lookup 3-1" colon.sc
EndChar

StartChar: semicolon
Encoding: 59 59 26
Width: 239
VWidth: 0
Flags: W
HStem: 318 120<145.544 217.353>
VStem: 79 88<-13.9785 99.8895> 125 114<339.191 416.75>
LayerCount: 2
Fore
SplineSet
125 367 m 0xa0
 125 405 160 438 194 438 c 0
 221 438 239 418 239 391 c 0
 239 353 205 318 171 318 c 0
 144 318 125 339 125 367 c 0xa0
79 11 m 0xc0
 79 45 68 51 68 62 c 0
 68 88 107 124 144 124 c 0
 161 124 167 109 167 90 c 0
 167 72 162 50 159 34 c 0
 142 -53 100 -94 6 -165 c 0
 4 -166 1 -167 -1 -167 c 0
 -13 -167 -15 -145 -15 -143 c 0
 -15 -123 56 -113 77 -14 c 0
 78 -8 79 1 79 11 c 0xc0
EndSplineSet
Validated: 1
Substitution2: "Ordinals-1" semicolon.ordn
Substitution2: "'smcp' Lowercase to Small Capitals in Latin lookup 3-1" semicolon.sc
EndChar

StartChar: less
Encoding: 60 60 27
Width: 406
VWidth: 0
Flags: W
LayerCount: 2
Fore
SplineSet
74 209 m 5
 348 41 l 1
 348 41 350 40 350 36 c 0
 350 23 330 -14 325 -14 c 0
 324 -14 323 -14 321 -13 c 2
 9 177 l 2
 3 181 -1 191 -1 203 c 0
 -1 217 5 232 22 241 c 2
 403 428 l 2
 405 429 406 429 407 429 c 0
 410 429 414 408 414 394 c 0
 414 391 413 376 409 374 c 2
 74 209 l 5
EndSplineSet
Validated: 1
Substitution2: "Ordinals-1" less.ordn
Substitution2: "'smcp' Lowercase to Small Capitals in Latin lookup 3-1" less.sc
EndChar

StartChar: equal
Encoding: 61 61 28
Width: 503
VWidth: 0
Flags: W
HStem: 117 56<24.0048 441.813> 259 56<52.458 469.858>
LayerCount: 2
Fore
SplineSet
20 117 m 1
 20 117 15 117 15 123 c 0
 15 126 29 173 38 173 c 2
 454 173 l 18
 459 173 460 170 460 168 c 0
 460 163 450 142 442 123 c 1
 438 117 435 117 435 117 c 1
 20 117 l 1
48 259 m 1
 48 259 44 259 44 265 c 0
 44 266 57 315 66 315 c 2
 481 315 l 2
 486 315 487 312 487 310 c 0
 487 305 478 284 470 265 c 0
 467 259 462 259 462 259 c 1
 48 259 l 1
EndSplineSet
Validated: 1
Substitution2: "Ordinals-1" equal.ordn
Substitution2: "'smcp' Lowercase to Small Capitals in Latin lookup 3-1" equal.sc
EndChar

StartChar: greater
Encoding: 62 62 29
Width: 419
VWidth: 0
Flags: W
LayerCount: 2
Fore
SplineSet
337 209 m 1
 65 374 l 1
 65 374 63 375 63 378 c 0
 63 385 84 430 89 430 c 0
 90 430 91 429 93 428 c 2
 400 241 l 2
 407 237 412 230 412 221 c 0
 412 218 410 188 388 177 c 2
 3 -13 l 2
 1 -14 -1 -15 -3 -15 c 0
 -8 -15 -9 4 -9 33 c 0
 -9 38 -4 41 -4 41 c 1
 337 209 l 1
EndSplineSet
Validated: 1
Substitution2: "Ordinals-1" greater.ordn
Substitution2: "'smcp' Lowercase to Small Capitals in Latin lookup 3-1" greater.sc
EndChar

StartChar: question
Encoding: 63 63 30
Width: 294
VWidth: 0
Flags: W
HStem: -14 116<83.0005 152.844> 577 54<204.922 284.609>
VStem: 64 110<7.125 82.8877> 91 69<226.996 313.064> 299 53<469.011 567.503>
LayerCount: 2
Fore
SplineSet
64 32 m 0xe8
 64 70 96 102 129 102 c 0
 155 102 174 82 174 56 c 0
 174 19 139 -14 106 -14 c 0
 80 -14 64 6 64 32 c 0xe8
199 197 m 1
 199 193 194 184 189 181 c 1
 165 181 91 223 91 279 c 3
 91 324 107 344 133 362 c 0
 180 394 252 446 252 446 c 2
 272 460 299 488 299 517 c 3
 299 556 277 577 245 577 c 0
 201 577 205 530 167 530 c 0
 138 530 133 564 133 582 c 1
 138 597 169 631 207 631 c 0
 290 631 352 564 352 502 c 0
 352 406 311 402 193 321 c 0
 168 304 160 288 160 261 c 27xd8
 160 232 188 205 199 197 c 1
EndSplineSet
Validated: 1
Substitution2: "Ordinals-1" question.ordn
Substitution2: "'smcp' Lowercase to Small Capitals in Latin lookup 3-1" question.sc
EndChar

StartChar: at
Encoding: 64 64 31
Width: 723
VWidth: 0
Flags: W
HStem: -168 42<214.867 387.387> -13 40<467.533 557.614> -7 60<205 301.378> 528 49<332.278 539.513>
LayerCount: 2
Fore
SplineSet
324 -168 m 1xd0
 91 -177 -19 12 15 185 c 0
 63 432 259 577 467 577 c 3
 652 577 731 391 700 233 c 0
 662 40 556 -13 483 -13 c 3xd0
 418 -13 391 51 399 92 c 0
 399 94 395 91 394 90 c 0
 372 61 287 -7 240 -7 c 3xb0
 170 -7 155 73 168 141 c 0
 194 274 310 410 476 410 c 1
 557 401 l 17
 548 375 545 369 539 348 c 26
 474 125 l 2
 448 39 475 27 499 27 c 3
 592 27 641 160 651 214 c 0
 684 381 607 528 448 528 c 3
 279 528 110 399 76 223 c 0
 38 26 109 -126 342 -126 c 0
 373 -126 401 -116 409 -113 c 1
 409 -122 l 1
 406 -140 376 -161 324 -168 c 1xd0
419 170 m 2
 462 322 l 2
 465 333 472 349 461 352 c 0
 376 383 272 309 240 143 c 0
 227 73 255 53 278 53 c 3xb0
 332 53 412 145 419 170 c 2
EndSplineSet
Validated: 33
Substitution2: "'smcp' Lowercase to Small Capitals in Latin lookup 3-1" at.sc
EndChar

StartChar: A
Encoding: 65 65 32
Width: 606
VWidth: 0
Flags: W
HStem: -3 27<2.42807 56.3152 156.292 201.156 389.67 439.918 565.859 604.927> 249 49<272.193 426.94> 642 20G<437 444.5>
LayerCount: 2
Fore
SplineSet
436 239 m 24
 436 246 437 249 335 249 c 0
 297 249 285 247 242 244 c 8
 236 244 145 89 145 55 c 0
 145 30 198 24 200 24 c 0
 202 24 202 21 202 18 c 3
 202 11 199 1 197 -3 c 1
 160 -1 143 2 102 2 c 0
 59 2 47 -1 4 -3 c 1
 3 -2 2 2 2 5 c 0
 2 13 5 24 9 24 c 0
 20 24 55 32 67 45 c 0
 91 71 108 103 128 139 c 2
 404 635 l 2
 414 653 431 662 443 662 c 0
 446 662 449 661 451 660 c 1
 534 132 l 2
 540 95 542 80 546 60 c 0
 551 36 597 24 604 24 c 0
 606 24 606 22 606 19 c 0
 606 13 603 1 601 -3 c 1
 564 -1 538 2 497 2 c 0
 454 2 433 -1 390 -3 c 1
 389 -2 389 0 389 3 c 3
 389 11 392 24 396 24 c 0
 407 24 440 32 447 44 c 1
 453 57 454 75 454 91 c 0
 454 111 444 181 436 239 c 24
348 298 m 0
 377 298 394 298 423 300 c 0
 425 300 427 302 427 304 c 0
 427 315 402 470 394 526 c 1
 271 303 271 303 271 301 c 0
 271 300 271 299 272 299 c 0
 295 298 327 298 348 298 c 0
EndSplineSet
Validated: 33
Substitution2: "Ordinals-1" A.ordn
EndChar

StartChar: B
Encoding: 66 66 33
Width: 528
VWidth: 0
Flags: W
HStem: 0 41<192.623 361.576> 0 26<24.5312 82.7282> 331 42<251.406 396.411> 616 40<293.594 439.561> 631 27<148.16 193.256>
VStem: 24 168<4 77.5> 448 90<130.792 283.301> 473 85<448.522 584.698>
LayerCount: 2
Fore
SplineSet
448 211 m 0xa6
 448 274 414 331 309 331 c 3
 277 331 238 330 235 316 c 10
 197 116 l 2
 194 98 192 87 192 68 c 27
 192 42 216 41 252 41 c 0
 285 41 330 45 349 54 c 0
 399 77 448 135 448 211 c 0xa6
538 215 m 0
 538 116 443 0 262 0 c 2xb6
 135 0 l 2
 74 0 25 -3 25 -3 c 1
 24 -2 24 2 24 6 c 3
 24 16 27 26 31 26 c 0
 42 26 90 36 96 49 c 0
 109 76 115 105 122 142 c 2
 194 514 l 26
 201 550 205 572 205 607 c 0
 205 618 160 631 149 631 c 0
 148 631 147 632 147 635 c 0
 147 643 150 654 154 658 c 1x6e
 154 658 200 656 261 656 c 0
 348 656 337 657 392 657 c 0
 461 657 558 627 558 528 c 0x35
 558 410 431 361 432 361 c 0
 461 356 538 301 538 215 c 0
473 516 m 0x35
 473 578 441 616 370 616 c 0
 303 616 296 610 295 603 c 2
 250 386 l 2
 248 375 277 373 309 373 c 0
 376 373 473 382 473 516 c 0x35
EndSplineSet
Validated: 33
Substitution2: "Ordinals-1" B.ordn
EndChar

StartChar: C
Encoding: 67 67 34
Width: 580
VWidth: 0
Flags: W
HStem: -6 43<260.223 454.814> 625 42<350.415 531.444>
VStem: 60 91<153.831 385.466> 595 35<483.938 560.958>
LayerCount: 2
Fore
SplineSet
437 667 m 3
 498 667 579 644 650 622 c 1
 650 622 632 508 630 498 c 0
 628 488 614 483 606 483 c 3
 600 483 597 484 595 486 c 1
 595 517 594 625 432 625 c 3
 299 625 151 459 151 259 c 0
 151 137 218 37 350 37 c 3
 405 37 446 51 476 70 c 0
 532 104 551 153 556 153 c 0
 560 153 577 134 576 128 c 1
 567 111 540 53 526 37 c 0
 506 15 406 -6 321 -6 c 3
 154 -6 60 129 60 267 c 0
 60 444 224 667 437 667 c 3
EndSplineSet
Validated: 33
Substitution2: "Ordinals-1" C.ordn
EndChar

StartChar: D
Encoding: 68 68 35
Width: 668
VWidth: 0
Flags: W
HStem: -3 46<170.169 411.618> 2 22<24.2826 73.7743> 614 44<298.047 509.78> 631 27<148.16 193.784>
VStem: 600 88<278.913 517.358>
LayerCount: 2
Fore
SplineSet
424 658 m 3x28
 608 658 688 539 688 405 c 0
 688 240 560 -3 294 -3 c 3xa8
 253 -3 198 2 136 2 c 16x48
 75 2 25 -3 25 -3 c 1x88
 24 -2 24 1 24 5 c 0
 24 15 25 24 29 24 c 0
 40 24 90 36 96 49 c 0
 110 78 115 105 122 142 c 2
 194 514 l 2
 200 547 207 585 205 607 c 0
 204 619 160 631 149 631 c 0
 148 631 147 632 147 635 c 0
 147 643 150 654 154 658 c 1x58
 154 658 200 656 261 656 c 8
 325 656 383 658 424 658 c 3x28
422 614 m 3
 421 614 314 613 302 598 c 0
 284 576 281 552 275 519 c 2
 202 139 l 2
 198 120 198 70 201 63 c 0
 209 45 302 43 317 43 c 3
 491 43 600 228 600 414 c 0
 600 523 548 614 422 614 c 3
EndSplineSet
Validated: 33
Substitution2: "Ordinals-1" D.ordn
EndChar

StartChar: E
Encoding: 69 69 36
Width: 519
VWidth: 0
Flags: W
HStem: 2 42<193 425.927> 2 22<24.2826 73.7743> 309 44<248.5 397.546> 616 48<337.752 505.643> 616 40<293.78 468.151> 631 27<148.16 193.784>
VStem: 24 169<3 80.5> 413 28<230.001 271.196> 525 30<523.143 587.695>
LayerCount: 2
Fore
SplineSet
261 656 m 0x2b80
 347 656 453 664 554 664 c 1
 553 650 553 638 553 625 c 0
 553 592 555 561 555 528 c 1
 552 525 544 523 537 523 c 0
 531 523 525 525 525 530 c 0
 521 611 483 616 426 616 c 2
 372 616 l 2
 336 616 301 615 296 603 c 0
 286 576 283 563 278 536 c 2
 246 361 l 2
 245 354 264 353 283 353 c 2
 328 353 l 2
 417 353 418 355 449 424 c 0
 451 429 457 431 463 431 c 0
 469 431 476 429 478 426 c 1
 441 234 l 1
 438 232 433 230 427 230 c 0
 420 230 414 232 413 238 c 0
 410 295 405 295 398 301 c 0
 389 308 336 309 301 309 c 0
 275 309 235 309 233 300 c 2
 204 152 l 6
 197 118 193 96 193 65 c 0
 193 45 193 44 254 44 c 2
 299 44 l 2xb380
 334 44 390 46 420 61 c 0
 440 71 472 109 498 162 c 0
 500 166 506 168 513 168 c 0
 522 168 532 165 534 162 c 1
 505 108 467 40 452 -4 c 1
 351 -4 220 2 136 2 c 0
 75 2 25 -3 25 -3 c 1
 24 -2 24 1 24 5 c 0
 24 15 25 24 29 24 c 0
 40 24 90 36 96 49 c 0
 110 78 115 105 122 142 c 6
 194 514 l 6
 200 547 207 585 205 607 c 0
 204 619 160 631 149 631 c 0
 148 631 147 632 147 635 c 0
 147 643 150 654 154 658 c 1x6780
 154 658 200 656 261 656 c 0x2b80
EndSplineSet
Validated: 33
Substitution2: "Ordinals-1" E.ordn
EndChar

StartChar: F
Encoding: 70 70 37
Width: 503
VWidth: 0
Flags: W
HStem: -3 27<24.1405 80.0173 199.625 258.266> 309 44<246.5 395.546> 616 48<336.495 503.643> 616 40<291.78 470.963> 631 27<148.16 193.784>
VStem: 24 165<3 63.5> 411 28<230.001 271.196> 523 30<523.143 587.695>
LayerCount: 2
Fore
SplineSet
136 2 m 20xe7
 75 2 25 -3 25 -3 c 5
 24 -2 24 1 24 5 c 4
 24 15 25 24 29 24 c 4
 40 24 90 36 96 49 c 4
 110 78 115 105 122 142 c 6
 194 514 l 6
 200 547 207 585 205 607 c 4
 204 619 160 631 149 631 c 4
 148 631 147 632 147 635 c 4
 147 643 150 654 154 658 c 5xcf
 154 658 200 656 261 656 c 4xd7
 345 656 451 664 552 664 c 5
 551 650 551 638 551 625 c 4
 551 592 553 561 553 528 c 5
 550 525 542 523 535 523 c 4
 529 523 523 525 523 530 c 4
 519 611 481 616 424 616 c 6
 370 616 l 6
 334 616 299 615 294 603 c 4
 284 576 281 563 276 536 c 6
 244 361 l 6
 243 354 262 353 281 353 c 6
 326 353 l 6
 415 353 416 355 447 424 c 4
 449 429 455 431 461 431 c 4
 467 431 474 429 476 426 c 5
 439 234 l 5
 436 232 431 230 425 230 c 4
 418 230 412 232 411 238 c 4
 408 295 403 295 396 301 c 4
 387 308 334 309 299 309 c 4
 273 309 233 309 231 300 c 6
 197 128 l 6
 191 98 189 78 189 49 c 4
 189 30 257 24 257 24 c 6
 258 24 259 18 259 16 c 4
 259 10 255 -1 253 -3 c 5
 216 -1 182 2 136 2 c 20xe7
EndSplineSet
Validated: 33
Substitution2: "Ordinals-1" F.ordn
EndChar

StartChar: G
Encoding: 71 71 38
Width: 616
VWidth: 0
Flags: W
HStem: -6 43<260.898 465.942> 274 27<441.255 495.976 608.271 664.314> 625 42<353.466 533.444>
VStem: 60 95<158.898 373.313> 597 34<483.319 559.498>
LayerCount: 2
Fore
SplineSet
439 667 m 0
 500 667 581 644 652 622 c 1
 639 535 634 507 631 492 c 0
 630 485 617 483 608 483 c 0
 602 483 598 485 597 488 c 1
 597 519 596 625 434 625 c 0
 283 625 155 434 155 273 c 0
 155 153 220 37 343 37 c 0
 391 37 433 41 468 59 c 0
 474 62 477 67 479 76 c 2
 507 218 l 2
 507 219 511 234 511 248 c 0
 511 262 453 274 442 274 c 0
 441 274 440 276 440 279 c 0
 440 287 444 297 448 301 c 9
 491 299 514 296 557 296 c 27
 600 296 628 299 666 301 c 1
 666 291 665 274 660 274 c 0
 649 274 590 265 586 236 c 2
 562 97 l 2
 562 95 561 92 561 90 c 3
 561 78 563 70 563 63 c 3
 563 55 562 49 540 41 c 0
 487 21 430 -6 299 -6 c 3
 156 -6 60 108 60 254 c 0
 60 449 234 667 439 667 c 0
EndSplineSet
Validated: 1
Substitution2: "Ordinals-1" G.ordn
EndChar

StartChar: H
Encoding: 72 72 39
Width: 627
VWidth: 0
Flags: W
HStem: -3 27<24.4281 84.0156 198.438 244.422 387.428 447.016 561.438 607.422> 316 49<249.344 513.5> 631 27<146.364 192.227 312.049 365.93 509.364 555.227 676.837 729.93>
VStem: 24 166<3.5 63.5>
LayerCount: 2
Fore
SplineSet
397 365 m 0
 518 365 527 367 528 373 c 10
 555 512 l 2
 562 547 566 568 566 604 c 3
 566 621 521 631 510 631 c 0
 509 631 508 633 508 636 c 0
 508 643 512 654 516 658 c 1
 558 656 581 652 624 652 c 0
 665 652 693 656 731 658 c 1
 731 657 731 656 731 655 c 0
 731 647 728 631 724 631 c 0
 717 631 668 619 663 608 c 0
 651 581 644 552 637 515 c 2
 564 139 l 2
 557 104 553 78 553 49 c 0
 553 30 607 24 607 24 c 2
 608 24 609 22 609 20 c 0
 609 14 605 1 603 -3 c 1
 566 -1 540 2 499 2 c 0
 456 2 432 -1 389 -3 c 1
 388 -2 387 2 387 5 c 0
 387 13 390 24 394 24 c 0
 405 24 452 33 458 46 c 0
 470 74 477 104 484 142 c 2
 516 307 l 1
 516 308 l 2
 516 315 499 316 379 316 c 0
 234 316 235 315 233 304 c 10
 201 139 l 2
 194 104 190 78 190 49 c 0
 190 30 244 24 244 24 c 2
 245 24 246 22 246 20 c 0
 246 14 242 1 240 -3 c 1
 203 -1 177 2 136 2 c 0
 93 2 69 -1 26 -3 c 1
 25 -2 24 2 24 5 c 0
 24 13 27 24 31 24 c 0
 42 24 89 33 95 46 c 0
 107 74 114 104 121 142 c 2
 192 512 l 2
 199 547 203 568 203 604 c 3
 203 621 158 631 147 631 c 0
 146 631 145 633 145 636 c 0
 145 643 149 654 153 658 c 1
 195 656 218 652 261 652 c 0
 302 652 329 656 367 658 c 1
 367 657 367 656 367 655 c 0
 367 647 364 631 360 631 c 0
 353 631 303 619 298 608 c 0
 286 581 277 544 272 515 c 2
 247 374 l 17
 247 373 l 2
 247 366 269 365 397 365 c 0
EndSplineSet
Validated: 1
Substitution2: "Ordinals-1" H.ordn
EndChar

StartChar: I
Encoding: 73 73 40
Width: 263
VWidth: 0
Flags: W
HStem: -3 27<24.4281 84.0156 198.438 244.422> 631 27<146.364 192.227 312.049 365.93>
VStem: 24 166<3.5 63.5>
LayerCount: 2
Fore
SplineSet
272 515 m 2
 201 139 l 2
 194 104 190 78 190 49 c 0
 190 30 244 24 244 24 c 2
 245 24 246 22 246 20 c 0
 246 14 242 1 240 -3 c 5
 203 -1 177 2 136 2 c 0
 93 2 69 -1 26 -3 c 1
 25 -2 24 2 24 5 c 0
 24 13 27 24 31 24 c 0
 42 24 89 33 95 46 c 0
 107 74 114 104 121 142 c 2
 192 512 l 2
 199 547 203 568 203 604 c 3
 203 621 158 631 147 631 c 0
 146 631 145 633 145 636 c 0
 145 643 149 654 153 658 c 1
 195 656 218 652 261 652 c 0
 302 652 329 656 367 658 c 1
 367 657 367 656 367 655 c 0
 367 647 364 631 360 631 c 0
 353 631 303 619 298 608 c 0
 286 581 278 544 272 515 c 2
EndSplineSet
Validated: 1
Substitution2: "Ordinals-1" I.ordn
EndChar

StartChar: J
Encoding: 74 74 41
Width: 254
VWidth: 0
Flags: W
HStem: -233 24<-79.5234 -50.0663> 631 27<137.364 188.604 308.564 356.93>
LayerCount: 2
Fore
SplineSet
115 109 m 2
 190 512 l 2
 196 547 201 568 201 604 c 3
 201 621 149 631 138 631 c 0
 137 631 136 633 136 636 c 0
 136 643 140 654 144 658 c 1
 186 656 209 652 252 652 c 0
 293 652 320 656 358 658 c 1
 358 657 358 656 358 655 c 0
 358 647 355 631 351 631 c 0
 344 631 301 619 296 608 c 0
 284 581 275 544 270 515 c 2
 195 116 l 2
 145 -148 6 -233 -74 -233 c 1
 -78 -228 -80 -223 -80 -215 c 0
 -80 -213 -79 -209 -79 -209 c 1
 33 -174 79 -83 115 109 c 2
EndSplineSet
Validated: 1
Substitution2: "Ordinals-1" J.ordn
EndChar

StartChar: K
Encoding: 75 75 42
Width: 642
VWidth: 0
Flags: W
HStem: -3 27<24.4281 84.0156 198.438 244.422 608.055 651.25> 631 27<146.364 192.227 312.049 365.93 487.293 537.971 624.611 694.194>
VStem: 24 166<3.5 63.5>
LayerCount: 2
Fore
SplineSet
272 515 m 2
 201 139 l 2
 194 104 190 78 190 49 c 0
 190 30 244 24 244 24 c 2
 245 24 246 22 246 20 c 0
 246 14 242 1 240 -3 c 1
 203 -1 177 2 136 2 c 0
 93 2 69 -1 26 -3 c 1
 25 -2 24 2 24 5 c 0
 24 13 27 24 31 24 c 0
 42 24 89 33 95 46 c 0
 107 74 114 104 121 142 c 2
 192 512 l 2
 199 547 203 568 203 604 c 3
 203 621 158 631 147 631 c 0
 146 631 145 633 145 636 c 0
 145 643 149 654 153 658 c 1
 195 656 218 652 261 652 c 0
 302 652 329 656 367 658 c 1
 367 657 367 656 367 655 c 0
 367 647 364 631 360 631 c 0
 353 631 303 619 298 608 c 0
 286 581 278 544 272 515 c 2
237 326 m 1
 301 366 421 482 508 578 c 0
 514 585 538 608 538 618 c 0
 538 632 498 635 490 635 c 0
 488 635 487 637 487 641 c 3
 487 646 489 653 492 658 c 1
 526 656 556 652 590 652 c 0
 631 652 659 656 697 658 c 1
 697 652 696 635 691 635 c 0
 682 634 623 629 585 591 c 2
 341 347 l 2
 337 343 336 339 336 335 c 3
 336 329 339 323 342 319 c 2
 546 72 l 6
 573 39 644 28 651 28 c 4
 653 28 653 25 653 22 c 7
 653 15 650 5 648 1 c 5
 631 0 592 -2 573 -2 c 4
 503 -2 465 34 457 44 c 2
 457 44 258 297 237 326 c 1
EndSplineSet
Validated: 1
Substitution2: "Ordinals-1" K.ordn
EndChar

StartChar: L
Encoding: 76 76 43
Width: 498
VWidth: 0
Flags: W
HStem: 2 42<192.001 425.927> 2 27<24.9822 88.7161> 631 27<147.364 193.227 313.049 366.93>
VStem: 24 168<3 80.5>
LayerCount: 2
Fore
SplineSet
202 139 m 2x70
 197 110 192 96 192 65 c 0
 192 45 193 44 254 44 c 2
 299 44 l 2xb0
 334 44 390 46 420 61 c 0
 440 71 472 109 498 162 c 0
 500 166 506 168 513 168 c 0
 522 168 532 165 534 162 c 1
 505 108 467 40 452 -4 c 1
 351 -4 221 2 136 2 c 0
 75 2 25 -3 25 -3 c 1
 24 -2 24 1 24 5 c 0
 24 15 27 29 31 29 c 0
 42 29 90 36 96 49 c 0
 109 76 115 105 122 142 c 0
 149 283 193 512 193 512 c 2
 200 547 204 568 204 604 c 3
 204 621 159 631 148 631 c 0
 147 631 146 633 146 636 c 0
 146 643 150 654 154 658 c 1
 196 656 219 652 262 652 c 0
 303 652 330 656 368 658 c 1
 368 657 368 656 368 655 c 0
 368 647 365 631 361 631 c 0
 354 631 304 619 299 608 c 0
 287 581 279 544 273 515 c 2
 202 139 l 2x70
EndSplineSet
Validated: 1
Substitution2: "Ordinals-1" L.ordn
EndChar

StartChar: M
Encoding: 77 77 44
Width: 814
VWidth: 0
Flags: W
HStem: -3 27<12.2121 77.698 182.786 232.156 580.019 644.304 746.093 800.489> 631 27<181.529 237.508 821.372 862.43>
VStem: 12 151<5.5 62> 251 48<540.595 568.999>
LayerCount: 2
Fore
SplineSet
634 523 m 26
 697 658 l 1
 706 657 746 655 776 655 c 0
 813 655 824 656 863 659 c 1
 866 652 863 630 858 630 c 0
 841 630 819 620 809 606 c 0
 799 592 793 579 786 517 c 2
 747 135 l 2
 744 109 741 87 741 56 c 3
 741 19 781 26 799 24 c 0
 800 24 801 19 801 15 c 3
 801 8 797 -1 795 -3 c 1
 758 -1 729 2 686 2 c 27
 645 2 622 -1 581 -3 c 17
 580 -1 579 -2 579 2 c 3
 579 10 583 24 586 24 c 0
 597 24 643 30 649 42 c 0
 664 69 665 97 669 132 c 2
 709 522 l 2
 710 532 712 554 712 561 c 0
 712 565 709 567 706 567 c 0
 705 567 704 565 703 563 c 2
 442 31 l 2
 437 22 415 -2 397 -2 c 0
 394 -2 391 -1 389 0 c 1
 304 567 l 26
 304 567 303 569 302 569 c 3
 301 569 299 568 299 567 c 2
 182 136 l 2
 173 104 163 71 163 53 c 0
 163 37 230 24 231 24 c 0
 233 24 233 22 233 18 c 3
 233 11 230 1 228 -3 c 1
 191 -1 165 2 124 2 c 27
 81 2 57 -1 14 -3 c 17
 13 -2 12 4 12 7 c 0
 12 15 15 24 19 24 c 0
 30 24 90 36 96 48 c 0
 110 75 119 101 129 137 c 2
 238 528 l 9
 243 558 251 575 251 604 c 3
 251 622 188 631 183 631 c 0
 181 631 181 635 181 638 c 3
 181 645 183 655 187 658 c 9
 224 657 244 656 281 656 c 27
 318 656 338 656 376 658 c 1
 383 595 423 342 452 163 c 0
 452 162 452 162 453 162 c 3
 454 162 456 163 456 164 c 2
 634 523 l 26
EndSplineSet
Validated: 1
Substitution2: "Ordinals-1" M.ordn
EndChar

StartChar: N
Encoding: 78 78 45
Width: 663
VWidth: 0
Flags: W
HStem: -8 21G<544.5 550.5> -3 27<24.4281 89.698 193.076 243.988> 631 27<151.741 211.922 546.741 606.38 697.647 765.642>
VStem: 24 154<3.5 66.5>
LayerCount: 2
Fore
SplineSet
257 654 m 27x70
 294 654 313 656 351 658 c 1
 371 580 460 367 543 203 c 1
 549 220 551 228 554 244 c 2
 605 513 l 2
 612 548 618 569 618 605 c 3
 618 623 559 631 548 631 c 0
 546 631 546 635 546 638 c 3
 546 645 549 655 553 658 c 9
 594 656 617 653 658 653 c 27
 701 653 729 656 767 658 c 1
 767 650 767 631 761 631 c 0
 754 631 688 620 683 609 c 0
 672 583 665 553 658 516 c 2
 583 136 l 2
 572 82 565 27 559 -4 c 1
 556 -7 552 -8 549 -8 c 0xb0
 540 -8 530 2 523 15 c 0
 519 23 373 360 277 581 c 17
 188 141 l 2
 181 107 178 81 178 52 c 0
 178 33 243 24 243 24 c 2
 245 24 245 22 245 19 c 3
 245 12 242 1 240 -3 c 1
 203 -1 177 2 136 2 c 27
 93 2 69 -1 26 -3 c 17
 25 -2 24 2 24 5 c 0
 24 13 27 24 31 24 c 0
 42 24 102 36 108 48 c 0
 122 75 127 106 135 144 c 2
 212 516 l 2
 219 550 221 592 221 606 c 3
 221 624 164 631 153 631 c 0
 151 631 151 634 151 638 c 3
 151 645 154 655 158 658 c 9
 197 656 218 654 257 654 c 27x70
EndSplineSet
Validated: 1
Substitution2: "Ordinals-1" N.ordn
EndChar

StartChar: O
Encoding: 79 79 46
Width: 624
VWidth: 0
Flags: W
HStem: -10 43<243.94 401.754> 625 42<329.788 486.87>
VStem: 60 91<140.927 386.765> 578 92<276.389 516.961>
LayerCount: 2
Fore
SplineSet
409 625 m 7
 259 625 151 439 151 267 c 7
 151 137 209 33 322 33 c 7
 466 33 578 222 578 395 c 7
 578 522 521 625 409 625 c 7
432 667 m 7
 568 667 670 551 670 409 c 7
 670 190 495 -10 296 -10 c 7
 151 -10 60 108 60 259 c 7
 60 474 250 667 432 667 c 7
EndSplineSet
Validated: 1
Substitution2: "Ordinals-1" O.ordn
EndChar

StartChar: P
Encoding: 80 80 47
Width: 505
VWidth: 0
Flags: W
HStem: -3 27<24.4281 84.0156 200.156 256.266> 295 33<271.354 370.284> 621 37<292.345 439.893> 631 27<153.741 201.266>
VStem: 24 166<3.5 63.5> 480 85<425.144 575.67>
LayerCount: 2
Fore
SplineSet
395 658 m 3xec
 464 658 565 600 565 504 c 0
 565 385 447 295 339 295 c 0
 297 295 277 301 269 304 c 1
 267 311 267 311 267 314 c 3
 267 318 269 326 273 330 c 1
 280 329 281 328 297 328 c 0
 377 328 480 389 480 516 c 0
 480 596 432 621 372 621 c 3xec
 305 621 294 614 292 601 c 2
 199 128 l 2
 193 98 190 78 190 49 c 0
 190 30 255 24 255 24 c 2
 256 24 257 18 257 16 c 0
 257 10 253 -1 251 -3 c 1
 214 -1 189 2 149 2 c 27
 101 2 74 -1 26 -3 c 17
 25 -2 24 2 24 5 c 0
 24 13 27 24 31 24 c 0
 42 24 89 34 95 46 c 0
 109 74 113 104 121 142 c 2
 203 554 l 2
 207 574 208 592 208 606 c 3
 208 624 166 631 155 631 c 0
 153 631 153 634 153 638 c 3
 153 645 156 655 160 658 c 1xdc
 160 658 203 655 264 655 c 0
 319 655 340 658 395 658 c 3xec
EndSplineSet
Validated: 1
Substitution2: "Ordinals-1" P.ordn
EndChar

StartChar: Q
Encoding: 81 81 48
Width: 624
VWidth: 0
Flags: W
HStem: -186 53<478.332 656.301> -52 25<132.973 160.327> 625 42<329.788 486.87>
VStem: 60 91<142.103 386.765> 578 92<280.516 516.961>
LayerCount: 2
Fore
SplineSet
409 625 m 0
 259 625 151 439 151 267 c 0
 151 137 209 33 322 33 c 0
 466 33 578 222 578 395 c 0
 578 522 521 625 409 625 c 0
432 667 m 0
 568 667 670 551 670 409 c 0
 670 267 595 133 490 56 c 0
 453 29 377 -16 276 -35 c 1
 359 -47 475 -133 593 -133 c 0
 649 -133 719 -88 739 -71 c 1
 743 -73 762 -82 762 -95 c 1
 747 -115 655 -186 556 -186 c 0
 406 -186 330 -107 123 -52 c 1
 123 -47 134 -30 141 -27 c 1
 159 -25 202 -15 247 -5 c 1
 131 19 60 126 60 259 c 0
 60 474 250 667 432 667 c 0
EndSplineSet
Validated: 1
Substitution2: "Ordinals-1" Q.ordn
EndChar

StartChar: R
Encoding: 82 82 49
Width: 593
VWidth: 0
Flags: W
HStem: -3 27<24.4281 84.0156 198.438 244.422 540.067 592.012> 311 41<245.75 325.473> 621 37<293.146 446.078> 631 27<153.741 201.266>
VStem: 24 166<3.5 63.5> 483 85<443.745 592.158>
LayerCount: 2
Fore
SplineSet
389 658 m 0xec
 458 658 568 629 568 522 c 0
 568 411 445 344 407 327 c 8
 402 325 400 320 402 315 c 0
 429 224 475 119 504 74 c 0
 536 24 565 29 590 29 c 1
 592 24 596 8 591 1 c 1
 581 -1 555 -4 533 -4 c 0
 442 -4 397 78 326 297 c 0
 322 309 301 311 282 311 c 0
 243 311 234 311 230 294 c 2
 201 139 l 2
 194 104 190 78 190 49 c 0
 190 30 244 24 244 24 c 2
 245 24 246 22 246 20 c 0
 246 14 242 1 240 -3 c 1
 203 -1 177 2 136 2 c 0
 93 2 69 -1 26 -3 c 1
 25 -2 24 2 24 5 c 0
 24 13 27 24 31 24 c 0
 42 24 89 33 95 46 c 0
 107 74 113 104 121 142 c 2
 203 556 l 18
 207 577 208 592 208 606 c 3
 208 624 166 631 155 631 c 0
 153 631 153 634 153 638 c 3
 153 645 156 655 160 658 c 1xdc
 160 658 203 655 264 655 c 0
 320 655 334 658 389 658 c 0xec
373 621 m 0xec
 306 621 296 619 293 602 c 2
 245 369 l 1
 245 367 l 2
 245 355 274 352 292 352 c 3
 380 352 483 406 483 527 c 0
 483 593 443 621 373 621 c 0xec
EndSplineSet
Validated: 33
Substitution2: "Ordinals-1" R.ordn
EndChar

StartChar: S
Encoding: 83 83 50
Width: 435
VWidth: 0
Flags: W
HStem: -6 41<143.521 287.519> 623 43<253.545 383.8>
VStem: 53 36<96.1135 182.974> 122 78<438.463 550.227> 355 86<119.326 228.725> 428 47<498.096 578.294>
LayerCount: 2
Fore
SplineSet
355 172 m 3xf8
 355 283 122 324 122 458 c 3
 122 580 224 666 346 666 c 3
 394 666 428 646 475 642 c 1
 456 492 460 492 453 492 c 3
 449 492 437 493 430 498 c 0
 427 500 428 505 428 510 c 3xf4
 428 574 379 623 327 623 c 3
 249 623 200 569 200 502 c 3
 200 467 216 436 249 410 c 0
 337 341 441 297 441 199 c 3
 441 119 362 -6 208 -6 c 3
 147 -6 97 7 49 18 c 9
 51 50 53 67 53 99 c 27
 53 129 51 166 51 176 c 0
 51 181 62 183 70 183 c 27
 78 183 84 179 89 175 c 1
 89 129 105 35 217 35 c 3
 280 35 355 80 355 172 c 3xf8
EndSplineSet
Validated: 1
Substitution2: "Ordinals-1" S.ordn
EndChar

StartChar: T
Encoding: 84 84 51
Width: 601
VWidth: 0
Flags: W
HStem: -3 27<188.428 248.016 362.438 408.422> 615 39<190.76 367.003 461.211 636.687>
VStem: 116 30<521.522 551.296> 188 166<3.5 63.5> 655 32<521.838 593.761>
LayerCount: 2
Fore
SplineSet
285 142 m 2
 354 497 l 2
 361 534 367 563 367 594 c 0
 367 604 371 615 268 615 c 0
 196 615 179 599 146 526 c 0
 144 522 141 521 136 521 c 0
 128 521 119 525 116 528 c 1
 160 671 l 1
 174 667 210 660 223 660 c 0
 306 659 350 654 425 654 c 0
 500 654 548 659 631 660 c 0
 644 660 681 667 697 671 c 1
 687 528 l 1
 683 525 672 521 664 521 c 0
 659 521 655 522 655 526 c 0
 655 602 628 615 569 615 c 0
 510 615 468 610 463 600 c 0
 450 572 443 540 435 500 c 2
 365 139 l 2
 358 104 354 78 354 49 c 0
 354 30 408 24 408 24 c 2
 409 24 410 22 410 20 c 0
 410 14 406 1 404 -3 c 1
 367 -1 341 2 300 2 c 0
 257 2 233 -1 190 -3 c 1
 189 -2 188 2 188 5 c 0
 188 13 191 24 195 24 c 0
 206 24 253 33 259 46 c 0
 271 74 278 104 285 142 c 2
EndSplineSet
Validated: 33
Substitution2: "Ordinals-1" T.ordn
EndChar

StartChar: U
Encoding: 85 85 52
Width: 631
VWidth: 0
Flags: W
HStem: 0 49<261.52 423.687> 631 27<127.364 173.227 293.049 346.93 519.898 580.113 678.087 738.675>
VStem: 120 84<111.678 354.133>
LayerCount: 2
Fore
SplineSet
173 512 m 2
 180 548 184 568 184 604 c 3
 184 621 139 631 128 631 c 0
 127 631 126 633 126 636 c 0
 126 643 130 654 134 658 c 1
 176 656 199 652 242 652 c 0
 283 652 310 656 348 658 c 1
 348 657 348 656 348 655 c 0
 348 647 345 631 341 631 c 0
 334 631 284 619 279 608 c 0
 267 581 259 544 253 515 c 2
 212 298 l 2
 208 276 204 239 204 213 c 0
 204 114 246 49 335 49 c 0
 425 49 508 102 540 274 c 2
 584 512 l 10
 590 547 596 571 596 602 c 0
 596 621 535 631 521 631 c 0
 519 631 519 633 519 637 c 3
 519 644 522 655 526 658 c 9
 568 656 592 652 634 652 c 27
 676 652 703 656 741 658 c 1
 741 649 739 631 734 631 c 0
 727 631 666 618 659 608 c 0
 651 598 640 547 632 510 c 2
 587 276 l 2
 544 55 458 0 304 0 c 19
 190 0 120 71 120 206 c 0
 120 227 124 263 134 312 c 2
 173 512 l 2
EndSplineSet
Validated: 1
Substitution2: "Ordinals-1" U.ordn
EndChar

StartChar: V
Encoding: 86 86 53
Width: 640
VWidth: 0
Flags: W
HStem: 631 27<121.07 161.992 280.924 339.93 552.07 597.828 698.889 748.891>
LayerCount: 2
Fore
SplineSet
232 654 m 27
 275 654 303 656 341 658 c 1
 341 657 341 656 341 655 c 0
 341 647 338 631 334 631 c 0
 286 631 274 620 274 594 c 0
 274 588 275 577 278 562 c 0
 294 475 335 255 355 143 c 9
 595 554 l 2
 600 562 607 581 607 602 c 0
 607 620 577 631 553 631 c 0
 551 631 551 633 551 636 c 0
 551 643 554 655 558 658 c 9
 594 656 615 654 651 654 c 27
 690 654 712 656 750 658 c 1
 750 656 750 654 750 652 c 0
 749 642 746 631 742 631 c 0
 722 631 682 617 660 579 c 2
 334 19 l 2
 322 -2 311 -14 296 -14 c 0
 292 -14 289 -11 287 -8 c 1
 188 551 l 2
 183 577 177 596 173 606 c 0
 166 622 133 631 122 631 c 0
 120 631 120 633 120 636 c 0
 120 643 123 655 127 658 c 9
 168 656 191 654 232 654 c 27
EndSplineSet
Validated: 1
Substitution2: "Ordinals-1" V.ordn
EndChar

StartChar: W
Encoding: 87 87 54
Width: 973
VWidth: 0
Flags: W
HStem: 631 27<114.07 151.343 278.659 324.93 379.364 415.863 544.206 590.636 647.07 681.027 797.556 845.635 887.07 921.027 1037.56 1085.64>
LayerCount: 2
Fore
SplineSet
218 652 m 0
 259 652 288 656 326 658 c 1
 326 657 326 656 326 655 c 0
 326 647 323 631 319 631 c 0
 285 631 267 612 267 594 c 0
 267 586 272 565 274 557 c 2
 401 112 l 17
 410 125 490 246 522 295 c 1
 448 560 l 2
 443 579 439 590 429 606 c 0
 420 620 391 631 380 631 c 0
 378 631 378 633 378 636 c 0
 378 643 382 655 386 658 c 1
 428 656 449 652 492 652 c 0
 533 652 554 656 592 658 c 1
 592 657 592 656 592 655 c 0
 592 647 588 631 584 631 c 0
 550 631 533 612 533 594 c 0
 533 586 537 565 539 557 c 2
 584 396 l 1
 669 534 l 2
 686 561 694 578 694 593 c 0
 694 623 654 631 648 631 c 0
 646 631 646 633 646 636 c 0
 646 643 649 655 653 658 c 1
 682 656 718 652 748 652 c 0
 795 652 810 656 848 658 c 1
 848 644 845 631 841 631 c 0
 817 631 777 608 768 598 c 0
 752 580 722 535 698 498 c 2
 598 344 l 1
 631 227 664 113 666 106 c 9
 909 534 l 2
 925 562 934 578 934 593 c 0
 934 623 894 631 888 631 c 0
 886 631 886 633 886 636 c 0
 886 643 889 655 893 658 c 1
 922 656 958 652 988 652 c 0
 1035 652 1050 656 1088 658 c 1
 1088 644 1085 631 1081 631 c 0
 1057 631 1017 608 1008 598 c 0
 992 580 960 536 938 498 c 2
 657 19 l 2
 642 -7 622 -13 614 -13 c 0
 610 -13 607 -11 606 -8 c 2
 536 245 l 1
 390 19 l 2
 378 1 365 -13 348 -13 c 0
 346 -13 342 -11 340 -8 c 1
 198 510 l 2
 188 547 178 577 163 606 c 0
 155 621 126 631 115 631 c 0
 113 631 113 633 113 636 c 0
 113 643 116 655 120 658 c 1
 162 656 175 652 218 652 c 0
EndSplineSet
Validated: 1
Substitution2: "Ordinals-1" W.ordn
EndChar

StartChar: X
Encoding: 88 88 55
Width: 656
VWidth: 0
Flags: W
HStem: -3 27<10.4357 80.0971 182.26 234.723 406.428 454.278 603.887 655.613> 631 27<166.07 209.369 359.877 411.291 534.07 581.24 693.511 760.93>
VStem: 10 166<0.5 62.5> 356 84<314.25 378.353>
LayerCount: 2
Back
SplineSet
367 529 m 25
 525 153 l 25
288 498 m 25
 446 122 l 25
EndSplineSet
Fore
SplineSet
289 652 m 4
 335 652 374 656 412 658 c 1
 412 654 l 2
 412 646 410 631 406 631 c 0
 397 631 342 623 342 591 c 0
 342 584 343 577 347 567 c 2
 347 567 421 399 422 399 c 1
 424 399 593 576 593 600 c 0
 593 618 560 631 535 631 c 0
 533 631 533 633 533 636 c 0
 533 643 536 655 540 658 c 1
 574 656 617 652 651 652 c 0
 699 652 724 656 762 658 c 1
 762 657 762 656 762 655 c 0
 762 647 759 631 755 631 c 0
 748 631 677 620 659 600 c 2
 659 600 440 357 440 355 c 1
 440 354 545 100 564 69 c 0
 586 32 647 24 654 24 c 0
 656 24 656 22 656 19 c 0
 656 12 655 1 653 -3 c 1
 616 -1 580 2 542 2 c 0
 490 2 461 -1 408 -3 c 1
 407 -2 406 2 406 5 c 0
 406 13 409 24 413 24 c 0
 423 24 468 35 468 56 c 0
 468 58 469 67 466 74 c 0
 466 74 375 291 374 291 c 1
 373 291 176 71 176 54 c 0
 176 24 220 24 231 24 c 0
 233 24 235 21 235 15 c 0
 235 8 233 0 230 -3 c 1
 196 -1 161 -2 127 -2 c 0
 79 -2 49 -1 11 -3 c 1
 10 -2 10 0 10 1 c 0
 10 9 11 24 15 24 c 0
 22 24 81 27 105 54 c 2
 105 54 356 333 356 336 c 1
 356 338 278 520 278 520 c 2
 254 577 248 587 223 609 c 0
 210 620 178 631 167 631 c 0
 165 631 165 633 165 636 c 0
 165 643 168 655 172 658 c 1
 217 656 243 652 289 652 c 4
EndSplineSet
Validated: 33
Substitution2: "Ordinals-1" X.ordn
EndChar

StartChar: Y
Encoding: 89 89 56
Width: 593
VWidth: 0
Flags: W
HStem: -3 27<179.536 238.594 353.438 399.527> 631 27<121.07 162.976 316.818 367.182 484.898 534.535 645.534 702.33>
VStem: 179 166<2.5 63.5>
LayerCount: 2
Fore
SplineSet
244 652 m 0
 290 652 330 656 368 658 c 1
 368 653 l 2
 368 645 365 631 361 631 c 0
 352 631 298 622 298 589 c 0
 298 583 299 576 302 567 c 2
 371 355 l 17
 444 451 549 584 548 600 c 0
 547 618 511 631 486 631 c 0
 484 631 484 633 484 637 c 3
 484 644 487 655 491 658 c 1
 525 656 549 652 583 652 c 0
 631 652 664 656 702 658 c 1
 703 656 703 655 703 653 c 3
 703 643 700 631 696 631 c 0
 689 631 634 619 615 600 c 0
 602 587 387 300 384 285 c 2
 356 139 l 2
 349 104 345 78 345 49 c 0
 345 30 399 24 399 24 c 2
 400 24 401 23 401 20 c 3
 401 13 397 1 395 -3 c 1
 358 -1 332 2 291 2 c 27
 248 2 223 -1 180 -3 c 17
 179 -2 179 1 179 4 c 3
 179 12 182 24 186 24 c 0
 197 24 243 34 250 46 c 0
 261 65 268 98 275 136 c 2
 301 278 l 0
 303 286 217 545 217 545 c 0
 205 582 194 597 178 609 c 0
 164 619 133 631 122 631 c 0
 120 631 120 633 120 636 c 0
 120 643 123 655 127 658 c 1
 172 656 198 652 244 652 c 0
EndSplineSet
Validated: 33
Substitution2: "Ordinals-1" Y.ordn
EndChar

StartChar: Z
Encoding: 90 90 57
Width: 546
VWidth: 0
Flags: W
HStem: 0 51<161.003 461.84> 608 47<225.767 508.66> 646 19G<166 183 575.5 623.5>
LayerCount: 2
Fore
SplineSet
323 656 m 4xa0
 369 655 404 655 431 655 c 0
 526 655 529 659 622 666 c 1
 625 665 626 636 625 633 c 1
 622 625 169 76 169 76 c 2
 163 69 161 63 161 59 c 0
 161 53 165 51 171 51 c 10
 381 51 l 18
 481 51 503 121 517 152 c 0
 519 158 536 160 544 160 c 0
 551 160 556 157 558 154 c 1
 526 76 516 47 501 0 c 1
 40 0 l 1
 37 5 36 11 36 17 c 0
 36 27 39 37 44 43 c 2
 510 608 l 17
 467 608 l 2xc0
 411 608 312 607 309 607 c 0
 217 606 195 567 157 484 c 0
 155 481 152 480 147 480 c 0
 137 480 123 486 120 489 c 1
 138 539 156 600 176 665 c 1
 190 661 310 656 323 656 c 4xa0
EndSplineSet
Validated: 33
Substitution2: "Ordinals-1" Z.ordn
EndChar

StartChar: bracketleft
Encoding: 91 91 58
Width: 307
VWidth: 0
Flags: W
HStem: -102 45<53.25 145.952> 695 45<192.75 298.966>
VStem: -9 332
LayerCount: 2
Fore
SplineSet
168 740 m 0
 243 740 303 749 318 749 c 0
 320 749 323 749 323 743 c 0
 323 721 300 707 299 706 c 2
 299 706 253 695 203 695 c 0
 197 695 195 687 195 687 c 1
 51 -49 l 1
 51 -49 50 -57 56 -57 c 0
 106 -57 146 -74 146 -74 c 1
 148 -76 158 -77 154 -102 c 0
 152 -113 146 -114 146 -114 c 1
 146 -114 80 -102 4 -102 c 0
 -8 -102 -9 -92 -9 -85 c 2
 -9 -79 l 1
 145 717 l 2
 145 718 151 740 168 740 c 0
EndSplineSet
Validated: 1
Substitution2: "Ordinals-1" bracketleft.ordn
Substitution2: "'smcp' Lowercase to Small Capitals in Latin lookup 3-1" bracketleft.sc
EndChar

StartChar: backslash
Encoding: 92 92 59
Width: 212
VWidth: 0
Flags: W
VStem: 142 52<-37.0819 4.74306>
LayerCount: 2
Fore
SplineSet
26 761 m 0
 60 761 66 749 67 739 c 2
 193 13 l 2
 194 10 194 8 194 5 c 0
 194 -16 181 -37 165 -39 c 0
 159 -39 142 -37 142 -37 c 1
 6 755 l 1
 10 757 12 761 26 761 c 0
EndSplineSet
Validated: 1
Substitution2: "Ordinals-1" backslash.ordn
Substitution2: "'smcp' Lowercase to Small Capitals in Latin lookup 3-1" backslash.sc
EndChar

StartChar: bracketright
Encoding: 93 93 60
Width: 299
VWidth: 0
Flags: W
HStem: -102 45<4.08543 110.234> 695 45<154.031 250.981>
VStem: -17 328
LayerCount: 2
Back
SplineSet
31 -114 m 5
 31 -114 27.2618 -111.508 27.2618 -105.133 c 4
 27.2618 -88.58 46.9951 -74.0039 47 -74 c 6
 47 -74 93 -57 143 -57 c 4
 149 -57 152 -49 152 -49 c 5
EndSplineSet
Fore
SplineSet
150 749 m 0
 152 749 221 740 298 740 c 0
 309 740 311 732 311 725 c 0
 311 721 311 720 310 717 c 26
 156 -79 l 2
 156 -80 151 -102 134 -102 c 0
 58 -102 -13 -114 -13 -114 c 1
 -13 -114 -17 -111 -17 -105 c 0
 -17 -90 -2 -79 3 -74 c 1
 26 -66 59 -57 99 -57 c 0
 105 -57 108 -49 108 -49 c 1
 251 687 l 1
 251 687 252 695 246 695 c 0
 196 695 154 706 154 706 c 1
 152 708 142 713 142 728 c 0
 142 737 145 749 150 749 c 0
EndSplineSet
Validated: 1
Substitution2: "Ordinals-1" bracketright.ordn
Substitution2: "'smcp' Lowercase to Small Capitals in Latin lookup 3-1" bracketright.sc
EndChar

StartChar: asciicircum
Encoding: 94 94 61
Width: 303
VWidth: 0
Flags: W
HStem: 475 215
VStem: 13 283
LayerCount: 2
Fore
SplineSet
13 499 m 1
 22 514 104 565 174 677 c 0
 180 687 179 690 186 690 c 0
 208 690 196 670 237 588 c 0
 252 558 295 505 296 500 c 1
 294 492 286 475 279 475 c 0
 259 475 190 564 172 597 c 1
 123 540 32 475 21 475 c 0
 13 475 13 491 13 499 c 1
EndSplineSet
Validated: 1
Substitution2: "'smcp' Lowercase to Small Capitals in Latin lookup 3-1" asciicircum.sc
EndChar

StartChar: underscore
Encoding: 95 95 62
Width: 485
VWidth: 0
Flags: W
HStem: -43 56<18.4716 442.031>
LayerCount: 2
Fore
SplineSet
9 -37 m 0
 9 -32 25 13 33 13 c 0
 171 13 309 13 447 13 c 0
 450 13 453 12 453 9 c 0
 453 5 445 -15 435 -37 c 0
 432 -43 429 -43 429 -43 c 1
 14 -43 l 1
 14 -43 9 -43 9 -37 c 0
EndSplineSet
Validated: 1
EndChar

StartChar: grave
Encoding: 96 96 63
Width: 162
VWidth: 0
Flags: W
HStem: 527 160
VStem: 20 72<636.657 684.221>
LayerCount: 2
Fore
SplineSet
20 659 m 0
 20 665 26 687 62 687 c 0
 76 687 89 683 92 678 c 0
 118 636 152 542 152 542 c 1
 152 535 145 527 138 527 c 0
 129 527 20 618 20 659 c 0
EndSplineSet
Validated: 1
EndChar

StartChar: a
Encoding: 97 97 64
Width: 440
VWidth: 0
Flags: W
HStem: -6 62<154.223 212.837 332.004 377.078> 389 46<262.034 369.5>
VStem: 66 74<65.092 232.038> 290 71<21.3029 164.713>
LayerCount: 2
Fore
SplineSet
352 435 m 0
 387 435 406 429 425 422 c 9
 364 106 l 2
 363 102 361 86 361 81 c 0
 361 72 361 56 371 56 c 4
 392 56 434 108 437 111 c 5
 440 111 450 94 450 88 c 5
 439 69 371 -6 324 -6 c 4
 303 -6 290 16 290 46 c 0
 290 54 293 78 297 99 c 0
 301 118 301 118 302 125 c 1
 281 89 219 -5 161 -5 c 3
 99 -5 66 60 66 130 c 3
 66 276 215 435 352 435 c 0
310 389 m 3
 233 389 140 266 140 151 c 0
 140 89 156 53 191 53 c 3
 241 53 312 178 331 274 c 2
 351 376 l 17
 342 386 323 389 310 389 c 3
EndSplineSet
Validated: 1
Substitution2: "Ordinals-1" a.ordn
Substitution2: "'smcp' Lowercase to Small Capitals in Latin lookup 3-1" a.sc
EndChar

StartChar: b
Encoding: 98 98 65
Width: 394
VWidth: 0
Flags: W
HStem: -6 41<161.008 252.402> 380 55<273.147 332.372> 631 26<108.953 169.739> 665 20G<231 244.5>
VStem: 172 76<545.906 668.198> 344 74<185.979 371.179>
LayerCount: 2
Fore
SplineSet
329 435 m 0
 392 435 418 367 418 304 c 0
 418 124 283 -6 176 -6 c 0
 132 -6 77 28 77 104 c 3
 77 114 78 125 80 137 c 2
 163 559 l 2
 167 577 172 601 172 612 c 0
 172 631 127 631 111 631 c 0
 109 631 108 635 108 637 c 0
 108 645 112 653 116 657 c 1
 171 662 220 677 242 685 c 1
 247 682 248 672 248 666 c 0
 248 658 240 616 235 591 c 10
 176 303 l 17
 246 420 312 435 329 435 c 0
300 380 m 3
 256 380 167 244 150 156 c 0
 136 84 154 35 202 35 c 3
 281 35 344 171 344 280 c 3
 344 317 343 380 300 380 c 3
EndSplineSet
Validated: 33
Substitution2: "Ordinals-1" b.ordn
Substitution2: "'smcp' Lowercase to Small Capitals in Latin lookup 3-1" b.sc
EndChar

StartChar: c
Encoding: 99 99 66
Width: 326
VWidth: 0
Flags: W
HStem: -6 62<162.042 239.164> 394 41<231.829 306.931>
VStem: 68 74<75.6543 247.111>
LayerCount: 2
Fore
SplineSet
290 435 m 7
 322 435 352 422 377 401 c 5
 378 396 380 387 380 381 c 7
 380 357 368 338 345 338 c 7
 331 338 323 348 316 360 c 4
 306 376 297 394 278 394 c 4
 227 394 142 296 142 162 c 7
 142 127 145 56 208 56 c 7
 255 56 298 108 301 111 c 5
 304 111 314 94 314 88 c 5
 303 69 238 -6 175 -6 c 4
 104 -6 68 53 68 146 c 4
 68 273 187 435 290 435 c 7
EndSplineSet
Validated: 1
Substitution2: "Ordinals-1" c.ordn
Substitution2: "'smcp' Lowercase to Small Capitals in Latin lookup 3-1" c.sc
EndChar

StartChar: d
Encoding: 100 100 67
Width: 463
VWidth: 0
Flags: W
HStem: -6 62<160.207 220.029 339.004 384.078> 389 46<269.249 348.777> 631 26<337.953 397.218> 665 20G<463 476.5>
VStem: 73 74<65.1849 228.054> 297 71<21.3029 165.096> 401 79<553.422 668.03>
LayerCount: 2
Fore
SplineSet
357 435 m 0
 382 435 364 435 370 435 c 9
 398 584 l 2
 400 593 401 610 401 612 c 0
 401 631 356 631 340 631 c 0
 338 631 337 635 337 637 c 0
 337 645 341 653 345 657 c 1
 400 662 452 677 474 685 c 1
 479 682 480 672 480 666 c 0
 480 658 470 616 465 591 c 2
 371 106 l 2
 370 102 368 86 368 81 c 0
 368 72 368 56 378 56 c 0
 399 56 441 108 444 111 c 1
 447 111 457 94 457 88 c 1
 446 69 378 -6 331 -6 c 0
 310 -6 297 16 297 46 c 0
 297 54 300 78 304 99 c 0
 308 118 309 119 310 126 c 1
 294 98 229 -5 169 -5 c 3
 105 -5 73 60 73 130 c 3
 73 275 224 435 357 435 c 0
350 341 m 2
 354 364 346 389 319 389 c 0
 238 389 147 265 147 150 c 3
 147 95 161 53 198 53 c 3
 249 53 319 179 338 276 c 2
 350 341 l 2
EndSplineSet
Validated: 37
Substitution2: "Ordinals-1" d.ordn
Substitution2: "'smcp' Lowercase to Small Capitals in Latin lookup 3-1" d.sc
EndChar

StartChar: e
Encoding: 101 101 68
Width: 359
VWidth: 0
Flags: W
HStem: -6 62<164.027 241.164> 183 35<152.001 202.036> 394 41<236.616 304.974>
VStem: 70 75<74.9364 246.657> 307 72<303.752 393.851>
LayerCount: 2
Fore
SplineSet
292 435 m 4
 360 435 379 390 379 360 c 7
 379 264 211 183 149 183 c 4
 145 183 145 153 145 148 c 4
 145 87 171 56 210 56 c 4
 257 56 300 108 303 111 c 5
 306 111 316 94 316 88 c 5
 305 69 240 -6 177 -6 c 4
 106 -6 70 53 70 146 c 4
 70 273 189 435 292 435 c 4
282 394 m 7
 212 394 152 259 152 222 c 7
 152 220 153 218 156 218 c 4
 195 218 307 290 307 364 c 7
 307 376 301 394 282 394 c 7
EndSplineSet
Validated: 1
Substitution2: "Ordinals-1" e.ordn
Substitution2: "'smcp' Lowercase to Small Capitals in Latin lookup 3-1" e.sc
EndChar

StartChar: f
Encoding: 102 102 69
Width: 304
VWidth: 0
Flags: W
HStem: -231 39<-64.876 27.8503> 361 46<103.321 160.125 245.709 364.597> 661 38<333.24 430>
LayerCount: 2
Fore
SplineSet
403 699 m 4
 457 699 477 680 485 665 c 5
 485 636 478 600 449 600 c 4
 416 600 404 661 367 661 c 4
 328 661 271 579 243 413 c 4
 243 412 243 411 243 411 c 0
 243 409 244 407 246 407 c 2
 361 407 l 2
 365 407 366 400 366 395 c 27
 366 381 360 369 355 361 c 1
 238 361 l 2
 235 361 233 361 232 353 c 6
 177 54 l 6
 143 -142 48 -231 -39 -231 c 4
 -90 -231 -114 -207 -120 -190 c 5
 -121 -160 -103 -131 -79 -131 c 4
 -52 -131 -47 -192 -5 -192 c 4
 50 -192 92 -42 102 15 c 6
 162 354 l 5
 162 356 l 2
 162 359 161 361 159 361 c 2
 94 361 l 2
 93 361 92 362 92 364 c 0
 92 374 117 407 140 407 c 2
 169 407 l 2
 172 407 174 412 175 416 c 4
 202 582 303 699 403 699 c 4
EndSplineSet
Validated: 33
Substitution2: "Ordinals-1" f.ordn
Substitution2: "'smcp' Lowercase to Small Capitals in Latin lookup 3-1" f.sc
Substitution2: "Short f-1" f.short
EndChar

StartChar: g
Encoding: 103 103 70
Width: 438
VWidth: 0
Flags: W
HStem: -233 43<120.26 300.145> 122 34<202.957 217> 370 39<406.422 476.05> 398 38<232.045 311.597>
VStem: 16 74<-161.9 -77.0648> 104 75<173.34 321.553> 117 98<45 83.3011> 342 64<-150.528 -67.7758 220.299 368.028>
LayerCount: 2
Fore
SplineSet
342 -118 m 0xc9
 342 -55 260 -26 202 -8 c 1
 162 -25 90 -54 90 -110 c 0
 90 -170 143 -190 221 -190 c 0
 284 -190 342 -160 342 -118 c 0xc9
277 398 m 0xdd
 216 398 179 316 179 247 c 0
 179 198 198 156 240 156 c 0
 298 156 337 232 337 294 c 0
 337 343 316 398 277 398 c 0xdd
293 436 m 0
 354 436 362 409 429 409 c 2
 472 409 l 2
 478 409 478 406 478 401 c 0
 478 393 473 376 467 370 c 1
 411 370 l 2
 407 370 405 367 405 364 c 0
 406 358 411 339 411 312 c 0
 411 206 340 157 320 145 c 0
 285 124 215 100 215 77 c 0
 215 44 406 39 406 -78 c 0
 406 -173 315 -233 172 -233 c 0
 82 -233 16 -197 16 -135 c 0
 16 -66 101 -21 160 6 c 1
 142 18 l 2
 130 26 117 36 117 54 c 0xeb
 117 79 184 114 217 122 c 1
 185 122 104 153 104 231 c 0
 104 347 200 436 293 436 c 0
EndSplineSet
Validated: 1
Substitution2: "Ordinals-1" g.ordn
Substitution2: "'smcp' Lowercase to Small Capitals in Latin lookup 3-1" g.sc
EndChar

StartChar: h
Encoding: 104 104 71
Width: 461
VWidth: 0
Flags: W
HStem: -6 62<333.5 397.078> 361 74<330.497 400.5> 631 26<119.953 180.739> 665 20G<242 255.5>
VStem: 183 76<548.203 668.198> 310 71<21.3029 171.078> 359 72<222.125 388>
LayerCount: 2
Fore
SplineSet
381 435 m 0xfc
 420 435 431 407 431 369 c 0xfa
 431 332 426 301 417 260 c 2
 384 106 l 2
 383 102 381 86 381 81 c 0
 381 72 381 56 391 56 c 0
 412 56 454 108 457 111 c 1
 460 111 470 94 470 88 c 1
 459 69 391 -6 344 -6 c 0
 323 -6 310 16 310 46 c 0xfc
 310 54 313 78 317 99 c 2
 352 264 l 2
 354 273 359 307 359 318 c 0xfa
 359 341 357 361 340 361 c 0
 304 361 177 228 148 78 c 9
 131 0 l 17
 121 -3 110 -4 100 -4 c 0
 90 -4 78 -3 66 0 c 1
 174 559 l 2
 178 577 183 601 183 612 c 0
 183 631 138 631 122 631 c 0
 120 631 119 635 119 637 c 0
 119 645 123 653 127 657 c 1
 182 662 231 677 253 685 c 1
 258 682 259 672 259 666 c 0
 259 658 251 616 246 591 c 10
 246 591 199 350 195 330 c 10
 177 238 l 17
 190 263 315 435 381 435 c 0xfc
EndSplineSet
Validated: 1
Substitution2: "Ordinals-1" h.ordn
Substitution2: "'smcp' Lowercase to Small Capitals in Latin lookup 3-1" h.sc
EndChar

StartChar: i
Encoding: 105 105 72
Width: 274
VWidth: 0
Flags: W
HStem: -6 62<141.5 205.078> 373 62<159.389 218.5> 546 100<196.035 260.228>
VStem: 118 71<21.3029 176.688> 171 71<245.977 407.697> 185 88<557.783 635.875>
LayerCount: 2
Fore
SplineSet
208 435 m 0xe8
 229 435 242 413 242 383 c 0xe8
 242 375 240 351 236 330 c 6
 192 106 l 6
 191 102 189 86 189 81 c 4
 189 72 189 56 199 56 c 4
 220 56 262 108 265 111 c 5
 268 111 278 94 278 88 c 5
 267 69 199 -6 152 -6 c 4
 131 -6 118 16 118 46 c 4xf0
 118 54 121 78 125 99 c 6
 166 308 l 6
 167 315 171 343 171 348 c 0
 171 357 171 373 161 373 c 0
 145 373 109 329 106 326 c 1
 103 326 93 343 93 349 c 1
 104 368 169 435 208 435 c 0xe8
237 646 m 27
 258 646 273 627 273 606 c 27
 273 575 250 546 219 546 c 27
 197 546 185 567 185 589 c 27xe4
 185 619 207 646 237 646 c 27
EndSplineSet
Validated: 1
Substitution2: "Ordinals-1" i.ordn
Substitution2: "'smcp' Lowercase to Small Capitals in Latin lookup 3-1" i.sc
EndChar

StartChar: j
Encoding: 106 106 73
Width: 290
VWidth: 0
Flags: W
HStem: -235 21G<-5 14.5> 373 62<180.389 239.5> 546 100<217.035 281.228>
VStem: 192 71<245.414 407.697> 206 88<557.783 635.875>
LayerCount: 2
Fore
SplineSet
229 435 m 0xf0
 250 435 263 413 263 383 c 0
 263 375 261 351 257 330 c 2
 202 45 l 2
 195 9 178 -67 136 -124 c 24
 95 -180 32 -221 -3 -235 c 1
 -7 -232 -12 -222 -12 -215 c 1
 55 -177 108 -89 130 22 c 2
 187 308 l 2
 188 315 192 343 192 348 c 0
 192 357 192 373 182 373 c 0
 166 373 130 329 127 326 c 1
 124 326 114 343 114 349 c 1
 125 368 190 435 229 435 c 0xf0
258 646 m 27
 279 646 294 627 294 606 c 27
 294 575 271 546 240 546 c 27
 218 546 206 567 206 589 c 27xe8
 206 619 228 646 258 646 c 27
EndSplineSet
Validated: 1
Substitution2: "Ordinals-1" j.ordn
Substitution2: "'smcp' Lowercase to Small Capitals in Latin lookup 3-1" j.sc
EndChar

StartChar: k
Encoding: 107 107 74
Width: 485
VWidth: 0
Flags: W
HStem: -4 59<354.17 425.05> 388 47<314.646 404.032> 631 26<140.953 201.739> 665 20G<263 276.5>
VStem: 204 76<547.516 668.198> 388 71<298.475 384.918>
LayerCount: 2
Fore
SplineSet
384 435 m 3
 423 435 459 406 459 367 c 3
 459 276 365 222 254 203 c 1
 342 71 374 55 399 55 c 0
 427 55 451 86 458 99 c 1
 462 99 474 84 474 79 c 1
 470 64 420 -4 376 -4 c 0
 297 -4 232 119 189 191 c 9
 152 0 l 17
 141 -3 130 -5 119 -5 c 0
 108 -5 98 -3 86 0 c 1
 195 559 l 18
 199 577 204 601 204 612 c 0
 204 631 159 631 143 631 c 0
 141 631 140 635 140 637 c 0
 140 645 144 653 148 657 c 1
 203 662 252 677 274 685 c 1
 279 682 280 672 280 666 c 0
 280 658 272 616 267 591 c 2
 215 322 l 1
 220 326 298 435 384 435 c 3
348 388 m 3
 301 388 205 256 205 232 c 3
 205 231 205 230 207 230 c 0
 207 230 388 247 388 345 c 3
 388 374 376 388 348 388 c 3
EndSplineSet
Validated: 1
Substitution2: "Ordinals-1" k.ordn
Substitution2: "'smcp' Lowercase to Small Capitals in Latin lookup 3-1" k.sc
EndChar

StartChar: l
Encoding: 108 108 75
Width: 248
VWidth: 0
Flags: W
HStem: -6 62<109.5 173.078> 631 26<126.953 185.965> 665 20G<251 264.5>
VStem: 86 71<21.3029 174.492> 190 78<545.82 668.03>
LayerCount: 2
Fore
SplineSet
93 99 m 6
 187 584 l 2
 189 593 190 610 190 612 c 0
 190 631 145 631 129 631 c 0
 127 631 126 635 126 637 c 0
 126 645 130 653 134 657 c 1
 189 662 240 677 262 685 c 1
 267 682 268 672 268 666 c 0
 268 658 260 616 255 591 c 10
 160 106 l 6
 159 102 157 86 157 81 c 4
 157 72 157 56 167 56 c 4
 188 56 230 108 233 111 c 5
 236 111 246 94 246 88 c 5
 235 69 167 -6 120 -6 c 4
 99 -6 86 16 86 46 c 4
 86 54 89 78 93 99 c 6
EndSplineSet
Validated: 1
Substitution2: "Ordinals-1" l.ordn
Substitution2: "'smcp' Lowercase to Small Capitals in Latin lookup 3-1" l.sc
EndChar

StartChar: m
Encoding: 109 109 76
Width: 716
VWidth: 0
Flags: W
HStem: -6 62<608.004 653.078> 361 74<349.749 419.352 581.743 645.158> 373 62<157.389 193.996>
VStem: 165 71<233.547 407.697> 387 70<221.291 360.953> 566 71<21.3029 171.078> 615 72<222.125 389.5>
LayerCount: 2
Back
SplineSet
596 361 m 4
 613 361 615 341 615 318 c 4
 615 307 609.87 272.815 608 264 c 6
 573 99 l 6
 569 78 566 54 566 46 c 4
 566 16 579 -6 600 -6 c 4
 646.676 -5.96094 714.665 68.5273 726 88 c 5
 726 94 716 111 713 111 c 5
 710 108 668 56 647 56 c 4
 637 56 637 72 637 81 c 4
 637 86 639 102 640 106 c 6
 673 260 l 6
 682 301 687 332 687 369 c 4
 687 407 676 435 637 435 c 4
EndSplineSet
Fore
SplineSet
395 435 m 4xda
 453 435 457 384 457 340 c 7
 457 309 446 267 443 251 c 5
 479 314 578 435 630 435 c 7
 676 435 687 410 687 369 c 7xda
 687 332 682 301 673 260 c 6
 640 106 l 6
 639 102 637 86 637 81 c 4
 637 72 637 56 647 56 c 4
 668 56 710 108 713 111 c 5
 716 111 726 94 726 88 c 5
 715 69 647 -6 600 -6 c 4
 579 -6 566 16 566 46 c 4xdc
 566 54 569 78 573 99 c 6
 608 264 l 6
 610 273 615 307 615 318 c 7
 615 344 614 361 596 361 c 4
 556 361 437 228 412 95 c 14
 394 0 l 29
 380 -1 373 -3 359 -3 c 31
 346 -3 339 -1 327 0 c 21
 383 284 l 6
 386 300 387 313 387 322 c 7
 387 348 380 361 367 361 c 7xda
 322 361 208 202 185 88 c 6
 167 0 l 29
 154 -2 146 -4 133 -4 c 31
 120 -4 113 -2 100 0 c 29
 160 308 l 22
 161 315 165 343 165 348 c 4
 165 357 165 373 155 373 c 4
 139 373 103 329 100 326 c 5
 97 326 87 343 87 349 c 5
 98 368 163 435 202 435 c 4xba
 223 435 236 413 236 383 c 4
 236 375 234 350 230 330 c 14
 212 237 l 21
 248 300 343 435 395 435 c 4xda
EndSplineSet
Validated: 1
Substitution2: "Ordinals-1" m.ordn
Substitution2: "'smcp' Lowercase to Small Capitals in Latin lookup 3-1" m.sc
EndChar

StartChar: n
Encoding: 110 110 77
Width: 492
VWidth: 0
Flags: W
HStem: -6 62<366.5 430.078> 361 74<363.497 421.947> 373 62<151.389 210.5>
VStem: 163 71<231.594 407.697> 343 71<21.3029 171.078> 392 72<222.125 388>
LayerCount: 2
Fore
SplineSet
200 435 m 4xb4
 221 435 234 413 234 383 c 4
 234 375 232 350 228 330 c 14
 210 238 l 21
 223 263 348 435 414 435 c 4xd8
 453 435 464 407 464 369 c 4xd4
 464 332 459 301 450 260 c 6
 417 106 l 6
 416 102 414 86 414 81 c 4
 414 72 414 56 424 56 c 4
 445 56 487 108 490 111 c 5
 493 111 503 94 503 88 c 5
 492 69 424 -6 377 -6 c 4
 356 -6 343 16 343 46 c 4xd8
 343 54 346 78 350 99 c 6
 385 264 l 6
 387 273 392 307 392 318 c 4
 392 341 390 361 373 361 c 4xd4
 337 361 210 228 181 78 c 13
 164 0 l 21
 154 -3 143 -4 133 -4 c 4
 123 -4 111 -3 99 0 c 5
 158 308 l 6
 159 315 163 343 163 348 c 4
 163 357 163 373 153 373 c 4
 137 373 101 329 98 326 c 5
 95 326 85 343 85 349 c 5
 96 368 161 435 200 435 c 4xb4
EndSplineSet
Validated: 1
Substitution2: "Ordinals-1" n.ordn
Substitution2: "'smcp' Lowercase to Small Capitals in Latin lookup 3-1" n.sc
EndChar

StartChar: o
Encoding: 111 111 78
Width: 412
VWidth: 0
Flags: W
HStem: -5 41<172.129 254.428> 394 41<229.679 313.038>
VStem: 68 76<61.6593 250.728> 336 76<175.485 371.867>
LayerCount: 2
Fore
SplineSet
276 394 m 4
 206 394 144 258 144 158 c 4
 144 78 173 36 209 36 c 4
 279 36 336 173 336 273 c 4
 336 353 312 394 276 394 c 4
288 435 m 4
 368 435 412 376 412 281 c 4
 412 141 291 -5 191 -5 c 4
 111 -5 68 50 68 145 c 4
 68 285 188 435 288 435 c 4
EndSplineSet
Validated: 1
Substitution2: "Ordinals-1" o.ordn
Substitution2: "'smcp' Lowercase to Small Capitals in Latin lookup 3-1" o.sc
EndChar

StartChar: p
Encoding: 112 112 79
Width: 440
VWidth: 0
Flags: W
HStem: -235 29<0.430115 42.6406> -226 27<137.804 185.229> -4 46<176.189 263.313> 377 58<276.26 358.944>
VStem: 375 74<204.699 362.201>
LayerCount: 2
Fore
SplineSet
313 377 m 3x38
 280 377 244 362 217 324 c 9
 174 103 l 2
 169 80 172 42 213 42 c 0
 290 42 375 165 375 280 c 3
 375 335 363 377 313 377 c 3x38
353 435 m 3
 417 435 449 370 449 300 c 3
 449 155 288 -4 194 -4 c 0
 177 -4 165 -2 154 4 c 9
 126 -145 l 2
 124 -154 123 -163 123 -173 c 0
 123 -178 127 -193 137 -196 c 0
 154 -200 181 -199 184 -199 c 0
 185 -199 186 -202 186 -205 c 3
 186 -212 183 -224 181 -227 c 1
 168 -227 157 -226 146 -226 c 0x78
 95 -226 61 -228 3 -235 c 1
 1 -234 0 -229 0 -227 c 0
 0 -220 2 -209 4 -206 c 1xb8
 22 -206 35 -201 44 -190 c 0
 51 -181 56 -170 60 -147 c 2
 139 261 l 1
 91 213 l 1
 87 218 85 228 85 233 c 3
 85 237 87 239 88 240 c 2
 147 303 l 1
 173 433 l 1
 184 436 195 437 206 437 c 0
 217 437 228 435 238 430 c 1
 234 411 228 381 227 374 c 1
 254 399 293 435 353 435 c 3
EndSplineSet
Validated: 33
Substitution2: "Ordinals-1" p.ordn
Substitution2: "'smcp' Lowercase to Small Capitals in Latin lookup 3-1" p.sc
EndChar

StartChar: q
Encoding: 113 113 80
Width: 415
VWidth: 0
Flags: W
HStem: -235 21G<196 214.5> -227 22<354.871 384.601> -5 58<168.877 229.089> 389 46<275.098 371.214>
VStem: 79 74<66.5481 227.369>
LayerCount: 2
Fore
SplineSet
323 389 m 3x38
 234 389 153 263 153 159 c 0
 153 93 168 53 205 53 c 3
 255 53 333 178 352 274 c 2
 372 376 l 17
 363 386 336 389 323 389 c 3x38
366 435 m 0
 401 435 427 429 446 422 c 9
 385 106 l 2
 384 102 340 -147 340 -147 c 2
 339 -155 338 -162 338 -168 c 0
 338 -182 340 -198 384 -198 c 0
 385 -198 386 -200 386 -204 c 3
 386 -212 383 -225 381 -228 c 1
 367 -228 354 -227 341 -227 c 0x78
 283 -227 233 -231 196 -235 c 1xb8
 196 -233 195 -226 195 -223 c 3
 195 -216 196 -205 200 -205 c 0x78
 204 -205 261 -205 272 -147 c 2
 323 125 l 17
 302 89 233 -5 175 -5 c 3
 113 -5 79 60 79 130 c 3
 79 276 229 435 366 435 c 0
EndSplineSet
Validated: 1
Substitution2: "Ordinals-1" q.ordn
Substitution2: "'smcp' Lowercase to Small Capitals in Latin lookup 3-1" q.sc
EndChar

StartChar: r
Encoding: 114 114 81
Width: 372
VWidth: 0
Flags: W
HStem: -3 21G<135.5 147.5> 361 74<333.539 405.401> 373 62<158.389 217.5>
VStem: 170 71<234.344 407.697>
LayerCount: 2
Fore
SplineSet
207 435 m 0xb0
 228 435 241 413 241 383 c 0
 241 375 239 350 235 330 c 10
 219 246 l 17
 247 313 328 435 377 435 c 4
 403 435 417 426 432 403 c 5
 432 373 429 336 395 336 c 4
 377 336 376 361 353 361 c 4xd0
 317 361 215 221 194 105 c 26
 175 0 l 1
 164 -2 153 -3 142 -3 c 0
 129 -3 117 -2 105 0 c 1
 165 308 l 2
 166 315 170 343 170 348 c 0
 170 357 170 373 160 373 c 0
 144 373 108 329 105 326 c 1
 102 326 92 343 92 349 c 1
 103 368 168 435 207 435 c 0xb0
EndSplineSet
Validated: 1
Substitution2: "Ordinals-1" r.ordn
Substitution2: "'smcp' Lowercase to Small Capitals in Latin lookup 3-1" r.sc
EndChar

StartChar: s
Encoding: 115 115 82
Width: 305
VWidth: 0
Flags: W
HStem: -6 44<128.666 221.22> 394 44<171.232 260.334>
VStem: 105 59<288.515 376.756> 229 59<47.1796 143.485>
LayerCount: 2
Fore
SplineSet
244 438 m 0
 284 438 313 424 334 400 c 1
 337 393 339 386 339 379 c 3
 339 356 325 335 305 335 c 0
 270 335 272 394 209 394 c 0
 179 394 164 369 164 348 c 0
 164 268 288 217 288 117 c 0
 288 43 229 -6 145 -6 c 0
 105 -6 76 8 55 32 c 1
 52 37 50 45 50 51 c 3
 50 74 64 97 84 97 c 0
 119 97 117 38 180 38 c 0
 211 38 229 63 229 84 c 0
 229 164 105 215 105 315 c 0
 105 366 160 438 244 438 c 0
EndSplineSet
Validated: 1
Substitution2: "Ordinals-1" s.ordn
Substitution2: "'smcp' Lowercase to Small Capitals in Latin lookup 3-1" s.sc
EndChar

StartChar: t
Encoding: 116 116 83
Width: 262
VWidth: 0
Flags: W
HStem: -6 62<127.5 191.078> 378 42<92.4162 165 239 334.21>
VStem: 104 71<21.3029 177.859>
LayerCount: 2
Fore
SplineSet
197 542 m 18
 199 550 228 552 246 552 c 0
 252 552 258 552 264 551 c 1
 239 420 l 1
 330 420 l 2
 333 420 335 411 335 407 c 0
 335 396 331 387 326 378 c 1
 231 378 l 1
 178 106 l 2
 177 102 175 86 175 81 c 0
 175 72 175 56 185 56 c 0
 206 56 248 108 251 111 c 1
 254 111 264 94 264 88 c 1
 253 69 185 -6 138 -6 c 0
 117 -6 104 16 104 46 c 0
 104 54 107 78 111 99 c 10
 165 378 l 1
 94 378 l 2
 91 378 91 387 91 389 c 0
 91 405 101 417 103 420 c 1
 173 420 l 9
 197 542 l 18
EndSplineSet
Validated: 1
Substitution2: "Ordinals-1" t.ordn
Substitution2: "'smcp' Lowercase to Small Capitals in Latin lookup 3-1" t.sc
EndChar

StartChar: u
Encoding: 117 117 84
Width: 472
VWidth: 0
Flags: W
HStem: -6 74<146.053 202.846> -6 62<348.5 412.078> 373 62<141.389 200.5>
VStem: 104 72<41 207.172> 153 71<253.18 407.697> 325 71<21.3029 177.359>
LayerCount: 2
Fore
SplineSet
190 435 m 0xac
 211 435 224 413 224 383 c 0xac
 224 375 223 351 218 330 c 2
 183 165 l 2
 181 156 176 122 176 111 c 0
 176 88 178 68 195 68 c 0xb4
 231 68 350 201 379 351 c 13
 396 429 l 21
 406 432 417 433 427 433 c 4
 437 433 449 432 461 429 c 5
 399 106 l 6
 398 102 396 86 396 81 c 4
 396 72 396 56 406 56 c 4
 427 56 469 108 472 111 c 5
 475 111 485 94 485 88 c 5
 474 69 406 -6 359 -6 c 4x74
 338 -6 325 16 325 46 c 4
 325 54 328 78 332 99 c 14
 350 191 l 17
 337 166 220 -6 154 -6 c 0
 115 -6 104 22 104 60 c 0xb4
 104 97 109 128 118 169 c 2
 148 308 l 2
 149 315 153 343 153 348 c 0
 153 357 153 373 143 373 c 0
 127 373 91 329 88 326 c 1
 85 326 75 343 75 349 c 1
 86 368 151 435 190 435 c 0xac
EndSplineSet
Validated: 1
Substitution2: "Ordinals-1" u.ordn
Substitution2: "'smcp' Lowercase to Small Capitals in Latin lookup 3-1" u.sc
EndChar

StartChar: v
Encoding: 118 118 85
Width: 483
VWidth: 0
Flags: W
HStem: 0 62<163.5 246.398> 373 62<145.389 204.5>
VStem: 113 71<65.0513 226.352> 157 71<299.536 383>
LayerCount: 2
Fore
SplineSet
531 381 m 0xe0
 531 354 510 343 487 335 c 0
 471 330 446 312 435 288 c 0
 380 170 274 0 187 0 c 3
 140 0 113 38 113 88 c 3xe0
 113 100 115 124 117 132 c 2
 151 308 l 2
 153 315 157 343 157 348 c 0
 157 357 157 373 147 373 c 0
 131 373 95 329 92 326 c 1
 89 326 79 343 79 349 c 1
 90 368 155 435 194 435 c 0
 215 435 228 413 228 383 c 0xd0
 228 375 226 351 222 330 c 2
 192 177 l 2
 191 171 184 126 184 114 c 3
 184 77 193 62 225 62 c 3
 273 62 348 181 398 296 c 0
 414 334 427 372 449 402 c 0
 461 418 476 425 487 428 c 1
 496 426 531 412 531 381 c 0xe0
EndSplineSet
Validated: 1
Substitution2: "Ordinals-1" v.ordn
Substitution2: "'smcp' Lowercase to Small Capitals in Latin lookup 3-1" v.sc
EndChar

StartChar: w
Encoding: 119 119 86
Width: 632
VWidth: 0
Flags: W
HStem: 0 62<163.5 248.158 375.5 459.111> 373 62<149.389 185.996>
VStem: 113 71<65.0513 226.352> 157 71<246.914 407.697> 325 71<66.3415 91> 593 58<251.653 380.5>
LayerCount: 2
Fore
SplineSet
194 435 m 0xdc
 215 435 228 413 228 383 c 0xdc
 228 375 226 351 222 330 c 2
 192 177 l 2
 191 171 184 126 184 114 c 0
 184 77 193 62 225 62 c 0
 256 62 299 103 333 154 c 1
 357 352 362 435 406 435 c 0
 424 435 444 428 444 388 c 0
 444 336 425 271 403 211 c 1
 398 175 396 152 396 147 c 0
 396 83 405 62 437 62 c 0
 500 62 593 226 593 309 c 0
 593 348 564 363 564 390 c 0
 564 414 582 435 605 435 c 0
 623 435 629 432 637 427 c 1
 643 416 651 392 651 369 c 0
 651 192 486 0 399 0 c 0
 352 0 325 35 325 91 c 1
 277 36 225 0 187 0 c 0
 140 0 113 38 113 88 c 0xec
 113 100 115 124 117 132 c 2
 151 308 l 2
 153 315 157 343 157 348 c 0
 157 357 157 373 147 373 c 0
 131 373 95 329 92 326 c 1
 89 326 79 343 79 349 c 1
 90 368 155 435 194 435 c 0xdc
EndSplineSet
Validated: 1
Substitution2: "Ordinals-1" w.ordn
Substitution2: "'smcp' Lowercase to Small Capitals in Latin lookup 3-1" w.sc
EndChar

StartChar: x
Encoding: 120 120 87
Width: 476
VWidth: 0
Flags: W
HStem: -6 51<102.469 164.153> -5 60<336.5 402.936> 375 60<157.064 223.5> 384 51<389.847 451.531>
VStem: 106 16<337.914 342.888> 438 16<87.1118 92.0864>
LayerCount: 2
Fore
SplineSet
208 435 m 0xac
 239 435 262 394 276 348 c 2
 297 277 l 1
 356 378 l 2
 379 418 407 435 440 435 c 0
 469 435 486 425 498 415 c 1
 502 407 506 397 506 389 c 0
 506 368 487 353 474 353 c 0
 448 353 441 384 414 384 c 0
 407 384 395 372 387 358 c 2
 312 230 l 1
 355 89 l 2
 361 68 372 55 382 55 c 0
 405 55 431 85 438 99 c 1
 443 99 454 84 454 79 c 0
 451 64 399 -5 352 -5 c 0x5c
 321 -5 297 38 284 82 c 2
 261 160 l 1
 198 51 l 2
 175 11 147 -6 114 -6 c 0
 85 -6 68 4 56 14 c 1
 51 23 48 32 48 40 c 0
 48 61 67 76 80 76 c 0
 106 76 113 45 140 45 c 0
 147 45 159 57 167 71 c 2
 246 207 l 1
 205 341 l 2
 198 364 188 375 178 375 c 0
 155 375 129 345 122 331 c 1
 117 331 106 346 106 351 c 0
 109 366 161 435 208 435 c 0xac
EndSplineSet
Validated: 1
Substitution2: "Ordinals-1" x.ordn
Substitution2: "'smcp' Lowercase to Small Capitals in Latin lookup 3-1" x.sc
EndChar

StartChar: y
Encoding: 121 121 88
Width: 479
VWidth: 0
Flags: W
HStem: -233 72<-11.8105 101.995> 373 62<166.97 259>
VStem: 230 73<29.9349 263.174> 420 69<239.878 407.385>
LayerCount: 2
Fore
SplineSet
216 435 m 0
 302 435 303 89 303 28 c 1
 339 72 420 194 420 285 c 0
 420 346 406 371 395 392 c 1
 403 418 421 435 445 435 c 0
 487 435 489 378 489 356 c 0
 489 122 168 -233 33 -233 c 4
 -3 -233 -27 -214 -27 -192 c 4
 -27 -175 -19 -156 -4 -148 c 5
 11 -157 41 -161 63 -161 c 4
 125 -161 174 -120 207 -72 c 4
 230 -38 230 19 230 62 c 0
 230 176 219 373 170 373 c 0
 156 373 124 338 115 326 c 1
 112 326 102 343 102 349 c 1
 108 364 179 435 216 435 c 0
EndSplineSet
Validated: 1
Substitution2: "Ordinals-1" y.ordn
Substitution2: "'smcp' Lowercase to Small Capitals in Latin lookup 3-1" y.sc
EndChar

StartChar: z
Encoding: 122 122 89
Width: 404
VWidth: 0
Flags: W
HStem: 0 61<236.254 321.456> 26 71<108.281 253.714> 338 72<228.342 374.792> 374 61<162.73 247.746>
VStem: 106 14<306.119 317.943> 365 14<117.057 127.845>
LayerCount: 2
Fore
SplineSet
205 435 m 3x1c
 233 435 297 410 356 410 c 27x2c
 383 410 395 435 422 435 c 27x1c
 432 435 434 421 434 410 c 0
 434 396 135 81 135 79 c 0
 135 77 161 97 176 97 c 11x6c
 227 97 269 61 302 61 c 3
 330 61 359 120 365 129 c 1
 371 136 378 118 379 110 c 1
 373 90 325 0 279 0 c 3x8c
 251 0 187 26 128 26 c 27x4c
 101 26 89 0 62 0 c 27x8c
 52 0 50 15 50 26 c 0
 50 41 348 355 348 357 c 0
 348 358 323 338 308 338 c 11x6c
 257 338 215 374 182 374 c 3
 154 374 126 315 120 306 c 1
 113 298 107 317 106 326 c 1
 112 346 159 435 205 435 c 3x1c
EndSplineSet
Validated: 33
Substitution2: "Ordinals-1" z.ordn
Substitution2: "'smcp' Lowercase to Small Capitals in Latin lookup 3-1" z.sc
EndChar

StartChar: braceleft
Encoding: 123 123 90
Width: 275
VWidth: 0
Flags: W
HStem: -125 29<87.7623 123.946> 721 29<240.408 288.318>
VStem: 3 41<-59.0269 67.4799> 85 45<168.165 271.788> 104 55<446.419 636.192> 121 49<369.477 561.081>
LayerCount: 2
Fore
SplineSet
3 12 m 0xf0
 3 120 85 165 85 233 c 0xf0
 85 273 46 280 13 292 c 1
 13 294 13 296 13 298 c 0
 13 307 15 320 21 329 c 1
 73 343 121 358 121 425 c 0xe4
 121 464 104 506 104 549 c 0
 104 622 167 750 288 750 c 3
 290 750 291 749 291 746 c 0
 291 738 283 722 276 721 c 0
 262 720 159 690 159 577 c 0xe8
 159 538 170 507 170 464 c 0xe4
 170 362 108 309 71 308 c 1
 100 307 130 273 130 222 c 0
 130 125 44 82 44 0 c 0
 44 -55 91 -94 117 -96 c 0
 121 -97 124 -104 124 -112 c 0
 124 -119 122 -125 118 -125 c 3
 50 -125 3 -69 3 12 c 0xf0
EndSplineSet
Validated: 1
Substitution2: "Ordinals-1" braceleft.ordn
Substitution2: "'smcp' Lowercase to Small Capitals in Latin lookup 3-1" braceleft.sc
EndChar

StartChar: bar
Encoding: 124 124 91
Width: 203
VWidth: 0
Flags: W
VStem: -11 228
LayerCount: 2
Fore
SplineSet
158 757 m 5
 168 767 184 773 202 773 c 31
 209 773 218 770 217 766 c 6
 49 -106 l 5
 42 -114 22 -123 3 -123 c 31
 -3 -123 -12 -120 -11 -115 c 6
 158 757 l 5
EndSplineSet
Validated: 1
Substitution2: "Ordinals-1" bar.ordn
Substitution2: "'smcp' Lowercase to Small Capitals in Latin lookup 3-1" bar.sc
EndChar

StartChar: braceright
Encoding: 125 125 92
Width: 268
VWidth: 0
Flags: W
HStem: -125 29<-14.0235 32.713> 721 29<150.054 189.03>
VStem: 96 56<64.9619 244.295> 116 53<-4.7867 178.015> 146 42<350.11 451.072> 230 45<556.929 689.31>
LayerCount: 2
Fore
SplineSet
275 623 m 0xcc
 275 510 188 460 188 390 c 0xcc
 188 350 224 339 259 329 c 1
 260 327 260 324 260 321 c 0
 260 311 256 298 253 292 c 1
 214 280 152 272 152 199 c 0xe4
 152 161 169 121 169 79 c 0
 169 -4 90 -125 -14 -125 c 3
 -16 -125 -17 -123 -17 -121 c 0
 -17 -113 -8 -97 -1 -96 c 0
 23 -94 116 -47 116 47 c 0xd4
 116 89 96 114 96 161 c 0xe4
 96 251 161 307 200 308 c 1
 172 309 146 342 146 391 c 0
 146 486 230 554 230 631 c 0
 230 685 183 719 157 721 c 0
 153 722 150 729 150 737 c 0
 150 744 152 750 156 750 c 3
 223 750 275 706 275 623 c 0xcc
EndSplineSet
Validated: 1
Substitution2: "Ordinals-1" braceright.ordn
Substitution2: "'smcp' Lowercase to Small Capitals in Latin lookup 3-1" braceright.sc
EndChar

StartChar: asciitilde
Encoding: 126 126 93
Width: 473
VWidth: 0
Flags: W
HStem: 250 51<271.779 408.709> 303 51<78.05 211.516>
LayerCount: 2
Fore
SplineSet
157 354 m 31
 245 354 277 301 365 301 c 27
 401 301 427 322 458 345 c 1
 460 343 464 341 464 335 c 0
 464 305 400 250 329 250 c 27
 241 250 206 303 118 303 c 27
 82 303 56 282 25 259 c 1
 23 261 19 263 19 269 c 0
 19 308 102 354 157 354 c 31
EndSplineSet
Validated: 1
Substitution2: "Ordinals-1" asciitilde.ordn
Substitution2: "'smcp' Lowercase to Small Capitals in Latin lookup 3-1" asciitilde.sc
EndChar

StartChar: exclamdown
Encoding: 161 161 95
Width: 197
VWidth: 0
Flags: W
HStem: 324 116<112.125 181>
VStem: -16 91<-253.388 -124.039> 92 108<342.451 420.226>
LayerCount: 2
Fore
SplineSet
21 -269 m 19
 -4 -269 -16 -248 -16 -223 c 0
 -16 -198 -11 -193 103 256 c 0
 106 268 113 281 119 278 c 0
 132 271 136 267 136 257 c 1
 136 257 76 -199 75 -206 c 0
 69 -237 50 -269 21 -269 c 19
92 369 m 0
 92 406 124 440 157 440 c 0
 183 440 200 419 200 393 c 0
 200 355 168 324 135 324 c 0
 109 324 92 343 92 369 c 0
EndSplineSet
Validated: 1
Substitution2: "'smcp' Lowercase to Small Capitals in Latin lookup 3-1" exclamdown.sc
EndChar

StartChar: cent
Encoding: 162 162 96
Width: 319
Flags: W
HStem: -45 41<121.196 148> -4 61<128.659 236.211> 396 39<220.749 300>
VStem: 57 74<79.1483 255.609>
LayerCount: 2
Fore
SplineSet
285 435 m 3x70
 185 435 57 294 57 152 c 3
 57 91 81 -4 178 -4 c 3
 242 -4 306 84 306 105 c 1
 305 113 298 127 296 127 c 1
 292 121 250 57 202 57 c 3
 139 57 131 127 131 162 c 3
 131 296 212 396 260 396 c 0
 288 396 296 338 328 338 c 3
 351 338 368 355 368 379 c 3
 368 385 367 396 366 401 c 1
 350 420 315 435 285 435 c 3x70
293 474 m 17
 300 474 325 473 324 466 c 9
 148 -45 l 17xb0
 140 -45 116 -43 117 -36 c 9
 293 474 l 17
EndSplineSet
Validated: 37
Substitution2: "'smcp' Lowercase to Small Capitals in Latin lookup 3-1" cent.sc
EndChar

StartChar: sterling
Encoding: 163 163 97
Width: 438
Flags: W
HStem: -8 69<265.029 363.806> 29 64<114.498 226.345> 279 40<99.6395 356.396> 593 42<303.574 402.5>
LayerCount: 2
Fore
SplineSet
109 319 m 1x30
 136 319 344 319 357 319 c 0
 361 319 361 314 360 309 c 0
 359 303 352 286 340 279 c 1
 313 279 113 279 100 279 c 0
 96 279 97 287 98 292 c 0
 99 298 102 310 109 319 c 1x30
215 258 m 0
 200 183 172 128 139 84 c 1
 157 91 167 93 208 93 c 0x70
 258 93 312 61 348 61 c 0
 389 61 413 111 430 134 c 1
 434 134 439 127 439 117 c 0
 439 113 438 110 437 108 c 0
 417 71 371 -8 305 -8 c 0xb0
 245 -8 181 29 135 29 c 0x70
 106 29 77 7 58 -9 c 1
 46 -9 43 4 44 10 c 1
 65 40 82 56 102 82 c 1
 127 121 140 200 149 249 c 0
 153 270 168 391 174 423 c 0
 198 549 285 635 385 635 c 0
 420 635 439 622 449 598 c 1
 446 580 434 539 410 539 c 0
 372 539 378 593 340 593 c 0
 277 593 257 512 244 444 c 0
 237 410 218 272 215 258 c 0
EndSplineSet
Validated: 5
Substitution2: "'smcp' Lowercase to Small Capitals in Latin lookup 3-1" sterling.sc
EndChar

StartChar: currency
Encoding: 164 164 98
Width: 447
Flags: W
HStem: 120 32<160.235 248.716> 463 33<200.118 289.983>
VStem: 50 70<197.092 362.424> 329 69<252.472 417.647>
LayerCount: 2
Fore
SplineSet
247 463 m 0
 179 463 120 365 120 273 c 0
 120 203 154 152 203 152 c 0
 271 152 329 249 329 341 c 0
 329 411 296 463 247 463 c 0
262 496 m 0
 302 496 334 481 358 455 c 1
 424 510 l 2
 425 511 427 511 428 511 c 3
 438 511 452 487 454 466 c 1
 387 410 l 1
 394 391 398 370 398 347 c 0
 398 282 366 228 342 199 c 1
 381 141 l 2
 381 140 382 140 382 139 c 3
 382 129 354 106 332 100 c 1
 295 155 l 1
 263 133 226 120 189 120 c 0
 149 120 115 135 91 160 c 1
 32 110 l 2
 31 109 29 109 28 109 c 3
 18 109 4 133 2 154 c 1
 62 205 l 1
 54 224 50 245 50 268 c 0
 50 330 80 388 112 423 c 1
 75 479 l 2
 75 480 74 480 74 481 c 3
 74 491 102 514 124 520 c 1
 161 465 l 1
 192 485 227 496 262 496 c 0
EndSplineSet
Validated: 1
EndChar

StartChar: yen
Encoding: 165 165 99
Width: 611
Flags: W
HStem: -3 27<189.1 246.906 358.051 401.693> 138 38<196.472 283 369 454.693> 216 38<212.307 298 384 469.693> 615 27<143.567 191.609 320.541 370.992 493.773 539.742 642.695 711.256>
VStem: 308 76<254.146 282>
LayerCount: 2
Fore
SplineSet
384 254 m 1
 384 254 456 254 469 254 c 0
 473 254 472 246 471 241 c 0
 470 235 468 225 461 216 c 1
 434 216 376 216 376 216 c 1
 369 176 l 1
 369 176 441 176 454 176 c 4
 458 176 457 168 456 163 c 4
 455 157 453 147 446 138 c 5
 419 138 361 138 361 138 c 1
 356 112 349 73 350 46 c 0
 351 35 393 24 400 24 c 0
 403 24 403 18 402 12 c 0
 401 6 399 0 397 -3 c 1
 361 -1 337 2 298 2 c 0
 257 2 232 -1 191 -3 c 1
 190 -1 188 5 189 10 c 0
 190 17 193 24 196 24 c 0
 207 24 251 34 258 46 c 1
 268 69 277 107 283 138 c 1
 283 138 210 138 197 138 c 4
 193 138 194 146 195 151 c 4
 196 157 199 167 206 176 c 5
 233 176 290 176 290 176 c 1
 298 216 l 1
 298 216 226 216 213 216 c 0
 209 216 210 224 211 229 c 0
 212 235 214 245 221 254 c 1
 248 254 306 254 306 254 c 1
 307 257 309 268 308 270 c 0
 308 283 300 311 228 532 c 1
 217 568 214 572 200 594 c 0
 191 608 155 615 144 615 c 0
 142 615 142 620 143 626 c 0
 144 632 147 640 149 642 c 1
 193 640 211 636 256 636 c 0
 301 636 337 640 374 642 c 1
 375 636 371 615 366 615 c 0
 353 615 311 608 306 583 c 0
 304 575 307 565 310 554 c 2
 371 348 l 1
 375 343 379 347 381 350 c 0
 450 435 543 554 549 584 c 0
 552 597 531 615 493 615 c 0
 488 615 492 637 498 642 c 1
 531 640 550 636 583 636 c 0
 629 636 675 640 712 642 c 1
 712 639 712 632 711 627 c 0
 710 621 708 615 705 615 c 0
 698 615 631 605 613 586 c 1
 587 553 393 303 389 282 c 2
 384 254 l 1
EndSplineSet
Validated: 33
Substitution2: "'smcp' Lowercase to Small Capitals in Latin lookup 3-1" yen.sc
EndChar

StartChar: brokenbar
Encoding: 166 166 100
Width: 203
VWidth: 0
Flags: W
VStem: -11 227
LayerCount: 2
Fore
SplineSet
157 754 m 1
 167 764 183 770 201 770 c 27
 208 770 217 767 216 763 c 2
 147 400 l 1
 140 392 121 383 102 383 c 27
 96 383 86 386 87 391 c 2
 157 754 l 1
59 248 m 1
 69 258 85 264 103 264 c 27
 110 264 119 261 118 257 c 2
 49 -106 l 1
 42 -114 22 -123 3 -123 c 27
 -3 -123 -12 -120 -11 -115 c 2
 59 248 l 1
EndSplineSet
Validated: 1
Substitution2: "Ordinals-1" brokenbar.ordn
Substitution2: "'smcp' Lowercase to Small Capitals in Latin lookup 3-1" brokenbar.sc
EndChar

StartChar: section
Encoding: 167 167 101
Width: 348
VWidth: 0
Flags: W
HStem: -63 36<57.5 160.123> 614 38<193.95 296.5>
VStem: 24 52<234.484 393.567> 107 51<465.591 568.626> 194 52<21.1951 122.409> 276 52<195.501 353.727>
LayerCount: 2
Back
SplineSet
395 290 m 4
 395 191 332.827 141.323 312 125 c 5
 312 121 313 116 313 111 c 4
 313 40 273 -63 149 -63 c 4
 100 -63 82 -42 76 -27 c 5
 79 7 93 34 118 34 c 4
 147 34 142 -27 186 -27 c 4
 226 -27 261 15 261 65 c 4
 261 172 91 173 91 298 c 4
 91 304 91 311 92 318 c 4
 103 401 138 435 175 464 c 5
 175 469 174 473 174 478 c 4
 174 560 226 652 339 652 c 4
 388 652 405 630 411 615 c 5
 408 581 394 555 369 555 c 4
 340 555 344 614 300 614 c 4
 260 614 225 574 225 523 c 4
 225 416 395 415 395 290 c 4
182 429 m 5
 170 420 143 404 143 354 c 4
 143 258 272 251 305 159 c 5
 323 172 343 189 343 235 c 4
 343 330 215 337 182 429 c 5
EndSplineSet
Fore
SplineSet
272 652 m 0
 321 652 338 630 344 615 c 1
 341 581 327 555 302 555 c 0
 273 555 277 614 233 614 c 0
 193 614 158 574 158 523 c 0
 158 416 328 415 328 290 c 0
 328 191 266 141 245 125 c 1
 245 121 246 116 246 111 c 0
 246 40 206 -63 82 -63 c 0
 33 -63 15 -42 9 -27 c 1
 12 7 26 34 51 34 c 0
 80 34 75 -27 119 -27 c 0
 159 -27 194 15 194 65 c 0
 194 172 24 173 24 298 c 0
 24 389 71 435 108 464 c 1
 108 469 107 473 107 478 c 0
 107 560 159 652 272 652 c 0
76 354 m 0
 76 258 205 251 238 159 c 1
 256 172 276 189 276 235 c 0
 276 330 148 337 115 429 c 1
 103 420 76 404 76 354 c 0
EndSplineSet
Validated: 1
Substitution2: "Ordinals-1" section.ordn
Substitution2: "'smcp' Lowercase to Small Capitals in Latin lookup 3-1" section.sc
EndChar

StartChar: dieresis
Encoding: 168 168 102
Width: 285
VWidth: 0
Flags: W
HStem: 477 100<29.3116 94.2283 198.312 263.228>
VStem: 19 88<488.666 567.191> 188 88<488.666 567.191>
LayerCount: 2
Fore
SplineSet
239 577 m 31
 260 577 276 558 276 537 c 31
 276 506 253 477 222 477 c 31
 200 477 188 499 188 521 c 31
 188 551 209 577 239 577 c 31
70 577 m 31
 91 577 107 558 107 537 c 31
 107 506 84 477 53 477 c 31
 31 477 19 499 19 521 c 31
 19 551 40 577 70 577 c 31
EndSplineSet
Validated: 1
EndChar

StartChar: copyright
Encoding: 169 169 103
Width: 547
Flags: W
HStem: 69 31<163.389 311.482> 195 32<233.935 342.097> 449 34<264.256 370.71> 584 31<254.104 404.705>
VStem: 24 30<213.253 374.562> 146 55<251.764 390.215> 390 22<394.59 424.07> 513 29<309.17 468.384>
LayerCount: 2
Fore
SplineSet
309 483 m 0
 337 483 380 477 409 464 c 1
 410 462 411 459 411 456 c 16
 412 442 412 415 412 406 c 0
 412 395 399 394 396 394 c 0
 394 394 391 395 390 396 c 1
 390 409 380 449 314 449 c 0
 259 449 201 390 201 315 c 0
 201 255 242 227 279 227 c 0
 355 227 362 267 370 279 c 1
 370 279 372 280 374 280 c 27
 380 280 388 276 388 276 c 1
 387 273 364 217 357 214 c 0
 325 201 294 195 255 195 c 0
 190 195 146 242 146 307 c 0
 146 394 221 483 309 483 c 0
336 615 m 4
 458 615 542 522 542 398 c 4
 542 225 388 69 229 69 c 4
 107 69 24 162 24 286 c 4
 24 459 177 615 336 615 c 4
330 584 m 4
 191 584 54 446 54 292 c 4
 54 183 128 100 236 100 c 4
 375 100 513 238 513 391 c 4
 513 501 438 584 330 584 c 4
EndSplineSet
Validated: 1
Substitution2: "'smcp' Lowercase to Small Capitals in Latin lookup 3-1" copyright.sc
EndChar

StartChar: ordfeminine
Encoding: 170 170 104
Width: 319
VWidth: 0
Flags: W
HStem: 249 41<64.5 134.581 227 276.351> 530 26<192.33 245>
VStem: 27 59<291.207 405.686> 201 48<290.005 348.999>
LayerCount: 2
Fore
SplineSet
233 556 m 0
 257 556 285 551 290 546 c 9
 252 345 l 2
 249 329 249 319 249 316 c 0
 249 297 256 290 264 290 c 0
 278 290 305 341 308 341 c 0
 309 341 314 332 315 326 c 1
 310 312 275 250 240 250 c 3
 214 250 201 268 201 301 c 0
 201 319 206 343 206 347 c 0
 206 348 205 349 205 349 c 2
 204 349 205 348 204 347 c 0
 192 321 132 249 87 249 c 3
 42 249 27 277 27 322 c 3
 27 432 153 556 233 556 c 0
228 530 m 0
 166 530 86 410 86 338 c 0
 86 322 85 290 116 290 c 3
 145 290 207 375 219 442 c 2
 232 513 l 2
 232 515 233 519 233 521 c 0
 233 525 233 530 228 530 c 0
EndSplineSet
Validated: 33
Substitution2: "'smcp' Lowercase to Small Capitals in Latin lookup 3-1" ordfeminine.sc
EndChar

StartChar: guillemotleft
Encoding: 171 171 105
Width: 416
VWidth: 0
Flags: W
LayerCount: 2
Fore
SplineSet
405 423 m 1
 408 422 423 417 423 407 c 0
 423 400 427 400 353 338 c 0
 327 316 276 266 254 247 c 1
 317 157 l 18
 343 121 362 103 362 91 c 0
 362 80 340 75 336 73 c 1
 326 88 257 165 175 227 c 0
 172 229 171 232 171 237 c 0
 171 247 176 261 183 268 c 1
 302 335 394 413 405 423 c 1
87 247 m 1
 176 113 196 109 196 92 c 0
 196 80 170 74 169 73 c 1
 159 88 90 165 8 227 c 0
 5 229 4 233 4 237 c 0
 4 243 7 259 16 268 c 1
 139 338 236 420 239 423 c 1
 255 418 256 410 256 407 c 0
 256 400 260 400 186 338 c 0
 160 316 109 266 87 247 c 1
EndSplineSet
Validated: 33
Substitution2: "'smcp' Lowercase to Small Capitals in Latin lookup 3-1" guillemotleft.sc
EndChar

StartChar: logicalnot
Encoding: 172 172 106
Width: 474
VWidth: 0
Flags: W
HStem: 364 56<21.7804 394.688>
VStem: 360 56<162.057 204.034>
LayerCount: 2
Fore
SplineSet
40 420 m 2
 454 420 l 2
 460 420 465 419 463 409 c 2
 416 169 l 1
 413 166 391 160 374 160 c 27
 368 160 359 162 360 168 c 2
 397 354 l 1
 397 355 l 6
 397 359 393 364 387 364 c 2
 22 364 l 1
 22 364 19 376 19 382 c 0
 19 399 31 420 40 420 c 2
EndSplineSet
Validated: 1
EndChar

StartChar: registered
Encoding: 174 174 107
Width: 547
Flags: W
HStem: 133 32<167.654 320.69> 272 13<146 172.682 233.283 252.686 389.727 407.229> 407 21<254.312 276.857> 529 25<257.653 333.849> 541 12<198.737 218.106> 648 32<256.425 409.447>
VStem: 342 46<438.76 526.673>
LayerCount: 2
Fore
SplineSet
304 529 m 27xf6
 275 529 271 525 270 519 c 26
 256 444 l 2
 256 442 254 441 254 440 c 3
 254 429 277 428 292 428 c 27
 323 428 342 460 342 491 c 3
 342 519 325 529 304 529 c 27xf6
314 554 m 27
 352 554 388 534 388 493 c 3
 388 455 364 431 330 414 c 16
 329 413 329 412 329 411 c 2
 329 410 l 1
 331 398 346 362 361 333 c 0
 375 305 385 286 408 286 c 1
 408 282 407 277 406 275 c 1
 402 273 395 272 388 272 c 3
 329 272 317 294 277 398 c 0
 274 405 268 407 260 407 c 0
 251 407 248 405 247 399 c 26
 230 310 l 1
 230 299 l 2
 230 296 231 292 233 291 c 0
 239 288 248 285 252 285 c 0
 253 285 253 283 253 282 c 27
 253 278 252 276 251 272 c 25
 232 273 220 274 201 274 c 27
 180 274 167 273 146 272 c 25
 146 275 145 277 145 280 c 27
 145 282 147 283 148 285 c 17
 185 290 177 295 185 330 c 25
 218 499 l 26
 220 510 222 517 222 528 c 0
 222 537 206 541 200 541 c 3
 199 541 198 542 198 543 c 27
 198 547 200 549 201 553 c 25xee
 218 552 227 550 244 550 c 27
 271 550 287 554 314 554 c 27
341 680 m 0
 481 680 572 558 543 407 c 0
 514 256 375 133 235 133 c 0
 95 133 5 256 34 407 c 0
 63 558 201 680 341 680 c 0
336 648 m 0
 212 648 91 540 65 407 c 0
 39 274 118 165 242 165 c 0
 366 165 488 274 514 407 c 0
 540 540 460 648 336 648 c 0
EndSplineSet
Validated: 33
Substitution2: "'smcp' Lowercase to Small Capitals in Latin lookup 3-1" registered.sc
EndChar

StartChar: macron
Encoding: 175 175 108
Width: 261
Flags: W
HStem: 539 57<28.8624 244.887>
VStem: 25 224<539.201 595.662>
LayerCount: 2
Fore
SplineSet
43 596 m 9
 241 596 l 2
 246 596 249 587 249 578 c 0
 249 566 237 543 231 539 c 1
 30 539 l 2
 26 539 25 550 25 558 c 0
 25 569 35 589 43 596 c 9
EndSplineSet
Validated: 1
EndChar

StartChar: degree
Encoding: 176 176 109
Width: 201
VWidth: 0
Flags: W
HStem: 437 37<60.0513 138.974> 597 37<74.6472 155.277>
VStem: 14 36<483.773 571.242> 165 36<501.504 586.935>
LayerCount: 2
Fore
SplineSet
119 597 m 0
 84 597 50 565 50 524 c 0
 50 496 68 474 96 474 c 0
 131 474 165 509 165 548 c 0
 165 576 147 597 119 597 c 0
126 634 m 0
 170 634 201 600 201 555 c 0
 201 493 144 437 89 437 c 0
 45 437 14 472 14 517 c 0
 14 582 73 634 126 634 c 0
EndSplineSet
Validated: 1
Substitution2: "'smcp' Lowercase to Small Capitals in Latin lookup 3-1" degree.sc
EndChar

StartChar: plusminus
Encoding: 177 177 110
Width: 497
VWidth: 0
Flags: W
HStem: 36 56<-0.335785 441.644> 333 56<57.6642 238.001 320.998 499.644>
LayerCount: 2
Fore
SplineSet
14 92 m 5
 444 92 l 6
 447 92 448 89 448 83 c 7
 448 69 439 49 427 36 c 5
 -3 36 l 6
 -6 36 -8 39 -8 45 c 7
 -8 59 3 78 14 92 c 5
72 389 m 1
 250 389 l 18
 253 389 254 391 254 393 c 0
 266 453 273 511 287 581 c 0
 290 595 339 599 343 599 c 0
 352 599 354 594 353 590 c 2
 353 590 330 456 318 394 c 0
 317 391 318 389 321 389 c 10
 502 389 l 2
 505 389 506 386 506 380 c 3
 506 366 497 346 485 333 c 1
 306 333 l 18
 303 333 302 331 302 329 c 2
 267 141 l 2
 265 130 235 123 217 123 c 0
 206 123 201 128 202 132 c 2
 202 132 227 272 238 328 c 0
 238 330 239 333 234 333 c 10
 55 333 l 2
 52 333 50 336 50 342 c 3
 50 356 61 375 72 389 c 1
EndSplineSet
Validated: 1
EndChar

StartChar: uni00B2
Encoding: 178 178 111
Width: 302
VWidth: 0
Flags: W
HStem: 254 56<93 256.222> 594 53<147.508 222.235>
VStem: 229 74<489.886 588.031>
LayerCount: 2
Fore
SplineSet
303 563 m 0
 303 438 93 330 93 311 c 0
 93 310 93 310 94 310 c 2
 221 310 l 2
 253 310 263 347 270 347 c 0
 275 347 282 345 285 343 c 1
 269 314 261 286 248 254 c 1
 136 255 l 1
 14 254 l 1
 10 256 9 266 9 273 c 0
 9 277 10 282 13 287 c 1
 125 395 229 484 229 544 c 0
 229 568 216 594 183 594 c 3
 161 594 106 551 100 551 c 0
 98 551 92 565 92 572 c 0
 92 576 94 582 95 584 c 0
 106 600 166 647 220 647 c 3
 271 647 303 610 303 563 c 0
EndSplineSet
Validated: 1
EndChar

StartChar: uni00B3
Encoding: 179 179 112
Width: 279
VWidth: 0
Flags: W
HStem: 247 36<71.5415 158.133> 438 30<102.047 154.805> 596 51<134.421 230>
VStem: 206 68<335.171 436.365> 216 65<526.748 592.585>
LayerCount: 2
Fore
SplineSet
104 283 m 3xf0
 156 283 206 329 206 391 c 0xf0
 206 426 185 444 156 444 c 0
 130 444 137 442 107 438 c 1
 104 443 102 448 102 452 c 0
 102 459 106 466 113 468 c 0
 200 486 216 543 216 562 c 0
 216 583 197 596 176 596 c 3
 136 596 110 559 99 559 c 0
 91 559 94 593 94 593 c 1
 123 624 168 647 217 647 c 3
 243 647 281 625 281 583 c 0xe8
 281 527 230 501 201 484 c 1
 224 484 274 456 274 402 c 0
 274 330 192 247 79 247 c 3
 40 247 11 262 7 273 c 1
 8 296 26 317 43 317 c 3
 71 317 72 283 104 283 c 3xf0
EndSplineSet
Validated: 33
EndChar

StartChar: acute
Encoding: 180 180 113
Width: 207
VWidth: 0
Flags: W
HStem: 527 160
VStem: 22 181
LayerCount: 2
Fore
SplineSet
170 687 m 0
 197 687 203 675 203 666 c 0
 203 629 41 527 32 527 c 0
 27 527 22 539 22 543 c 0
 22 553 104 653 122 670 c 0
 136 684 152 687 170 687 c 0
EndSplineSet
Validated: 1
EndChar

StartChar: paragraph
Encoding: 182 182 115
Width: 414
VWidth: 0
Flags: W
HStem: -4 27<48.5926 104.314 265.203 314.93> 299 33<219.002 256.968> 316 38<318.264 353.812> 624 24<371.781 427>
VStem: 21 198<336 446.094>
LayerCount: 2
Fore
SplineSet
210 286 m 2xd8
 166 49 l 1
 166 47 l 2
 166 39 178 36 186 36 c 0
 195 36 206 44 207 50 c 0
 216 84 237 189 257 295 c 0
 257 298 257 299 255 299 c 0
 252 299 242 296 217 293 c 0
 211 292 211 291 210 286 c 2xd8
218 652 m 0
 273 652 267 648 322 648 c 0
 383 648 427 653 427 653 c 1
 428 652 428 649 428 646 c 0
 428 637 425 624 421 624 c 0
 410 624 368 616 361 604 c 0
 353 588 310 350 310 349 c 0
 310 347 311 346 312 346 c 2
 314 346 l 1
 355 354 l 1
 356 351 356 348 356 346 c 0
 356 330 343 319 333 316 c 2xb8
 308 309 l 2
 306 308 301 306 301 304 c 0
 296 276 257 80 257 47 c 0
 257 31 309 23 314 23 c 0
 316 23 316 21 316 18 c 0
 316 11 313 -1 309 -4 c 1
 251 -2 218 2 159 2 c 0
 116 2 85 -2 47 -4 c 1
 47 -2 l 2
 47 6 51 23 55 23 c 0
 62 23 111 34 116 45 c 0
 131 78 167 283 167 286 c 0
 167 291 163 291 149 291 c 0
 58 291 21 371 21 438 c 0
 21 546 125 652 218 652 c 0
273 599 m 0
 271 589 219 346 219 337 c 0
 219 335 222 332 226 332 c 8xd8
 240 333 262 338 262 338 c 2
 264 338 267 340 268 344 c 0
 271 361 315 593 315 601 c 0
 315 605 305 611 296 611 c 0
 287 611 275 610 273 599 c 0
EndSplineSet
Validated: 1
Substitution2: "Ordinals-1" paragraph.ordn
Substitution2: "'smcp' Lowercase to Small Capitals in Latin lookup 3-1" paragraph.sc
EndChar

StartChar: periodcentered
Encoding: 183 183 116
Width: 131
VWidth: 0
Flags: W
HStem: 205 117<30.4296 99.375>
VStem: 10 110<225.408 301.98>
LayerCount: 2
Fore
SplineSet
10 252 m 0
 10 289 44 322 77 322 c 0
 103 322 120 302 120 276 c 0
 120 239 87 205 54 205 c 0
 28 205 10 225 10 252 c 0
EndSplineSet
Validated: 1
EndChar

StartChar: cedilla
Encoding: 184 184 117
Width: 161
VWidth: 0
Flags: W
HStem: -152 24<28.4155 88.8408> -61 34<86 101.728> -24 20G<75.5 106>
VStem: 103 38<-112.975 -61.8032>
LayerCount: 2
Fore
SplineSet
87 -4 m 1
 106 -4 l 9
 86 -27 l 25
 108 -27 l 2
 129 -27 141 -44 141 -65 c 0
 141 -102 104 -152 37 -152 c 3
 26 -152 13 -147 8 -143 c 1
 8 -140 8 -137 8 -134 c 0
 8 -119 20 -115 23 -115 c 3
 34 -115 40 -128 55 -128 c 3
 82 -128 103 -111 103 -87 c 0
 103 -68 90 -61 79 -61 c 0
 69 -61 64 -64 54 -68 c 0
 52 -68 47 -61 47 -57 c 0
 47 -53 64 -37 87 -4 c 1
EndSplineSet
Validated: 1
EndChar

StartChar: uni00B9
Encoding: 185 185 118
Width: 218
VWidth: 0
Flags: W
HStem: 253 25<7.81787 65.7731 154.996 196.512>
VStem: 8 208
LayerCount: 2
Fore
SplineSet
51 579 m 0
 126 613 202 652 210 652 c 0
 213 652 216 632 216 629 c 2
 216 629 199 587 192 548 c 2
 152 340 l 2
 150 328 148 319 148 310 c 0
 148 304 149 297 152 293 c 0
 157 286 188 279 195 279 c 0
 197 279 197 276 197 272 c 3
 197 265 195 256 193 253 c 1
 157 254 138 256 102 256 c 0
 66 256 45 254 8 253 c 1
 7 254 7 255 7 258 c 0
 7 265 10 278 14 278 c 0
 25 278 63 286 68 292 c 0
 75 300 79 318 83 340 c 2
 116 513 l 2
 119 534 122 548 122 557 c 0
 122 566 119 569 112 569 c 0
 103 569 79 560 52 551 c 1
 48 552 44 562 44 566 c 3
 44 570 45 576 51 579 c 0
EndSplineSet
Validated: 1
EndChar

StartChar: ordmasculine
Encoding: 186 186 119
Width: 312
VWidth: 0
Flags: W
HStem: 247 24<120.295 192.767> 529 25<148.976 222.484>
VStem: 29 66<293.569 453.992> 246 66<344.658 507.293>
LayerCount: 2
Fore
SplineSet
191 529 m 11
 117 529 95 442 95 364 c 0
 95 314 110 271 153 271 c 11
 229 271 246 368 246 441 c 0
 246 488 232 529 191 529 c 11
201 554 m 19
 267 554 312 500 312 432 c 0
 312 340 239 247 141 247 c 16
 75 247 29 299 29 367 c 0
 29 457 102 554 201 554 c 19
EndSplineSet
Validated: 1
Substitution2: "'smcp' Lowercase to Small Capitals in Latin lookup 3-1" ordmasculine.sc
EndChar

StartChar: guillemotright
Encoding: 187 187 120
Width: 425
VWidth: 0
Flags: W
LayerCount: 2
Fore
SplineSet
83 423 m 1
 99 399 176 317 245 268 c 1
 247 264 248 258 248 252 c 0
 248 241 245 230 238 227 c 0
 100 147 16 73 16 73 c 1
 12 74 -2 79 -2 88 c 0
 -2 99 7 104 68 157 c 1
 166 247 l 1
 102 338 l 1
 71 376 59 394 59 402 c 0
 59 418 77 420 83 423 c 1
250 423 m 1
 262 405 339 319 411 268 c 1
 414 264 415 259 415 254 c 0
 415 245 412 230 404 227 c 1
 274 151 183 73 183 73 c 1
 179 74 165 79 165 88 c 0
 165 99 174 104 235 157 c 1
 333 247 l 1
 269 338 l 1
 226 391 225 396 225 401 c 0
 225 417 245 421 250 423 c 1
EndSplineSet
Validated: 1
Substitution2: "'smcp' Lowercase to Small Capitals in Latin lookup 3-1" guillemotright.sc
EndChar

StartChar: onequarter
Encoding: 188 188 121
Width: 563
VWidth: 0
Flags: W
HStem: -5 21G<433.5 455.5> 115 43<342.001 429 510.516 542.814> 253 25<-0.182129 57.7731 147.953 188.512>
LayerCount: 2
Fore
SplineSet
43 579 m 0
 118 613 194 652 202 652 c 0
 205 652 208 632 208 629 c 2
 208 629 191 587 184 548 c 2
 144 340 l 2
 142 328 140 319 140 310 c 0
 140 304 142 297 145 293 c 0
 150 286 180 279 187 279 c 0
 189 279 189 276 189 272 c 3
 189 265 187 256 185 253 c 1
 149 254 130 256 94 256 c 0
 58 256 37 254 0 253 c 1
 -1 254 -1 255 -1 258 c 0
 -1 265 2 278 6 278 c 0
 17 278 55 286 60 292 c 0
 67 300 71 318 75 340 c 2
 108 513 l 2
 111 534 114 548 114 557 c 0
 114 566 111 569 104 569 c 0
 95 569 71 560 44 551 c 1
 40 552 36 562 36 566 c 3
 36 570 37 576 43 579 c 0
552 618 m 6
 106 -14 l 5
 106 -14 73 -7 73 4 c 4
 73 6 73 8 75 10 c 30
 522 642 l 5
 522 642 553 634 553 623 c 4
 553 621 553 619 552 618 c 6
514 390 m 2
 519 395 526 397 529 397 c 0
 532 397 554 398 552 390 c 2
 507 162 l 1
 507 161 l 2
 507 159 509 158 511 158 c 10
 535 158 l 2
 540 158 544 155 544 151 c 0
 544 130 538 118 533 115 c 1
 501 115 l 2
 499 115 498 113 497 110 c 2
 475 0 l 1
 471 -2 463 -5 448 -5 c 0
 419 -5 411 1 412 4 c 2
 432 112 l 1
 432 113 l 2
 432 115 431 115 429 115 c 2
 290 115 l 1
 287 120 283 126 283 141 c 1
 514 390 l 2
345 158 m 2
 436 158 l 2
 438 158 441 159 442 163 c 2
 468 292 l 2
 468 294 467 296 466 296 c 2
 465 296 l 1
 343 166 l 2
 342 165 342 164 342 163 c 3
 342 161 343 158 345 158 c 2
EndSplineSet
Validated: 33
EndChar

StartChar: onehalf
Encoding: 189 189 122
Width: 609
VWidth: 0
Flags: W
HStem: 0 56<386 550.484> 251 24<0.597527 53.9987 140.512 182.425> 340 53<441.035 515.504>
VStem: 522 74<237.184 334.138>
LayerCount: 2
Fore
SplineSet
538 618 m 2
 92 -14 l 1
 92 -14 59 -7 59 4 c 0
 59 6 59 8 61 10 c 26
 508 642 l 1
 508 642 540 634 540 623 c 0
 540 621 539 619 538 618 c 2
514 56 m 2
 565 56 541 92 572 92 c 0
 575 92 578 92 579 90 c 1
 563 61 555 32 542 0 c 1
 308 0 l 1
 304 2 300 9 300 17 c 0
 300 22 302 28 306 33 c 0
 408 131 522 230 522 291 c 0
 522 315 509 340 476 340 c 3
 454 340 420 323 400 300 c 0
 399 299 398 298 396 298 c 0
 392 298 386 314 386 321 c 0
 386 324 387 329 387 329 c 1
 417 362 470 393 513 393 c 3
 564 393 596 356 596 309 c 0
 596 184 386 77 386 57 c 0
 386 56 386 56 387 56 c 2
 514 56 l 2
191 638 m 1
 195 638 l 2
 201 638 201 617 201 614 c 2
 201 614 183 573 176 534 c 2
 138 338 l 2
 136 326 134 317 134 308 c 0
 134 302 135 297 136 291 c 0
 137 284 174 276 181 276 c 0
 183 276 183 273 183 270 c 0
 183 263 181 254 179 251 c 1
 143 252 128 254 92 254 c 0
 56 254 39 252 2 251 c 1
 1 252 0 254 0 257 c 0
 0 264 3 275 7 275 c 0
 18 275 54 283 58 290 c 0
 69 309 70 316 74 338 c 2
 104 499 l 2
 105 504 109 524 109 539 c 0
 109 551 107 555 99 555 c 0
 89 555 73 547 52 540 c 1
 44 544 41 544 41 551 c 0
 41 571 42 550 191 638 c 1
EndSplineSet
Validated: 1
EndChar

StartChar: threequarters
Encoding: 190 190 123
Width: 593
VWidth: 0
Flags: W
HStem: -5 21G<464 493> 115 43<373.001 461 541.75 574.002> 247 36<65.5181 152.13> 438 30<97.0466 149.348> 596 51<128.815 224>
VStem: 199 68<335.126 437.226> 210 66<526.382 592.511>
LayerCount: 2
Fore
SplineSet
573 618 m 2xf8
 127 -14 l 1
 127 -14 94 -7 94 4 c 0
 94 6 94 8 96 10 c 26
 543 642 l 1
 543 642 574 634 574 623 c 0
 574 621 574 619 573 618 c 2xf8
94 558 m 0
 89 558 86 563 86 585 c 0
 86 588 88 592 88 593 c 0
 117 624 162 647 211 647 c 3
 237 647 276 625 276 583 c 0xfa
 276 526 223 500 196 484 c 1
 219 484 267 457 267 403 c 0
 267 325 179 247 73 247 c 3
 34 247 5 262 1 273 c 1
 2 296 19 317 36 317 c 3
 64 317 67 283 99 283 c 3
 152 283 199 330 199 392 c 0xfc
 199 427 180 444 151 444 c 0
 125 444 132 442 102 438 c 1
 99 443 97 448 97 452 c 0
 97 459 101 466 108 468 c 0
 194 486 210 543 210 562 c 0xfa
 210 584 191 596 169 596 c 11
 136 596 103 558 94 558 c 0
479 -5 m 0
 449 -5 443 3 443 4 c 2
 464 112 l 2
 464 115 463 115 461 115 c 2
 322 115 l 1
 319 120 315 128 315 138 c 0
 315 139 315 140 315 141 c 2
 546 390 l 2
 551 395 561 397 565 397 c 0
 572 397 583 396 583 391 c 2
 583 390 l 1
 539 163 l 1
 539 162 l 2
 539 160 541 159 543 159 c 10
 568 159 l 2
 573 159 576 156 576 152 c 0
 571 113 574 123 564 115 c 1
 532 114 l 2
 530 114 529 112 528 109 c 2
 507 0 l 2
 506 -3 507 -5 479 -5 c 0
474 163 m 2
 499 292 l 2
 499 294 498 297 497 297 c 0
 495 295 373 166 373 164 c 0
 373 162 375 158 377 158 c 2
 468 158 l 2
 470 158 473 159 474 163 c 2
EndSplineSet
Validated: 1
EndChar

StartChar: questiondown
Encoding: 191 191 124
Width: 277
VWidth: 0
Flags: W
HStem: -208 54<52.1904 154.293> 321 116<184.156 254>
VStem: -15 48<-141.861 -47.1103> 163 110<340.112 415.875> 177 69<110.574 196.291>
LayerCount: 2
Fore
SplineSet
138 228 m 3xe8
 138 234 143 239 148 242 c 1
 172 242 246 200 246 144 c 3xe8
 246 100 222 75 204 61 c 1
 85 -23 l 2
 65 -37 33 -59 33 -92 c 3
 33 -124 52 -154 95 -154 c 0
 134 -154 133 -107 163 -107 c 0xf0
 183 -107 199 -126 203 -154 c 1
 198 -169 177 -208 130 -208 c 0
 47 -208 -15 -141 -15 -79 c 0
 -15 17 26 21 144 102 c 0
 169 119 177 135 177 162 c 27
 177 192 138 218 138 228 c 3xe8
273 391 m 0xf0
 273 353 241 321 208 321 c 0
 182 321 163 341 163 367 c 0
 163 404 198 437 231 437 c 0
 257 437 273 417 273 391 c 0xf0
EndSplineSet
Validated: 1
Substitution2: "'smcp' Lowercase to Small Capitals in Latin lookup 3-1" questiondown.sc
EndChar

StartChar: AE
Encoding: 198 198 131
Width: 847
VWidth: 0
Flags: W
HStem: -3 27<64.053 120.269 219.957 260.142 395.747 443.885> 2 42<575.005 768.753> 296 44<401.89 511.128 602.406 736.544> 616 48<675.153 833.703> 616 40<629.214 800.08> 625 31<497.109 526.194>
VStem: 512 63<83.8449 289.66> 754 28<217.024 283.773> 854 29<525.096 584.603>
LayerCount: 2
Fore
SplineSet
211 50 m 4xa380
 211 34 252 24 262 24 c 4
 263 24 263 23 263 22 c 4
 263 16 257 2 254 -3 c 5xa380
 217 -1 201 2 160 2 c 4x6380
 117 2 107 -1 64 -3 c 5
 63 -2 63 2 63 3 c 4
 63 11 68 24 72 24 c 4
 83 24 118 32 132 45 c 4
 161 71 186 102 211 139 c 6
 523 586 l 6
 526 590 528 595 528 601 c 4
 528 612 520 625 498 625 c 4
 496 625 495 627 495 630 c 4
 495 638 501 652 505 656 c 5
 592 656 l 6xa780
 679 656 791 664 892 664 c 5
 889 614 885 574 883 530 c 5
 880 527 873 525 866 525 c 4
 860 525 854 527 854 532 c 4
 850 610 805 616 772 616 c 6
 713 616 l 6
 675 616 635 615 631 603 c 4
 623 576 620 543 616 505 c 6
 601 347 l 5
 601 346 l 6
 601 340 614 340 632 340 c 6
 665 340 l 6
 750 340 747 342 778 411 c 4
 780 416 787 418 793 418 c 4
 800 418 806 416 808 413 c 5
 792 350 787 284 782 221 c 5
 779 219 773 217 767 217 c 4
 761 217 755 219 754 224 c 4
 751 281 744 282 737 288 c 4
 728 295 672 296 637 296 c 4
 611 296 597 295 596 286 c 6
 584 154 l 6
 584 152 575 72 575 63 c 4
 575 52 581 44 636 44 c 6
 651 44 l 6
 686 44 735 47 763 61 c 4
 783 71 808 109 833 162 c 4
 835 166 841 168 848 168 c 4
 857 168 867 165 869 162 c 5
 841 108 810 40 795 -4 c 5
 694 -4 607 2 522 2 c 4x7380
 461 2 396 -3 396 -3 c 5
 395 -2 395 0 395 3 c 4
 395 13 400 31 404 31 c 4
 415 31 471 41 477 50 c 4
 498 81 504 193 512 285 c 4
 512 290 510 293 506 293 c 4
 481 294 438 294 438 294 c 5
 438 294 397 294 371 293 c 28
 368 293 367 292 365 290 c 6
 256 131 l 6
 221 81 211 61 211 50 c 4xa380
540 547 m 5
 400 344 l 6
 399 343 399 340 401 340 c 20
 420 339 438 339 454 339 c 4
 474 339 493 339 513 341 c 13
 519 346 l 5
 540 547 l 5
EndSplineSet
Validated: 1
EndChar

StartChar: Eth
Encoding: 208 208 141
Width: 659
Flags: W
HStem: 2 46<166.169 407.618> 7 22<20.2826 69.7743> 313 40<95.1905 451.084> 619 44<294.047 505.78> 636 27<144.16 189.784>
VStem: 596 88<283.913 522.358>
LayerCount: 2
Fore
SplineSet
420 663 m 3x34
 604 663 684 544 684 410 c 0
 684 245 556 2 290 2 c 3xb4
 249 2 194 7 132 7 c 16x64
 71 7 21 2 21 2 c 1xa4
 20 3 20 6 20 10 c 0
 20 20 21 29 25 29 c 0
 36 29 86 41 92 54 c 0
 106 83 111 110 118 147 c 2
 190 519 l 2
 196 552 203 590 201 612 c 0
 200 624 156 636 145 636 c 0
 144 636 143 637 143 640 c 0
 143 648 146 659 150 663 c 1x6c
 150 663 196 661 257 661 c 8
 321 661 379 663 420 663 c 3x34
418 619 m 3
 417 619 310 618 298 603 c 0
 280 581 277 557 271 524 c 2
 198 144 l 2
 194 125 194 75 197 68 c 0
 205 50 298 48 313 48 c 3
 487 48 596 233 596 419 c 0
 596 528 544 619 418 619 c 3
101 353 m 1
 130 353 432 353 446 353 c 0
 450 353 452 348 452 343 c 3
 452 337 450 322 446 313 c 1
 417 313 114 313 100 313 c 0
 96 313 95 321 95 326 c 3
 95 332 95 344 101 353 c 1
EndSplineSet
Validated: 37
EndChar

StartChar: multiply
Encoding: 215 215 148
Width: 394
Flags: W
HStem: 415 20G<96.5 100>
VStem: 163 76<227 265>
LayerCount: 2
Fore
SplineSet
24 60 m 0
 18 60 7 92 7 108 c 1
 161 243 l 2
 162 244 163 245 163 246 c 0
 163 248 163 250 162 251 c 2
 61 388 l 1
 61 402 94 435 99 435 c 0
 101 435 101 433 103 431 c 2
 207 290 l 2
 208 289 210 288 211 288 c 2
 211 288 212 288 213 289 c 26
 371 430 l 2
 373 432 375 433 377 433 c 0
 384 433 394 402 394 384 c 1
 241 248 l 2
 240 247 239 247 239 246 c 3
 239 245 239 245 240 244 c 2
 340 108 l 1
 340 94 314 60 307 60 c 0
 303 60 301 61 300 63 c 2
 197 203 l 2
 196 204 195 205 194 205 c 0
 193 205 191 204 190 203 c 2
 29 63 l 2
 27 61 26 60 24 60 c 0
EndSplineSet
Validated: 1
Substitution2: "'smcp' Lowercase to Small Capitals in Latin lookup 3-1" multiply.sc
EndChar

StartChar: Oslash
Encoding: 216 216 149
Width: 646
Flags: W
HStem: -10 43<265.592 422.291> 625 42<353.086 504.572>
LayerCount: 2
Fore
SplineSet
137 -13 m 17
 129 -10 110 4 115 10 c 9
 631 667 l 17
 639 665 659 651 654 645 c 9
 137 -13 l 17
430 625 m 0
 305 625 212 484 186 350 c 0
 156 195 199 33 343 33 c 0
 469 33 562 174 588 309 c 0
 618 464 574 625 430 625 c 0
89 328 m 0
 125 515 288 667 452 667 c 0
 616 667 720 515 684 328 c 0
 648 141 484 -10 320 -10 c 0
 156 -10 53 141 89 328 c 0
EndSplineSet
Validated: 37
EndChar

StartChar: Thorn
Encoding: 222 222 155
Width: 515
Flags: W
HStem: -3 29<49.9086 113.153 220.939 270.957> 128 43<252.235 373.337> 467 44<300.006 430.846> 633 29<171.356 224.104 334.093 396.091>
LayerCount: 2
Fore
SplineSet
389 511 m 0
 465 511 570 465 543 328 c 0
 529 254 444 128 314 128 c 0
 293 128 259 133 248 156 c 0
 246 160 249 184 253 182 c 0
 279 171 287 171 313 171 c 0
 374 171 439 236 454 313 c 0
 471 402 451 467 366 467 c 0
 344 467 314 465 300 460 c 0
 291 457 285 446 281 423 c 2
 226 139 l 2
 219 103 215 73 216 46 c 0
 217 35 265 26 272 26 c 0
 275 26 274 17 273 11 c 0
 272 6 270 0 268 -3 c 1
 231 -1 202 2 161 2 c 0
 118 2 92 -1 49 -3 c 1
 48 -1 47 6 48 12 c 0
 49 18 52 26 54 26 c 0
 65 26 113 34 120 46 c 1
 130 69 141 117 144 135 c 2
 220 523 l 2
 223 541 231 589 230 612 c 1
 228 624 183 633 172 633 c 0
 170 633 170 640 171 646 c 0
 172 652 176 660 178 662 c 1
 220 660 246 657 289 657 c 0
 330 657 359 660 397 662 c 1
 397 659 397 652 396 647 c 0
 395 641 393 633 390 633 c 0
 383 633 331 623 326 612 c 0
 316 589 307 555 301 524 c 0
 299 515 298 508 297 504 c 0
 296 499 297 497 299 497 c 0
 306 497 334 511 389 511 c 0
EndSplineSet
Validated: 33
EndChar

StartChar: germandbls
Encoding: 223 223 156
Width: 495
VWidth: 0
Flags: W
HStem: -234 39<-18.988 39.1086> 0 32<312.686 383.472> 361 46<98.3211 154.969> 656 38<318.859 422.811>
VStem: 272 57<311.464 379.289> 415 65<68.3547 179.181> 444 76<508.832 637.223>
LayerCount: 2
Fore
SplineSet
164 407 m 2xfa
 182 407 185 694 365 694 c 3
 437 694 520 660 520 581 c 0xfa
 520 493 434 441 399 419 c 0
 368 399 329 388 329 352 c 3
 329 325 360 303 387 280 c 0
 441 233 480 210 480 147 c 27
 480 68 419 0 340 0 c 3
 280 0 233 25 228 42 c 1
 233 74 244 100 272 100 c 3
 301 100 298 32 343 32 c 0
 403 32 415 102 415 125 c 0xfc
 415 172 370 202 340 229 c 0
 307 258 272 278 272 324 c 0
 272 369 295 385 362 435 c 0
 429 486 444 550 444 589 c 0
 444 634 409 656 356 656 c 3
 283 656 247 474 247 474 c 17
 165 46 l 2
 127 -154 75 -234 -7 -234 c 0
 -60 -234 -84 -208 -90 -191 c 1
 -86 -159 -74 -133 -51 -133 c 0
 -23 -133 -32 -195 12 -195 c 0
 55 -195 76 -74 92 9 c 2
 157 354 l 1
 157 356 l 2
 157 359 156 361 154 361 c 2
 89 361 l 2
 88 361 87 362 87 364 c 0
 87 374 112 407 135 407 c 2
 164 407 l 2xfa
EndSplineSet
Validated: 1
Substitution2: "'smcp' Lowercase to Small Capitals in Latin lookup 3-1" germandbls.sc
EndChar

StartChar: ae
Encoding: 230 230 163
Width: 560
VWidth: 0
Flags: W
HStem: -7 47<125.813 208.856> -4 60<355.759 432.438> 203 46<334.23 419.309> 398 38<203.664 302.229 415.898 518>
VStem: 40 79<45.5674 136.602> 87 75<286.714 341.763> 256 70<149.784 190.748> 286 48<255 356> 485 69<302.829 393.246>
LayerCount: 2
Fore
SplineSet
484 435 m 0xb580
 552 435 554 375 554 356 c 3
 554 272 399 203 337 203 c 0
 329 203 326 192 326 184 c 0
 326 91 363 56 403 56 c 3
 448 56 492 124 496 124 c 0
 497 124 505 110 506 102 c 1
 499 82 435 -4 374 -4 c 3x7680
 333 -4 286 31 269 75 c 1
 251 39 210 -7 138 -7 c 3
 96 -7 40 15 40 65 c 0xba80
 40 182 189 228 257 241 c 0
 262 242 265 244 268 257 c 2
 285 340 l 2
 286 343 286 352 286 356 c 3
 286 380 263 398 239 398 c 3
 205 398 171 365 162 316 c 0
 157 289 136 282 113 282 c 19
 102 282 87 282 87 295 c 0
 87 341 188 436 276 436 c 3
 327 436 350 416 354 381 c 1
 391 416 440 435 484 435 c 0xb580
248 145 m 2
 256 191 l 1
 128 167 119 110 119 90 c 0xba80
 119 63 136 40 162 40 c 11xb480
 215 40 241 108 248 145 c 2
460 394 m 3
 401 394 334 304 334 255 c 3x3180
 334 253 335 249 341 249 c 0
 380 249 485 283 485 352 c 3
 485 364 482 394 460 394 c 3
EndSplineSet
Validated: 1
Substitution2: "'smcp' Lowercase to Small Capitals in Latin lookup 3-1" ae.sc
EndChar

StartChar: eth
Encoding: 240 240 173
Width: 384
VWidth: 0
Flags: W
HStem: -7 39<176.275 260.392> 398 40<221.187 312.046> 664 24<190.44 201.628>
LayerCount: 2
Fore
SplineSet
194 509 m 17
 190 516 180 536 185 541 c 9
 435 705 l 17
 439 699 450 679 445 674 c 9
 194 509 l 17
182 664 m 1
 183 671 193 688 200 688 c 1
 340 649 461 496 413 250 c 0
 384 102 300 -7 210 -7 c 0
 88 -7 51 107 72 217 c 0
 93 325 179 438 285 438 c 0
 318 438 343 424 353 407 c 1
 355 487 327 588 182 664 c 1
334 217 m 0
 345 272 341 315 336 332 c 0
 325 367 306 398 267 398 c 0
 207 398 168 316 150 224 c 0
 131 126 158 32 211 32 c 0
 279 32 315 119 334 217 c 0
EndSplineSet
Validated: 37
Substitution2: "'smcp' Lowercase to Small Capitals in Latin lookup 3-1" eth.sc
EndChar

StartChar: divide
Encoding: 247 247 180
Width: 458
VWidth: 0
Flags: W
HStem: 4 100<158.312 222.658> 215 63<8.90406 448.135> 390 100<232.312 297.228>
VStem: 148 87<15.6658 94.1914> 222 88<401.666 480.191>
LayerCount: 2
Fore
SplineSet
273 490 m 27xe8
 294 490 310 471 310 450 c 27
 310 419 287 390 256 390 c 27
 234 390 222 412 222 434 c 27
 222 464 243 490 273 490 c 27xe8
199 104 m 27
 220 104 235 85 235 64 c 27
 235 33 213 4 182 4 c 27
 160 4 148 26 148 48 c 27xf0
 148 78 169 104 199 104 c 27
22 278 m 1
 452 278 l 2
 455 278 456 275 456 269 c 3
 456 255 447 228 435 215 c 1
 5 215 l 2
 2 215 0 218 0 224 c 3
 0 238 11 264 22 278 c 1
EndSplineSet
Validated: 1
Substitution2: "'smcp' Lowercase to Small Capitals in Latin lookup 3-1" divide.sc
EndChar

StartChar: oslash
Encoding: 248 248 181
Width: 391
VWidth: 0
Flags: W
HStem: -5 39<176.777 259.519> 397 38<216.928 298.741>
VStem: 69 74<76.1925 273.31> 333 74<157.19 334.603>
LayerCount: 2
Fore
SplineSet
97 0 m 17
 91 3 74 14 78 20 c 9
 386 419 l 17
 392 416 409 406 405 400 c 9
 97 0 l 17
143 172 m 0
 143 92 171 34 215 34 c 0
 287 34 333 166 333 259 c 0
 333 338 304 397 261 397 c 0
 189 397 143 265 143 172 c 0
69 163 m 0
 69 306 176 435 278 435 c 0
 356 435 407 365 407 267 c 0
 407 124 301 -5 199 -5 c 0
 121 -5 69 65 69 163 c 0
EndSplineSet
Validated: 5
Substitution2: "'smcp' Lowercase to Small Capitals in Latin lookup 3-1" oslash.sc
EndChar

StartChar: thorn
Encoding: 254 254 187
Width: 473
VWidth: 0
Flags: W
HStem: -227 28<-14.2249 30.1719 125.578 161.865> -15 42<182.474 303.837> 381 12<227 278>
VStem: 386 84<178.65 343.648>
LayerCount: 2
Fore
SplineSet
227 393 m 2
 227 393 292 437 329 438 c 1
 428 438 470 371 470 289 c 0
 470 157 364 -15 223 -15 c 0
 179 -15 165 -7 152 0 c 1
 152 0 150 -4 148 -12 c 2
 133 -87 l 2
 127 -118 120 -146 120 -172 c 2
 120 -177 l 2
 120 -188 155 -199 162 -199 c 0
 163 -199 163 -201 163 -203 c 0
 163 -210 160 -223 158 -227 c 1
 124 -225 107 -221 73 -221 c 27
 37 -221 18 -225 -18 -227 c 17
 -17 -222 -13 -199 -13 -199 c 1
 -3 -199 34 -188 39 -177 c 0
 52 -146 58 -122 65 -87 c 18
 186 539 l 18
 188 550 196 588 196 616 c 1
 195 637 142 629 142 634 c 0
 142 636 143 638 144 640 c 0
 144 642 149 656 153 656 c 0
 200 661 250 674 281 694 c 1
 283 694 l 2
 288 694 292 683 292 678 c 9
 292 678 274 646 264 591 c 2
 227 399 l 18
 227 398 226 396 226 394 c 0
 226 393 226 393 227 393 c 2
252 27 m 11
 340 27 386 182 386 265 c 0
 386 346 344 381 278 381 c 8
 250 381 219 360 213 326 c 2
 167 87 l 2
 166 84 166 82 166 79 c 0
 166 45 212 27 252 27 c 11
EndSplineSet
Validated: 1
Substitution2: "'smcp' Lowercase to Small Capitals in Latin lookup 3-1" thorn.sc
EndChar

StartChar: dagger
Encoding: 8224 8224 190
Width: 278
Flags: W
HStem: -10 21G<39 49 92.5 128.5> 371 51<6.34917 111.693 175.358 281.651>
VStem: -5 298
LayerCount: 2
Fore
SplineSet
170 371 m 2
 160 371 160 371 97 -10 c 1
 88 -6 76 -5 66 -5 c 0
 56 -5 45 -6 33 -10 c 1
 65 135 85 216 113 361 c 0
 114 366 113 371 108 371 c 2
 94 371 l 2
 59 371 34 368 -5 366 c 1
 1 385 6 412 7 427 c 1
 45 425 69 422 104 422 c 2
 118 422 l 2
 130 422 130 438 157 629 c 1
 168 627 178 625 188 625 c 0
 198 625 209 627 221 629 c 1
 173 433 166 422 180 422 c 2
 193 422 l 2
 228 422 254 425 293 427 c 1
 280 379 285 403 281 366 c 1
 243 368 218 371 183 371 c 2
 170 371 l 2
EndSplineSet
Validated: 33
Substitution2: "Ordinals-1" dagger.ordn
EndChar

StartChar: daggerdbl
Encoding: 8225 8225 191
Width: 307
Flags: W
HStem: -10 21G<66 81 119.5 139.5> 191 62<-0.670795 103.081 170.529 274.651> 379 51<35.3492 140.001 205.322 309.891>
VStem: -12 333
LayerCount: 2
Fore
SplineSet
-12 191 m 1
 -4 215 -3 222 0 253 c 1
 111 248 l 2
 120 248 120 248 142 370 c 0
 143 375 141 379 136 379 c 2
 123 379 l 2
 88 379 63 376 24 374 c 1
 30 393 35 420 36 435 c 1
 75 433 97 430 132 430 c 2
 146 430 l 2
 160 430 160 464 184 629 c 1
 195 627 205 625 215 625 c 0
 225 625 236 627 248 629 c 1
 203 441 196 430 209 430 c 2
 222 430 l 2
 257 430 282 433 321 435 c 1
 311 399 310 380 309 374 c 1
 270 376 247 379 212 379 c 2
 199 379 l 2
 191 379 192 381 174 292 c 0
 169 263 161 248 173 248 c 2
 286 253 l 1
 273 204 278 229 274 191 c 1
 163 197 l 1
 150 194 155 180 124 -10 c 1
 115 -6 103 -5 93 -5 c 0
 83 -5 72 -6 60 -10 c 1
 102 182 116 197 101 197 c 2
 -12 191 l 1
EndSplineSet
Validated: 33
Substitution2: "Ordinals-1" daggerdbl.ordn
EndChar

StartChar: bullet
Encoding: 8226 8226 192
Width: 376
Flags: W
HStem: 155 216<195.056 280.944>
VStem: 138 200
LayerCount: 2
Fore
SplineSet
138 263 m 0
 149 322 204 371 259 371 c 0
 314 371 349 322 338 263 c 0
 327 204 272 155 217 155 c 0
 162 155 127 204 138 263 c 0
EndSplineSet
Validated: 33
EndChar

StartChar: uni2010
Encoding: 8208 8208 193
Width: 290
VWidth: 0
Flags: W
VStem: 66 254<210.346 261>
LayerCount: 2
Fore
SplineSet
87 261 m 2
 314 273 l 2
 319 273 320 266 320 261 c 0
 320 248 307 211 297 210 c 10
 71 199 l 2
 68 199 66 206 66 214 c 0
 66 225 76 260 87 261 c 2
EndSplineSet
Validated: 1
EndChar

StartChar: uni2011
Encoding: 8209 8209 194
Width: 290
VWidth: 0
Flags: W
VStem: 66 254<210.346 261>
LayerCount: 2
Fore
SplineSet
87 261 m 2
 314 273 l 2
 319 273 320 266 320 261 c 0
 320 248 307 211 297 210 c 10
 71 199 l 2
 68 199 66 206 66 214 c 0
 66 225 76 260 87 261 c 2
EndSplineSet
Validated: 1
EndChar

StartChar: figuredash
Encoding: 8210 8210 195
Width: 440
Flags: W
HStem: 200 62<70.5 455.5>
LayerCount: 2
Fore
SplineSet
456 262 m 2
 460 262 462 256 462 249 c 0
 462 235 452 207 440 200 c 1
 70 200 l 2
 66 200 64 206 64 213 c 0
 64 227 74 255 86 262 c 1
 456 262 l 2
EndSplineSet
Validated: 1
EndChar

StartChar: endash
Encoding: 8211 8211 196
Width: 486
Flags: W
HStem: 200 62<70.5 501.5>
LayerCount: 2
Fore
SplineSet
502 262 m 6
 506 262 508 256 508 249 c 4
 508 235 498 207 486 200 c 5
 70 200 l 6
 66 200 64 206 64 213 c 4
 64 227 74 255 86 262 c 5
 502 262 l 6
EndSplineSet
Validated: 1
EndChar

StartChar: emdash
Encoding: 8212 8212 197
Width: 724
Flags: W
HStem: 200 62<70.5 737.5>
LayerCount: 2
Fore
SplineSet
738 262 m 6
 742 262 744 256 744 249 c 4
 744 235 734 207 722 200 c 5
 70 200 l 6
 66 200 64 206 64 213 c 4
 64 227 74 255 86 262 c 5
 738 262 l 6
EndSplineSet
Validated: 1
EndChar

StartChar: afii00208
Encoding: 8213 8213 198
Width: 1004
Flags: W
HStem: 200 62<70.5 1007.5>
LayerCount: 2
Fore
SplineSet
1008 262 m 2
 1012 262 1014 256 1014 249 c 0
 1014 235 1004 207 992 200 c 1
 70 200 l 6
 66 200 64 206 64 213 c 4
 64 227 74 255 86 262 c 5
 1008 262 l 2
EndSplineSet
Validated: 1
EndChar

StartChar: quoteleft
Encoding: 8216 8216 199
Width: 148
Flags: W
HStem: 482 224
VStem: 123 87<496.757 576.344>
LayerCount: 2
Fore
SplineSet
122 555 m 0
 140 649 246 706 254 706 c 0
 261 706 266 699 268 688 c 1
 205 652 187 606 185 597 c 0
 180 571 215 553 210 525 c 0
 205 501 171 482 141 482 c 0
 134 482 129 483 123 485 c 1
 117 498 117 530 122 555 c 0
EndSplineSet
Validated: 33
EndChar

StartChar: quoteright
Encoding: 8217 8217 200
Width: 148
Flags: W
HStem: 484 224
VStem: 174 86<609.555 694.012>
LayerCount: 2
Fore
SplineSet
260 635 m 0
 242 541 137 484 129 484 c 0
 122 484 116 491 114 502 c 1
 177 538 196 584 198 593 c 0
 203 619 169 637 174 665 c 0
 179 689 212 708 242 708 c 0
 249 708 254 707 260 705 c 1
 266 692 265 660 260 635 c 0
EndSplineSet
Validated: 33
EndChar

StartChar: quotesinglbase
Encoding: 8218 8218 201
Width: 148
Flags: W
HStem: -97 223
VStem: 60 87<31.6731 111.243>
LayerCount: 2
Fore
SplineSet
147 53 m 0
 129 -41 24 -97 16 -97 c 0
 9 -97 3 -91 1 -80 c 1
 64 -44 83 2 85 11 c 0
 90 37 55 55 60 83 c 0
 65 107 99 126 129 126 c 0
 136 126 141 125 147 123 c 1
 153 110 152 78 147 53 c 0
EndSplineSet
Validated: 33
EndChar

StartChar: quotedblleft
Encoding: 8220 8220 202
Width: 286
Flags: W
HStem: 482 224<256 261>
VStem: 123 87<496.757 576.344> 256 87<495.988 576.344>
LayerCount: 2
Fore
SplineSet
256 555 m 0
 274 649 379 706 387 706 c 0
 394 706 400 699 402 688 c 1
 339 652 320 606 318 597 c 0
 313 571 348 553 343 525 c 0
 338 501 305 482 275 482 c 0
 268 482 262 483 256 485 c 1
 250 498 251 530 256 555 c 0
122 555 m 0
 140 649 246 706 254 706 c 0
 261 706 266 699 268 688 c 1
 205 652 187 606 185 597 c 0
 180 571 215 553 210 525 c 0
 205 501 171 482 141 482 c 0
 134 482 129 483 123 485 c 1
 117 498 117 530 122 555 c 0
EndSplineSet
Validated: 33
EndChar

StartChar: quotedblright
Encoding: 8221 8221 203
Width: 287
Flags: W
HStem: 484 224<255 260>
VStem: 174 86<609.555 694.012> 307 86<609.555 694.012>
LayerCount: 2
Fore
SplineSet
394 635 m 0
 376 541 270 484 262 484 c 0
 255 484 250 491 248 502 c 1
 311 538 329 584 331 593 c 0
 336 619 302 637 307 665 c 0
 312 689 345 708 375 708 c 0
 382 708 387 707 393 705 c 1
 399 692 399 660 394 635 c 0
260 635 m 0
 242 541 137 484 129 484 c 0
 122 484 116 491 114 502 c 1
 177 538 196 584 198 593 c 0
 203 619 169 637 174 665 c 0
 179 689 212 708 242 708 c 0
 249 708 254 707 260 705 c 1
 266 692 265 660 260 635 c 0
EndSplineSet
Validated: 33
EndChar

StartChar: quotedblbase
Encoding: 8222 8222 204
Width: 286
Flags: W
HStem: -99 223
VStem: 60 87<31.6731 111.243> 193 87<25.5793 109.243>
LayerCount: 2
Fore
SplineSet
280 51 m 0
 262 -43 157 -99 149 -99 c 0
 142 -99 136 -93 134 -82 c 1
 197 -46 215 0 217 9 c 0
 222 35 188 53 193 81 c 0
 198 105 232 124 262 124 c 0
 269 124 274 123 280 121 c 1
 286 108 285 76 280 51 c 0
147 53 m 0
 129 -41 24 -97 16 -97 c 0
 9 -97 3 -91 1 -80 c 1
 64 -44 83 2 85 11 c 0
 90 37 55 55 60 83 c 0
 65 107 99 126 129 126 c 0
 136 126 141 125 147 123 c 1
 153 110 152 78 147 53 c 0
EndSplineSet
Validated: 33
EndChar

StartChar: onedotenleader
Encoding: 8228 8228 205
Width: 638
Flags: W
HStem: -14 116<295.976 364.375>
VStem: 277 108<6.4082 83.234>
LayerCount: 2
Fore
SplineSet
277 32 m 0
 277 69 308 102 341 102 c 0
 367 102 385 83 385 57 c 0
 385 20 352 -14 319 -14 c 0
 293 -14 277 6 277 32 c 0
EndSplineSet
Validated: 1
EndChar

StartChar: ellipsis
Encoding: 8230 8230 206
Width: 648
Flags: W
HStem: -14 116<63.9761 132.375 300.976 369.375 536 604.875>
VStem: 45 108<6.4082 83.234> 282 108<6.4082 83.234> 517 109<6.94324 83.5491>
LayerCount: 2
Fore
SplineSet
517 32 m 0
 517 70 549 102 582 102 c 0
 608 102 626 83 626 57 c 0
 626 20 592 -14 559 -14 c 0
 533 -14 517 6 517 32 c 0
282 32 m 0
 282 69 313 102 346 102 c 0
 372 102 390 83 390 57 c 0
 390 20 357 -14 324 -14 c 0
 298 -14 282 6 282 32 c 0
45 32 m 0
 45 69 76 102 109 102 c 0
 135 102 153 83 153 57 c 0
 153 20 120 -14 87 -14 c 0
 61 -14 45 6 45 32 c 0
EndSplineSet
Validated: 1
Ligature2: "'liga' Standard Ligatures in Latin lookup 0-1" period period period
EndChar

StartChar: perthousand
Encoding: 8240 8240 207
Width: 878
VWidth: 0
Flags: W
HStem: -8 28<361.061 431.221 678.061 748.221> 300 27<398.525 468.689 715.525 785.689> 338 28<149.061 219.221> 643 20G<595 606> 646 27<186.525 256.689>
VStem: 54 63<389.827 559.144> 266 63<43.8269 213.144> 284 65<451.145 624.049> 496 65<105.145 278.049> 583 63<43.8269 213.144> 813 65<105.145 278.049>
LayerCount: 2
Back
SplineSet
821 301 m 4xe4e0
 775 301 732 244 719 175 c 4
 718 171 717 167 716 163 c 4
 715.999 162.995 715.119 128.675 715.119 128.667 c 4
 715.119 65.3245 739.432 19 780 19 c 4
 858.4 19 876.717 154.585 878 161 c 6
 880 173 l 6
 880.672 181.291 881.006 189.331 881.006 197.072 c 4
 881.006 258.423 860.07 301 821 301 c 4xe4e0
651.27 121.948 m 4
 651.27 238.677 747.245 327 831 327 c 6
 839 327 l 5
 909.512 322.752 945.382 262.21 945.382 196.263 c 4
 945.382 184.584 944.257 172.735 942 161 c 5
 942 160 l 5
 923 62 845 -7 766 -7 c 6
 762 -7 l 5
 696.655 -5.28039 651.27 47.4484 651.27 121.948 c 4
696 650 m 5
 101 0 l 6
 96 -5 79 -12 67 -12 c 4
 53 -12 52 -3 51 -1 c 5
 645 650 l 6
 651 656 661 663 667 663 c 4xf4e0
 695 663 689 659 696 650 c 5
506 301 m 4
 460 301 417 244 404 175 c 4
 403 171 402 167 401 163 c 4xe5e0
 400.998 162.992 400.091 128.036 400.091 128.024 c 4
 400.091 65.0114 423.57 19 464 19 c 4
 523.4 19 549.879 95.3943 563 161 c 5
 565 173 l 6
 565.672 181.291 566.006 189.331 566.006 197.072 c 4
 566.006 258.423 545.07 301 506 301 c 4
335.323 122.452 m 4
 335.323 236.878 430.286 327 516 327 c 6
 523 327 l 5
 593.723 322.74 630.322 261.848 630.322 195.672 c 4
 630.322 184.184 629.219 172.538 627 161 c 5
 627 160 l 5
 608 62 530 -7 451 -7 c 6
 447 -7 l 5
 381.507 -5.27651 335.323 47.6866 335.323 122.452 c 4
252 366 m 4
 316.992 366 353.042 463.618 353.042 543.871 c 4
 353.042 604.792 332.9 647 294 647 c 4xeee0
 247.783 647 187.119 581.24 187.119 473.721 c 4
 187.119 410.699 211.432 366 252 366 c 4
123.27 468.516 m 4
 123.27 583.417 218.355 673 303 673 c 6
 311 673 l 5
 374.762 669.553 418.479 615.62 418.479 543.187 c 4
 418.479 531.558 417.352 519.451 415 507 c 5
 415 506 l 5
 396 408 317 338 238 338 c 6
 234 338 l 5
 168.655 339.72 123.27 394.666 123.27 468.516 c 4
EndSplineSet
Fore
SplineSet
755 300 m 3xe4e0
 692 300 646 210 646 132 c 27
 646 81 663 20 711 20 c 3
 774 20 813 116 813 195 c 27
 813 242 800 300 755 300 c 3xe4e0
765 327 m 3
 842 327 878 263 878 195 c 3
 878 99 797 -8 699 -8 c 3
 623 -8 583 55 583 123 c 3
 583 221 663 327 765 327 c 3
-3 -12 m 27
 -10 -12 -16 -9 -18 -1 c 9
 578 652 l 2
 582 656 590 663 600 663 c 27xf4e0
 612 663 623 660 627 650 c 9
 31 0 l 2
 27 -4 11 -12 -3 -12 c 27
438 300 m 3
 375 300 329 210 329 132 c 27xe6e0
 329 81 346 20 394 20 c 3
 457 20 496 116 496 195 c 27
 496 242 483 300 438 300 c 3
448 327 m 3
 525 327 561 263 561 195 c 3
 561 99 480 -8 382 -8 c 3
 306 -8 266 55 266 123 c 3
 266 221 346 327 448 327 c 3
226 646 m 3xede0
 163 646 117 556 117 478 c 27
 117 427 134 366 182 366 c 3
 245 366 284 462 284 541 c 27
 284 588 271 646 226 646 c 3xede0
236 673 m 3
 313 673 349 609 349 541 c 3
 349 445 268 338 170 338 c 3
 94 338 54 401 54 469 c 3
 54 567 134 673 236 673 c 3
EndSplineSet
Validated: 1
EndChar

StartChar: minute
Encoding: 8242 8242 208
Width: 141
Flags: W
HStem: 494 205
VStem: 64 73<620.949 687.628>
LayerCount: 2
Fore
SplineSet
117 699 m 0
 125 699 137 696 137 682 c 0
 137 642 69 541 43 502 c 0
 39 496 35 494 31 494 c 0
 25 494 21 499 22 506 c 0
 23 509 46 612 64 666 c 0
 68 678 99 699 117 699 c 0
EndSplineSet
Validated: 1
EndChar

StartChar: second
Encoding: 8243 8243 209
Width: 261
Flags: W
HStem: 494 205
VStem: 64 73<620.949 687.628> 186 71<618.641 687.628>
LayerCount: 2
Fore
SplineSet
238 699 m 0
 246 699 257 696 257 682 c 0
 257 642 192 544 164 502 c 0
 160 496 156 494 152 494 c 0
 146 494 141 499 142 506 c 0
 143 509 168 612 186 666 c 0
 190 678 220 699 238 699 c 0
117 699 m 0
 125 699 137 696 137 682 c 0
 137 642 69 541 43 502 c 0
 39 496 35 494 31 494 c 0
 25 494 21 499 22 506 c 0
 23 509 46 612 64 666 c 0
 68 678 99 699 117 699 c 0
EndSplineSet
Validated: 1
EndChar

StartChar: uni2038
Encoding: 8248 8248 210
Width: 375
Flags: W
HStem: -36 146
VStem: 75 219
LayerCount: 2
Fore
SplineSet
280 -36 m 0
 268 -36 222 11 196 47 c 1
 159 10 93 -36 81 -36 c 0
 76 -36 75 -28 75 -23 c 0
 75 -8 139 17 195 100 c 1
 199 108 201 110 206 110 c 0
 224 110 212 95 246 41 c 0
 258 21 293 -15 294 -18 c 1
 293 -22 286 -36 280 -36 c 0
EndSplineSet
Validated: 1
EndChar

StartChar: guilsinglleft
Encoding: 8249 8249 211
Width: 298
Flags: W
VStem: 87 253
LayerCount: 2
Fore
SplineSet
321 423 m 1
 337 418 340 412 340 407 c 0
 340 395 318 380 269 338 c 0
 243 316 191 266 170 247 c 1
 233 157 l 1
 268 109 277 103 277 94 c 0
 277 79 259 76 252 73 c 1
 251 75 209 132 91 227 c 0
 88 229 87 233 87 237 c 0
 87 244 91 259 100 268 c 1
 237 347 320 422 321 423 c 1
EndSplineSet
Validated: 1
EndChar

StartChar: guilsinglright
Encoding: 8250 8250 212
Width: 298
Flags: W
VStem: 58 250
LayerCount: 2
Fore
SplineSet
76 73 m 1
 60 78 58 84 58 88 c 0
 58 102 77 114 126 157 c 1
 225 247 l 1
 211 266 178 316 161 338 c 0
 124 386 117 394 117 400 c 0
 117 415 136 420 143 423 c 1
 144 421 197 347 303 268 c 1
 306 263 308 258 308 252 c 0
 308 241 304 230 296 227 c 1
 162 145 90 86 76 73 c 1
EndSplineSet
Validated: 1
EndChar

StartChar: uni203E
Encoding: 8254 8254 213
Width: 526
Flags: W
HStem: 739 62<134.5 688.5>
LayerCount: 2
Fore
SplineSet
689 801 m 2
 693 801 695 795 695 788 c 0
 695 774 685 746 673 739 c 1
 134 739 l 2
 130 739 128 745 128 752 c 0
 128 766 138 794 150 801 c 1
 689 801 l 2
EndSplineSet
Validated: 1
EndChar

StartChar: Euro
Encoding: 8364 8364 214
Width: 614
VWidth: 0
Flags: W
HStem: -4 41<246.231 444.863> 240 47<9.83978 67 155 360.15> 353 47<31.8398 83 185 382.15> 593 40<339.029 511.499>
VStem: 573 33<459.707 532.236>
LayerCount: 2
Fore
SplineSet
485 32 m 0
 441 4 373 -4 314 -4 c 0
 162 -4 73 114 67 240 c 1
 12 240 l 2
 9 240 7 245 7 250 c 0
 7 261 15 282 24 287 c 1
 69 287 l 1
 71 309 76 331 83 353 c 1
 34 353 l 2
 31 353 29 358 29 363 c 0
 29 374 37 395 46 400 c 1
 101 400 l 1
 158 524 279 633 424 633 c 0
 482 633 558 611 625 590 c 1
 625 590 608 482 606 473 c 0
 604 464 592 459 584 459 c 0
 578 459 575 459 573 461 c 1
 573 490 572 593 419 593 c 0
 330 593 233 514 185 400 c 1
 381 400 l 2
 384 400 385 395 385 390 c 0
 385 379 377 358 368 353 c 1
 168 353 l 1
 162 332 157 310 155 287 c 1
 359 287 l 2
 362 287 363 282 363 277 c 0
 363 266 355 245 346 240 c 1
 153 240 l 1
 155 128 210 37 333 37 c 0
 496 37 540 140 553 140 c 0
 557 140 572 126 572 117 c 1
 563 101 542 69 485 32 c 0
EndSplineSet
Validated: 1
EndChar

StartChar: arrowleft
Encoding: 8592 8592 215
Width: 672
Flags: W
HStem: 216 62<119 653.5>
LayerCount: 2
Fore
SplineSet
183 335 m 10
 119 278 l 25
 654 278 l 18
 658 278 660 272 660 265 c 0
 660 251 650 223 638 216 c 1
 109 216 l 1
 109 216 133 179 150 157 c 16
 189 106 193 105 193 94 c 0
 193 84 176 76 169 73 c 1
 168 75 126 132 8 227 c 0
 5 229 4 233 4 237 c 0
 4 244 8 259 17 268 c 1
 154 347 237 422 238 423 c 1
 250 419 258 413 256 404 c 1
 256 394 251 396 183 335 c 10
EndSplineSet
Validated: 1
EndChar

StartChar: arrowup
Encoding: 8593 8593 216
Width: 315
Flags: W
VStem: 0 326
LayerCount: 2
Fore
SplineSet
152 556 m 1
 86 499 l 1
 19 439 20 438 13 438 c 0
 1 438 2 456 0 461 c 1
 2 462 67 520 184 667 c 0
 187 672 192 674 198 674 c 0
 207 674 216 673 222 666 c 1
 270 535 325 461 326 460 c 1
 320 446 312 437 304 437 c 0
 292 437 297 440 248 505 c 2
 210 555 l 1
 99 -21 l 2
 98 -24 93 -28 86 -28 c 0
 71 -28 47 -21 41 -13 c 1
 152 556 l 1
EndSplineSet
Validated: 1
EndChar

StartChar: arrowright
Encoding: 8594 8594 217
Width: 676
Flags: W
HStem: 217 62<13.5 549>
LayerCount: 2
Fore
SplineSet
549 217 m 1
 13 217 l 2
 9 217 7 223 7 230 c 0
 7 244 17 272 29 279 c 1
 563 279 l 1
 520 339 l 1
 473 401 477 387 477 404 c 1
 480 417 497 420 502 423 c 1
 503 421 544 363 662 268 c 0
 665 266 666 263 666 259 c 0
 666 253 663 236 654 227 c 1
 517 148 433 74 432 73 c 1
 420 77 413 82 415 91 c 1
 415 100 420 100 491 164 c 2
 549 217 l 1
EndSplineSet
Validated: 33
EndChar

StartChar: arrowdown
Encoding: 8595 8595 218
Width: 313
Flags: W
VStem: -10 325
LayerCount: 2
Fore
SplineSet
105 90 m 1
 217 667 l 2
 218 671 223 673 230 673 c 0
 244 673 266 666 274 658 c 1
 164 89 l 1
 230 146 l 1
 296 206 289 207 303 207 c 0
 315 207 313 189 315 184 c 1
 313 183 248 125 131 -22 c 0
 128 -27 123 -29 117 -29 c 0
 108 -29 99 -27 93 -20 c 1
 45 111 -9 184 -10 185 c 1
 -4 199 3 208 11 208 c 0
 22 208 17 206 68 138 c 1
 105 90 l 1
EndSplineSet
Validated: 1
EndChar

StartChar: summation
Encoding: 8721 8721 219
Width: 551
Flags: W
HStem: 2 45<101.007 427.802> 2 29<-11.5762 19.3586> 627 31<111.579 136.204>
VStem: 530 29<523.096 586.903>
LayerCount: 2
Fore
SplineSet
414 616 m 2x70
 414 616 324 617 298 617 c 0
 265 617 237 615 234 607 c 1
 361 358 l 1
 363 346 362 335 354 327 c 0
 317 291 101 87 101 57 c 0
 101 51 110 47 169 47 c 0xb0
 201 47 237 48 268 48 c 0
 303 48 392 51 422 66 c 0
 442 76 469 109 494 162 c 0
 496 166 501 168 508 168 c 0
 517 168 529 165 531 162 c 1
 503 108 463 40 448 -4 c 1
 347 -4 184 2 99 2 c 0
 37 2 -12 -3 -12 -3 c 1
 -13 -2 -13 1 -13 5 c 0
 -13 13 -9 31 -6 31 c 0
 4 31 28 51 39 63 c 2
 278 317 l 2
 280 320 281 323 279 327 c 0
 271 347 204 490 152 592 c 0
 143 609 121 627 110 627 c 0
 107 627 107 649 116 658 c 1
 116 658 162 656 224 656 c 0
 310 656 458 664 559 664 c 1
 558 648 558 632 558 617 c 0
 558 587 559 558 559 528 c 1
 556 525 549 523 542 523 c 0
 535 523 530 525 530 530 c 0
 527 587 505 602 497 607 c 0
 483 615 447 616 414 616 c 2x70
EndSplineSet
Validated: 1
EndChar

StartChar: minus
Encoding: 8722 8722 220
Width: 495
Flags: W
HStem: 218 56<29.0384 462.765>
LayerCount: 2
Fore
SplineSet
21 228 m 1
 21 228 34 274 43 274 c 2
 468 274 l 2
 471 274 473 274 473 269 c 0
 473 265 464 242 456 224 c 0
 453 218 449 218 449 218 c 1
 25 218 l 1
 25 218 19 218 21 228 c 1
EndSplineSet
Validated: 1
EndChar

StartChar: uni2213
Encoding: 8723 8723 221
Width: 489
Flags: W
HStem: 221 57<13.1421 187.953 259 440.358> 522 57<65.1088 492.536>
LayerCount: 2
Fore
SplineSet
496 579 m 1
 496 579 502 579 502 572 c 0
 502 571 502 569 501 567 c 0
 485 519 480 525 477 522 c 1
 61 522 l 1
 61 522 53 522 58 536 c 0
 70 572 73 579 79 579 c 2
 496 579 l 1
243 218 m 2
 206 26 l 1
 206 26 204 16 161 10 c 0
 158 10 157 9 155 9 c 0
 148 9 151 13 152 17 c 2
 191 216 l 2
 191 218 191 221 186 221 c 2
 1 221 l 1
 1 221 -3 221 -3 227 c 0
 -3 236 11 267 13 272 c 0
 16 278 21 278 21 278 c 1
 198 278 l 2
 201 278 204 281 204 283 c 2
 241 473 l 1
 241 473 241 478 247 480 c 0
 271 487 282 488 286 488 c 0
 295 488 295 482 295 482 c 1
 256 282 l 2
 255 279 256 278 259 278 c 2
 445 278 l 2
 448 278 451 278 451 274 c 0
 451 265 435 232 433 227 c 0
 430 221 425 221 425 221 c 1
 248 221 l 2
 245 221 243 220 243 218 c 2
EndSplineSet
Validated: 1
EndChar

StartChar: radical
Encoding: 8730 8730 222
Width: 555
Flags: W
LayerCount: 2
Fore
SplineSet
5 168 m 1
 -6 174 -11 181 -11 185 c 0
 -11 193 8 203 14 206 c 0
 51 226 135 279 150 291 c 0
 159 298 173 298 174 290 c 0
 175 257 183 226 184 221 c 2
 244 -31 l 1
 536 791 l 1
 570 791 l 1
 233 -153 l 1
 216 -171 205 -173 199 -173 c 0
 195 -173 190 -172 190 -168 c 2
 101 220 l 1
 5 168 l 1
EndSplineSet
Validated: 1
EndChar

StartChar: proportional
Encoding: 8733 8733 223
Width: 602
Flags: W
HStem: 41 56<113.349 218.342 511.398 535.02> 362 60<154.187 265.185 548.845 605.125>
VStem: 15 67<129.239 277.844>
LayerCount: 2
Fore
SplineSet
215 362 m 0
 138 362 82 269 82 198 c 0
 82 142 115 97 170 97 c 0
 231 97 294 172 343 218 c 0
 344 219 345 219 344 220 c 0
 321 259 280 362 215 362 c 0
602 419 m 1
 604 415 606 405 606 401 c 0
 606 388 605 367 596 367 c 0
 539 367 466 286 426 246 c 0
 425 245 424 244 425 243 c 0
 457 185 493 100 557 100 c 0
 575 100 540 47 528 43 c 1
 406 43 369 180 359 180 c 2
 358 180 l 1
 296 117 226 41 134 41 c 0
 59 41 15 104 15 182 c 0
 15 308 125 422 238 422 c 0
 328 422 377 334 406 286 c 0
 407 284 410 283 411 285 c 0
 455 332 524 404 602 419 c 1
EndSplineSet
Validated: 33
EndChar

StartChar: infinity
Encoding: 8734 8734 224
Width: 771
Flags: W
HStem: 43 57<110.45 221.894 504.794 615.388> 362 60<154.472 265.588 550.184 658.059>
VStem: 15 67<129.307 278.512> 685 69<185.93 333.226>
LayerCount: 2
Fore
SplineSet
595 367 m 0
 538 367 466 286 426 246 c 0
 425 245 424 244 425 243 c 0
 457 185 493 100 557 100 c 0
 634 100 685 197 685 264 c 0
 685 322 651 367 595 367 c 0
216 362 m 0
 145 362 82 279 82 199 c 0
 82 142 116 97 171 97 c 0
 232 97 295 172 344 218 c 0
 345 219 345 219 344 220 c 0
 321 259 281 362 216 362 c 0
238 422 m 0
 328 422 377 334 406 286 c 0
 407 284 411 283 412 285 c 0
 461 338 541 422 631 422 c 0
 707 422 754 359 754 281 c 0
 754 156 641 43 527 43 c 0
 405 43 369 180 359 180 c 2
 358 180 l 1
 296 117 225 41 134 41 c 0
 59 41 15 104 15 182 c 0
 15 308 125 422 238 422 c 0
EndSplineSet
Validated: 1
EndChar

StartChar: notequal
Encoding: 8800 8800 225
Width: 479
Flags: W
HStem: 117 56<12.2782 140 228 435.122> 259 56<47.1421 241 330 463.358>
LayerCount: 2
Fore
SplineSet
330 315 m 1
 468 315 l 2
 471 315 474 316 474 312 c 0
 474 303 458 270 456 265 c 0
 453 259 449 259 449 259 c 1
 289 259 l 1
 228 173 l 1
 440 173 l 2
 444 173 447 175 446 168 c 0
 444 159 438 145 428 123 c 0
 425 117 422 117 422 117 c 1
 188 117 l 1
 115 13 l 1
 115 13 115 11 111 11 c 0
 108 11 92 15 83 31 c 0
 80 35 84 38 84 38 c 1
 140 117 l 1
 8 117 l 1
 8 117 3 117 3 124 c 0
 3 130 7 140 20 168 c 0
 23 174 27 173 27 173 c 1
 180 173 l 1
 241 259 l 1
 35 259 l 1
 35 259 29 259 31 269 c 0
 32 273 36 286 47 310 c 0
 50 316 55 315 55 315 c 1
 280 315 l 1
 345 406 l 1
 345 406 345 409 349 409 c 0
 354 409 366 406 375 391 c 0
 379 386 376 381 376 381 c 1
 330 315 l 1
EndSplineSet
Validated: 1
EndChar

StartChar: lessequal
Encoding: 8804 8804 226
Width: 448
Flags: W
HStem: 6 56<-1.33578 362.644>
LayerCount: 2
Fore
SplineSet
13 62 m 1
 365 62 l 2
 368 62 369 59 369 53 c 3
 369 39 360 19 348 6 c 1
 -4 6 l 2
 -7 6 -9 9 -9 15 c 3
 -9 29 2 48 13 62 c 1
446 529 m 17
 450 524 459 505 459 488 c 27
 459 483 458 477 454 475 c 2
 118 310 l 1
 394 142 l 1
 394 124 376 87 370 87 c 0
 369 87 368 87 366 88 c 2
 55 279 l 2
 47 284 44 292 44 302 c 0
 44 327 55 336 67 342 c 2
 446 529 l 17
EndSplineSet
Validated: 1
EndChar

StartChar: greaterequal
Encoding: 8805 8805 227
Width: 432
Flags: W
HStem: 6 56<1.66422 365.644>
LayerCount: 2
Fore
SplineSet
16 62 m 1
 368 62 l 2
 371 62 372 59 372 53 c 3
 372 39 363 19 351 6 c 1
 -1 6 l 2
 -4 6 -6 9 -6 15 c 3
 -6 29 5 48 16 62 c 1
24 88 m 17
 18 96 11 125 11 134 c 0
 11 138 13 140 17 142 c 2
 358 310 l 1
 87 475 l 1
 87 500 103 530 109 530 c 0
 111 530 113 530 115 529 c 2
 422 342 l 2
 429 338 434 331 434 322 c 0
 434 320 433 290 410 279 c 2
 24 88 l 17
EndSplineSet
Validated: 1
EndChar

StartChar: partialdiff
Encoding: 8706 8706 228
Width: 403
Flags: W
HStem: 0 36<108.36 200.37> 330 37<153.531 260.441> 592 42<157.17 277.394>
VStem: 7 72<60.087 229.351> 334 61<341.586 530.184>
LayerCount: 2
Fore
SplineSet
201 330 m 0
 145 330 79 255 79 149 c 0
 79 109 85 36 154 36 c 0
 242 36 298 192 298 238 c 0
 298 290 259 330 201 330 c 0
334 430 m 4
 334 485 315 592 211 592 c 4
 177 592 143 578 108 552 c 5
 107 555 101 560 103 568 c 4
 106 581 160 634 243 634 c 4
 341 634 395 537 395 414 c 4
 395 286 341 0 123 0 c 0
 46 0 7 59 7 132 c 0
 7 227 79 367 221 367 c 0
 269 367 314 339 318 339 c 0
 331 339 334 410 334 430 c 4
EndSplineSet
Validated: 1
EndChar

StartChar: gravecomb
Encoding: 768 768 229
Width: 228
Flags: W
HStem: 541 144
VStem: 165 177
LayerCount: 2
Fore
SplineSet
329 541 m 0
 314 541 165 625 165 657 c 0
 165 680 201 685 214 685 c 0
 223 685 231 683 234 680 c 0
 245 668 342 567 342 559 c 0
 342 551 334 541 329 541 c 0
EndSplineSet
Validated: 1
EndChar

StartChar: acutecomb
Encoding: 769 769 230
Width: 216
Flags: W
HStem: 541 143
VStem: 157 180
LayerCount: 2
Fore
SplineSet
164 541 m 0
 162 541 157 547 157 553 c 0
 157 561 229 646 272 679 c 0
 277 682 288 684 298 684 c 0
 314 684 337 680 337 660 c 0
 337 625 172 541 164 541 c 0
EndSplineSet
Validated: 1
EndChar

StartChar: uni0302
Encoding: 770 770 231
Width: 390
Flags: W
HStem: 706 131
VStem: 238 212
LayerCount: 2
Fore
SplineSet
437 706 m 0
 426 706 376 743 351 764 c 1
 318 741 255 706 244 706 c 0
 237 706 237 722 238 726 c 1
 244 732 272 754 300 777 c 4
 321 794 342 813 354 828 c 0
 360 834 361 837 365 837 c 0
 368 837 370 834 374 828 c 0
 379 820 386 806 402 784 c 0
 424 755 450 729 450 726 c 0
 448 718 443 706 437 706 c 0
EndSplineSet
Validated: 1
EndChar

StartChar: tildecomb
Encoding: 771 771 232
Width: 270
Flags: W
HStem: 714 51<335.388 421.342> 767 51<208.113 294.156>
VStem: 169 289<729 800>
LayerCount: 2
Fore
SplineSet
262 818 m 0
 317 818 339 765 394 765 c 0
 417 765 450 809 454 809 c 0
 457 809 458 805 458 800 c 0
 458 777 423 714 368 714 c 0
 312 714 291 767 235 767 c 0
 212 767 180 723 174 723 c 0
 170 723 169 725 169 729 c 0
 169 758 210 818 262 818 c 0
EndSplineSet
Validated: 1
EndChar

StartChar: dotlessi
Encoding: 305 305 233
Width: 216
VWidth: 0
Flags: W
HStem: -6 58<87 152.967> 377 58<61.0232 127>
VStem: 50 69<52.1725 203.477> 96 69<224.411 375.988>
LayerCount: 2
Fore
SplineSet
165 363 m 4xd0
 165 318 119 117 119 89 c 4
 119 61 130 52 141 52 c 4
 162 52 202 125 206 125 c 4
 207 125 215 111 216 103 c 5
 209 83 157 -6 106 -6 c 7
 68 -6 50 20 50 67 c 4xe0
 50 85 52 105 57 128 c 6
 93 308 l 6
 94 315 96 331 96 336 c 4
 96 358 87 377 68 377 c 7
 51 377 13 304 9 304 c 4
 8 304 -1 318 -2 326 c 5
 5 346 57 435 108 435 c 7
 146 435 165 410 165 363 c 4xd0
EndSplineSet
Validated: 1
Substitution2: "'smcp' Lowercase to Small Capitals in Latin lookup 3-1" dotlessi.sc
EndChar

StartChar: uniF100
Encoding: 61696 61696 234
Width: 577
VWidth: 0
Flags: W
HStem: -233 41<-36.9001 30.5049> -224 59<153.393 255.199> 361 46<106.321 162.516 248.59 418.609 504.552 623.597> 645 38<355.352 466> 661 38<590.607 689>
LayerCount: 2
Fore
SplineSet
430 683 m 0xb0
 484 683 526 666 540 653 c 1
 564 676 622 699 662 699 c 0
 716 699 736 680 744 665 c 1
 744 633 737 600 708 600 c 0
 675 600 664 661 631 661 c 0
 544 661 506 438 502 413 c 0
 502 412 502 411 502 411 c 0
 502 409 503 407 505 407 c 2
 620 407 l 2
 624 407 625 400 625 395 c 27
 625 381 619 369 614 361 c 1
 497 361 l 2
 494 361 492 361 491 353 c 2
 448 106 l 0
 400 -140 249 -224 184 -224 c 0x68
 130 -224 98 -189 88 -175 c 1
 53 -215 6 -233 -34 -233 c 0
 -88 -233 -109 -206 -117 -191 c 1
 -117 -166 -106 -131 -77 -131 c 0
 -44 -131 -47 -192 -4 -192 c 0
 41 -192 92 -73 103 -10 c 0
 107 12 108 21 112 46 c 0
 165 354 l 1
 165 356 l 2
 165 359 164 361 162 361 c 2
 97 361 l 2
 96 361 95 362 95 364 c 0
 95 374 120 407 143 407 c 2
 172 407 l 2
 175 407 177 412 178 416 c 0
 210 580 336 683 430 683 c 0xb0
212 -165 m 0
 289 -165 336 -102 370 60 c 0
 421 354 l 1
 421 356 l 2
 421 359 420 361 418 361 c 1
 241 361 l 2
 238 361 236 361 235 353 c 2
 180 43 l 0
 168 -19 157 -59 135 -103 c 0
 134 -104 134 -106 134 -108 c 24
 134 -111 135 -115 135 -116 c 0
 139 -136 169 -165 212 -165 c 0
409 645 m 0x30
 332 645 275 561 253 454 c 0
 249 432 250 438 246 413 c 0
 246 412 246 411 246 411 c 0
 246 409 247 407 250 407 c 2
 428 407 l 2
 431 407 433 412 434 416 c 0
 446 478 471 551 489 584 c 0
 490 585 490 587 490 589 c 24
 490 592 489 596 489 597 c 0
 485 617 452 645 409 645 c 0x30
EndSplineSet
Validated: 1
LCarets2: 1 0 
Ligature2: "'liga' Standard Ligatures in Latin lookup 0-1" f f
EndChar

StartChar: uniF101
Encoding: 61697 61697 235
Width: 643
VWidth: 0
Flags: W
HStem: -231 39<38.124 130.85> -6 58<510 575.967> 361 46<206.321 263.125 348.915 512.016> 366 52<354.341 511.056> 661 38<436.677 510.811>
VStem: 473 69<52.3383 159.124>
LayerCount: 2
Fore
SplineSet
506 699 m 0xec
 560 699 577 686 592 672 c 0
 608 657 618 644 624 630 c 1
 624 602 610 566 579 566 c 27
 557 566 547 584 536 603 c 0
 522 628 507 661 470 661 c 0
 434 661 383 591 353 450 c 0
 351 438 348 426 346 413 c 0
 346 412 346 411 346 411 c 0
 346 409 347 407 349 407 c 0xec
 373 407 472 410 490 412 c 0
 511 414 574 418 576 418 c 3
 580 418 590 410 590 401 c 3
 590 396 586 360 583 339 c 0
 578 300 549 150 543 101 c 4
 542 96 542 92 542 89 c 0
 542 61 553 52 564 52 c 0
 585 52 625 125 629 125 c 0
 630 125 638 111 639 103 c 1
 632 83 580 -6 529 -6 c 3
 491 -6 473 20 473 67 c 0
 473 85 476 105 480 128 c 2
 511 293 l 2
 512 300 514 316 514 321 c 0
 514 343 507 366 488 366 c 8xdc
 431 366 341 361 341 361 c 2
 338 361 336 361 335 353 c 2
 280 54 l 2
 246 -142 151 -231 64 -231 c 0
 13 -231 -11 -207 -17 -190 c 1
 -18 -160 0 -131 24 -131 c 0
 51 -131 56 -192 98 -192 c 0
 153 -192 195 -42 205 15 c 2
 265 354 l 1
 265 356 l 2
 265 359 264 361 262 361 c 2
 197 361 l 2
 196 361 195 362 195 364 c 0
 195 374 220 407 243 407 c 2
 272 407 l 2
 275 407 277 412 278 416 c 0
 305 582 406 699 506 699 c 0xec
EndSplineSet
Validated: 33
LCarets2: 1 0 
Ligature2: "'liga' Standard Ligatures in Latin lookup 0-1" f i
EndChar

StartChar: uniF102
Encoding: 61698 61698 236
Width: 806
VWidth: 0
Flags: W
HStem: -233 41<-34.9001 32.5049> -224 47<153.483 254.45> -6 58<673 738.967> 361 46<108.321 164.516 250.59 420.609 506.584 675.016> 645 38<357.352 468> 661 38<592.988 673.811>
VStem: 636 69<52.1725 209.438>
LayerCount: 2
Fore
SplineSet
137 -116 m 0x72
 141 -136 154 -177 197 -177 c 0
 255 -177 338 -102 372 60 c 0
 423 354 l 1
 423 356 l 2
 423 359 422 361 420 361 c 1
 243 361 l 2
 240 361 238 361 237 353 c 2
 182 43 l 0
 170 -19 159 -59 137 -103 c 0
 136 -104 136 -106 136 -108 c 24
 136 -111 137 -115 137 -116 c 0x72
669 699 m 0x36
 723 699 740 686 755 672 c 0
 771 657 781 644 787 630 c 1
 787 602 773 566 742 566 c 27
 720 566 710 584 699 603 c 0
 685 628 670 661 633 661 c 0
 547 661 508 438 504 413 c 0
 504 412 504 411 504 411 c 0
 504 409 505 407 507 407 c 2
 653 412 l 0
 674 414 737 418 739 418 c 3
 743 418 753 410 753 401 c 3
 753 396 749 360 746 339 c 0
 740 296 705 117 705 89 c 0
 705 61 716 52 727 52 c 0
 748 52 788 125 792 125 c 0
 793 125 801 111 802 103 c 1
 795 83 743 -6 692 -6 c 3
 654 -6 636 20 636 67 c 0
 636 85 639 105 643 128 c 2
 674 293 l 2
 675 300 677 316 677 321 c 0
 677 343 670 366 651 366 c 0
 499 361 l 2
 496 361 494 361 493 353 c 2
 450 106 l 0
 402 -140 251 -224 186 -224 c 0x76
 132 -224 100 -189 90 -175 c 1
 55 -215 8 -233 -32 -233 c 0
 -86 -233 -107 -206 -115 -191 c 1
 -115 -166 -104 -131 -75 -131 c 0
 -42 -131 -45 -192 -2 -192 c 0
 43 -192 94 -73 105 -10 c 0
 109 12 110 21 114 46 c 0
 167 354 l 1
 167 356 l 2
 167 359 166 361 164 361 c 2
 99 361 l 2
 98 361 97 362 97 364 c 0
 97 374 122 407 145 407 c 2
 174 407 l 2
 177 407 179 412 180 416 c 0
 212 580 338 683 432 683 c 0xba
 486 683 528 666 542 653 c 1
 566 676 630 699 669 699 c 0x36
411 645 m 0x3a
 334 645 277 561 255 454 c 0
 251 432 252 438 248 413 c 0
 248 412 248 411 248 411 c 0
 248 409 249 407 252 407 c 2
 430 407 l 2
 433 407 435 412 436 416 c 0
 448 478 473 551 491 584 c 0
 492 585 492 587 492 589 c 24
 492 592 491 596 491 597 c 0
 487 617 454 645 411 645 c 0x3a
EndSplineSet
Validated: 1
LCarets2: 2 0 0 
Ligature2: "'liga' Standard Ligatures in Latin lookup 0-1" f f i
EndChar

StartChar: uniF103
Encoding: 61699 61699 237
Width: 671
VWidth: 0
Flags: W
HStem: -231 39<38.124 130.85> -6 58<523 588.967> 361 46<206.321 263.125 348.684 467.597> 661 38<440.135 550.012>
VStem: 486 69<52.1725 206.383>
LayerCount: 2
Fore
SplineSet
506 699 m 0
 560 699 589 678 601 678 c 0
 623 678 664 694 674 694 c 1
 679 694 679 682 679 678 c 9
 679 678 660 646 649 591 c 10
 556 106 l 2
 555 102 555 94 555 89 c 0
 555 61 566 52 577 52 c 0
 598 52 638 125 642 125 c 0
 643 125 651 111 652 103 c 1
 645 83 593 -6 542 -6 c 3
 504 -6 486 20 486 67 c 0
 486 85 488 105 493 128 c 1
 497 155 546 399 580 577 c 0
 581 581 581 585 581 589 c 3
 581 632 535 661 488 661 c 0
 422 661 374 579 346 413 c 0
 346 412 346 411 346 411 c 0
 346 409 348 407 349 407 c 2
 464 407 l 2
 468 407 469 400 469 395 c 27
 469 381 463 369 458 361 c 1
 341 361 l 2
 339 361 336 361 335 353 c 2
 280 54 l 2
 246 -142 151 -231 64 -231 c 0
 13 -231 -11 -207 -17 -190 c 1
 -18 -160 0 -131 24 -131 c 0
 51 -131 56 -192 98 -192 c 0
 153 -192 195 -42 205 15 c 2
 265 354 l 1
 265 356 l 2
 265 359 264 361 262 361 c 2
 197 361 l 2
 196 361 195 362 195 364 c 0
 195 374 220 407 243 407 c 2
 272 407 l 2
 275 407 277 412 278 416 c 0
 305 582 406 699 506 699 c 0
EndSplineSet
Validated: 33
LCarets2: 1 0 
Ligature2: "'liga' Standard Ligatures in Latin lookup 0-1" f l
EndChar

StartChar: uniF104
Encoding: 61700 61700 238
Width: 825
VWidth: 0
Flags: W
HStem: -233 41<-43.9001 23.5049> -224 47<144.483 245.527> -6 58<677 742.967> 361 46<99.3211 155.516 241.59 411.609 502.684 621.597> 645 38<348.352 459> 661 38<593.186 704.012>
VStem: 640 69<52.1725 206.383>
LayerCount: 2
Fore
SplineSet
441 106 m 2x36
 394 -140 242 -224 177 -224 c 0x76
 123 -224 91 -189 81 -175 c 1
 46 -215 -1 -233 -41 -233 c 0
 -95 -233 -116 -206 -124 -191 c 1
 -124 -166 -113 -131 -84 -131 c 0
 -51 -131 -54 -192 -11 -192 c 0
 34 -192 85 -73 96 -10 c 0
 100 12 101 21 105 46 c 0
 158 354 l 1
 158 356 l 2
 158 359 157 361 155 361 c 2
 90 361 l 2
 89 361 88 362 88 364 c 0
 88 374 113 407 136 407 c 2
 165 407 l 2
 168 407 170 412 171 416 c 0
 203 580 329 683 423 683 c 0xba
 477 683 519 666 533 653 c 1
 557 676 621 699 660 699 c 0
 714 699 743 678 755 678 c 0
 777 678 818 694 828 694 c 1
 833 694 833 682 833 678 c 9
 833 678 814 646 803 591 c 10
 710 106 l 2
 709 102 709 94 709 89 c 0
 709 61 720 52 731 52 c 0
 752 52 792 125 796 125 c 0
 797 125 805 111 806 103 c 1
 799 83 747 -6 696 -6 c 3
 658 -6 640 20 640 67 c 0
 640 85 642 105 647 128 c 1
 651 155 700 399 734 577 c 0
 735 581 735 585 735 589 c 3
 735 632 689 661 642 661 c 0
 576 661 528 579 500 413 c 0
 500 412 500 411 500 411 c 0
 500 409 502 407 503 407 c 2
 618 407 l 2
 622 407 623 400 623 395 c 27
 623 381 617 369 612 361 c 1
 495 361 l 2
 493 361 491 361 489 353 c 2
 441 106 l 2x36
188 -177 m 0
 246 -177 329 -102 363 60 c 0
 414 354 l 1
 414 356 l 2
 414 359 413 361 411 361 c 1
 234 361 l 2
 231 361 229 361 228 353 c 2
 173 43 l 0
 161 -19 150 -59 128 -103 c 0
 127 -104 127 -106 127 -108 c 24
 127 -111 128 -115 128 -116 c 0
 132 -136 145 -177 188 -177 c 0
402 645 m 0x3a
 325 645 268 561 246 454 c 0
 242 432 243 438 239 413 c 0
 239 412 239 411 239 411 c 0
 239 409 240 407 243 407 c 2
 421 407 l 2
 424 407 426 412 427 416 c 0
 439 478 464 551 482 584 c 0
 483 585 483 587 483 589 c 24
 483 592 482 596 482 597 c 0
 478 617 445 645 402 645 c 0x3a
EndSplineSet
Validated: 1
LCarets2: 2 0 0 
Ligature2: "'liga' Standard Ligatures in Latin lookup 0-1" f f l
EndChar

StartChar: uniF105
Encoding: 61701 61701 239
Width: 859
VWidth: 0
Flags: W
HStem: -231 39<38.124 130.85> -7 50<563.147 650.095> 361 46<206.321 263.125 348.684 467.597> 373 62<714.369 802.5> 661 38<440.135 550.012>
VStem: 493 65<47.7275 206.608> 773 78<235.477 370.582>
LayerCount: 2
Fore
SplineSet
851 327 m 3xde
 851 201 695 -7 581 -7 c 3
 518 -7 493 34 493 79 c 3
 493 99 495 134 502 168 c 2
 580 577 l 2
 581 582 581 585 581 589 c 3
 581 632 535 661 488 661 c 0
 422 661 374 579 346 413 c 0
 346 412 346 411 346 411 c 0
 346 409 348 407 349 407 c 2
 464 407 l 2
 468 407 469 400 469 395 c 27
 469 381 463 369 458 361 c 1
 341 361 l 2
 339 361 336 361 335 353 c 2
 280 54 l 2
 246 -142 151 -231 64 -231 c 0
 13 -231 -11 -207 -17 -190 c 1
 -18 -160 0 -131 24 -131 c 0
 51 -131 56 -192 98 -192 c 0
 153 -192 195 -42 205 15 c 2
 265 354 l 1
 265 356 l 2
 265 359 264 361 262 361 c 2
 197 361 l 2
 196 361 195 362 195 364 c 0
 195 374 220 407 243 407 c 2
 272 407 l 2xee
 275 407 277 412 278 416 c 0
 305 582 406 699 506 699 c 0
 560 699 589 678 601 678 c 0
 623 678 664 694 674 694 c 1
 679 694 679 682 679 678 c 9
 679 678 659 646 649 591 c 10
 595 307 l 2
 594 303 595 301 597 301 c 3
 599 301 600 302 603 307 c 0
 643 372 729 435 777 435 c 0
 828 435 851 401 851 327 c 3xde
742 373 m 3xde
 669 373 586 245 573 185 c 2
 565 150 l 2
 560 128 558 88 558 83 c 3
 558 61 574 43 598 43 c 3
 689 43 773 174 773 323 c 3
 773 342 765 373 742 373 c 3xde
EndSplineSet
Validated: 33
Ligature2: "'liga' Standard Ligatures in Latin lookup 0-1" f b
EndChar

StartChar: uniF106
Encoding: 61702 61702 240
Width: 1121
VWidth: 0
Flags: W
HStem: -233 41<63.0999 130.505> -224 47<251.483 352.527> -7 50<825.147 912.095> 361 46<206.321 262.516 348.59 518.609 609.684 728.597> 373 62<976.369 1064.5> 645 38<455.352 566> 661 38<700.186 811.069>
VStem: 755 65<47.7275 206.608> 1035 78<235.477 370.582>
LayerCount: 2
Fore
SplineSet
1113 327 m 3x2b80
 1113 201 957 -7 843 -7 c 3
 780 -7 755 34 755 79 c 3
 755 99 757 134 764 168 c 2
 842 577 l 2
 843 582 843 585 843 589 c 0
 842 632 796 661 749 661 c 0
 683 661 635 579 607 413 c 0
 607 412 607 411 607 411 c 0
 607 409 609 407 610 407 c 2
 725 407 l 2
 729 407 730 400 730 395 c 27
 730 381 724 369 719 361 c 1
 602 361 l 2
 600 361 598 361 596 353 c 2
 548 106 l 2
 501 -140 349 -224 284 -224 c 0x7380
 230 -224 198 -189 188 -175 c 1
 153 -215 106 -233 66 -233 c 0
 12 -233 -9 -206 -17 -191 c 1
 -17 -166 -6 -131 23 -131 c 0
 56 -131 53 -192 96 -192 c 0
 141 -192 192 -73 203 -10 c 0
 207 12 208 21 212 46 c 0
 265 354 l 1
 265 356 l 2
 265 359 264 361 262 361 c 2
 197 361 l 2
 196 361 195 362 195 364 c 0
 195 374 220 407 243 407 c 2
 272 407 l 2
 275 407 277 412 278 416 c 0
 310 580 436 683 530 683 c 0xb580
 584 683 626 666 640 653 c 1
 664 676 728 699 767 699 c 0
 821 699 850 678 862 678 c 0
 884 678 925 694 935 694 c 1
 940 694 940 682 940 678 c 9
 940 678 921 646 911 591 c 10
 857 307 l 2
 856 303 857 301 859 301 c 3
 861 301 862 302 865 307 c 0
 905 372 991 435 1039 435 c 0
 1090 435 1113 401 1113 327 c 3x2b80
1004 373 m 3x2980
 931 373 848 245 835 185 c 2
 827 150 l 2
 822 128 820 88 820 83 c 3
 820 61 836 43 860 43 c 3
 951 43 1035 174 1035 323 c 3
 1035 342 1027 373 1004 373 c 3x2980
295 -177 m 0x7180
 353 -177 436 -102 470 60 c 0
 521 354 l 1
 521 356 l 2
 521 359 520 361 518 361 c 1
 341 361 l 2
 338 361 336 361 335 353 c 2
 280 43 l 0
 268 -19 257 -59 235 -103 c 0
 234 -104 234 -106 234 -108 c 24
 234 -111 235 -115 235 -116 c 0
 239 -136 252 -177 295 -177 c 0x7180
509 645 m 0x3580
 432 645 375 561 353 454 c 0
 349 432 350 438 346 413 c 0
 346 412 346 411 346 411 c 0
 346 409 347 407 350 407 c 2
 528 407 l 2
 531 407 533 412 534 416 c 0
 546 478 571 551 589 584 c 0
 590 585 590 587 590 589 c 24
 590 592 589 596 589 597 c 0
 585 617 552 645 509 645 c 0x3580
EndSplineSet
Validated: 1
Ligature2: "'liga' Standard Ligatures in Latin lookup 0-1" f f b
EndChar

StartChar: uniF107
Encoding: 61703 61703 241
Width: 868
VWidth: 0
Flags: W
HStem: -231 39<38.124 130.85> -5 21G<495.5 506.5> 0 55<742.586 818.192> 361 46<206.321 263.125 348.684 467.597> 388 47<695.571 762.745> 661 38<440.135 550.012>
VStem: 770 71<287.604 383.647> 847 18<88.9793 101.627>
LayerCount: 2
Fore
SplineSet
580 577 m 22xa7
 581 582 581 585 581 589 c 7
 581 632 535 661 488 661 c 4
 422 661 374 579 346 413 c 0
 346 412 346 411 346 411 c 0
 346 409 348 407 349 407 c 2
 464 407 l 2
 468 407 469 400 469 395 c 27
 469 381 463 369 458 361 c 1
 341 361 l 2
 339 361 336 361 335 353 c 2
 280 54 l 2
 246 -142 151 -231 64 -231 c 0
 13 -231 -11 -207 -17 -190 c 1
 -18 -160 0 -131 24 -131 c 0
 51 -131 56 -192 98 -192 c 0
 153 -192 195 -42 205 15 c 2
 265 354 l 1
 265 356 l 2
 265 359 264 361 262 361 c 2
 197 361 l 2
 196 361 195 362 195 364 c 0
 195 374 220 407 243 407 c 2
 272 407 l 2xb7
 275 407 277 412 278 416 c 0
 305 582 406 699 506 699 c 4
 560 699 589 678 601 678 c 4
 623 678 664 694 674 694 c 5
 679 694 679 682 679 678 c 13
 679 678 660 646 649 591 c 6
 597 327 l 6
 596 323 597 321 599 321 c 7
 604 321 681 435 758 435 c 15
 803 435 841 399 841 354 c 31
 841 256 751 224 640 205 c 5
 734 66 764 55 795 55 c 4
 822 55 839 91 847 102 c 4
 848 103 849 103 851 103 c 7
 856 103 864 98 865 91 c 5
 859 71 818 0 771 0 c 4
 692 0 624 121 573 191 c 5
 572 193 l 6
 571 193 571 192 571 191 c 6
 534 0 l 21xaf
 523 -3 512 -5 501 -5 c 4xc7
 490 -5 480 -3 468 0 c 5
 580 577 l 22xa7
589 230 m 4
 589 230 770 248 770 333 c 7
 770 362 758 388 730 388 c 7x8f
 683 388 587 256 587 232 c 7
 587 231 587 230 589 230 c 4
EndSplineSet
Validated: 33
Ligature2: "'liga' Standard Ligatures in Latin lookup 0-1" f k
EndChar

StartChar: uniF108
Encoding: 61704 61704 242
Width: 1129
VWidth: 0
Flags: W
HStem: -233 41<63.0999 130.505> -224 47<251.483 352.527> -5 21G<756.5 767.5> 0 55<1003.59 1079.19> 361 46<206.321 262.516 348.59 518.609 609.684 728.597> 388 47<956.571 1023.74> 645 38<455.352 566> 661 38<700.186 811.012>
VStem: 1031 71<287.604 383.647> 1108 18<88.9793 101.627>
LayerCount: 2
Fore
SplineSet
749 661 m 0x11c0
 683 661 635 579 607 413 c 0
 607 412 607 411 607 411 c 0
 607 409 609 407 610 407 c 2
 725 407 l 2
 729 407 730 400 730 395 c 27
 730 381 724 369 719 361 c 1
 602 361 l 2
 600 361 598 361 596 353 c 2
 548 106 l 2
 501 -140 349 -224 284 -224 c 0x59c0
 230 -224 198 -189 188 -175 c 1
 153 -215 106 -233 66 -233 c 0
 12 -233 -9 -206 -17 -191 c 1
 -17 -166 -6 -131 23 -131 c 0
 56 -131 53 -192 96 -192 c 0
 141 -192 192 -73 203 -10 c 0
 207 12 208 21 212 46 c 0
 265 354 l 1
 265 356 l 2
 265 359 264 361 262 361 c 2
 197 361 l 2
 196 361 195 362 195 364 c 0
 195 374 220 407 243 407 c 2
 272 407 l 2
 275 407 277 412 278 416 c 0
 310 580 436 683 530 683 c 0x8ac0
 584 683 626 666 640 653 c 1
 664 676 728 699 767 699 c 0
 821 699 850 678 862 678 c 0
 884 678 925 694 935 694 c 1
 940 694 940 682 940 678 c 9
 940 678 921 646 910 591 c 2
 858 327 l 2
 857 323 858 321 860 321 c 3
 865 321 942 435 1019 435 c 11
 1064 435 1102 399 1102 354 c 27
 1102 256 1012 224 901 205 c 1
 995 66 1025 55 1056 55 c 0
 1083 55 1100 91 1108 102 c 0
 1109 103 1110 103 1112 103 c 3
 1117 103 1125 98 1126 91 c 1
 1120 71 1079 0 1032 0 c 0
 953 0 885 121 834 191 c 1
 833 193 l 2
 832 193 832 192 832 191 c 2
 795 0 l 17x15c0
 784 -3 773 -5 762 -5 c 0x20c0
 751 -5 741 -3 729 0 c 1
 841 577 l 18
 842 582 842 585 842 589 c 3
 842 632 796 661 749 661 c 0x11c0
850 230 m 0
 850 230 1031 248 1031 333 c 3
 1031 362 1019 388 991 388 c 3x04c0
 944 388 848 256 848 232 c 3
 848 231 848 230 850 230 c 0
295 -177 m 0x48c0
 353 -177 436 -102 470 60 c 0
 521 354 l 1
 521 356 l 2
 521 359 520 361 518 361 c 1
 341 361 l 2
 338 361 336 361 335 353 c 2
 280 43 l 0
 268 -19 257 -59 235 -103 c 0
 234 -104 234 -106 234 -108 c 24
 234 -111 235 -115 235 -116 c 0
 239 -136 252 -177 295 -177 c 0x48c0
509 645 m 0x0ac0
 432 645 375 561 353 454 c 0
 349 432 350 438 346 413 c 0
 346 412 346 411 346 411 c 0
 346 409 347 407 350 407 c 2
 528 407 l 2
 531 407 533 412 534 416 c 0
 546 478 571 551 589 584 c 0
 590 585 590 587 590 589 c 24
 590 592 589 596 589 597 c 0
 585 617 552 645 509 645 c 0x0ac0
EndSplineSet
Validated: 1
Ligature2: "'liga' Standard Ligatures in Latin lookup 0-1" f f k
EndChar

StartChar: uniF109
Encoding: 61705 61705 243
Width: 878
VWidth: 0
Flags: W
HStem: -231 39<38.124 130.85> -6 58<747 812.967> 361 74<725.399 781.574> 361 46<206.321 263.125 348.684 467.597> 661 38<440.135 550.012>
VStem: 710 68<52.1725 205.553> 751 73<222.543 398.534>
LayerCount: 2
Fore
SplineSet
580 577 m 6xea
 581 582 581 585 581 589 c 7
 581 632 535 661 488 661 c 4
 422 661 374 579 346 413 c 0
 346 412 346 411 346 411 c 0
 346 409 348 407 349 407 c 2
 464 407 l 2
 468 407 469 400 469 395 c 27
 469 381 463 369 458 361 c 1
 341 361 l 2
 339 361 336 361 335 353 c 2
 280 54 l 2
 246 -142 151 -231 64 -231 c 0
 13 -231 -11 -207 -17 -190 c 1
 -18 -160 0 -131 24 -131 c 0
 51 -131 56 -192 98 -192 c 0
 153 -192 195 -42 205 15 c 2
 265 354 l 1
 265 356 l 2
 265 359 264 361 262 361 c 2
 197 361 l 2
 196 361 195 362 195 364 c 0
 195 374 220 407 243 407 c 2
 272 407 l 2xda
 275 407 277 412 278 416 c 0
 305 582 406 699 506 699 c 4
 560 699 589 678 601 678 c 4
 623 678 664 694 674 694 c 5
 679 694 679 682 679 678 c 13
 679 678 659 646 648 591 c 6
 648 591 580 244 580 241 c 4
 580 240 581 240 581 240 c 6
 582 240 582 241 582 241 c 20
 595 266 708 435 774 435 c 4
 813 435 824 407 824 369 c 4xea
 824 332 814 286 807 251 c 6
 780 106 l 6
 779 103 778 94 778 89 c 4
 778 61 790 52 801 52 c 4
 822 52 862 125 866 125 c 4
 867 125 875 111 876 103 c 5
 869 83 817 -6 766 -6 c 7
 728 -6 710 20 710 67 c 4xec
 710 127 751 268 751 318 c 4
 751 341 750 361 733 361 c 4
 697 361 578 216 549 78 c 13
 532 0 l 21
 522 -3 511 -4 501 -4 c 4
 491 -4 479 -3 467 0 c 5
 580 577 l 6xea
EndSplineSet
Validated: 33
Ligature2: "'liga' Standard Ligatures in Latin lookup 0-1" f h
EndChar

StartChar: uniF10A
Encoding: 61706 61706 244
Width: 1139
VWidth: 0
Flags: W
HStem: -233 41<63.0999 130.505> -224 47<251.483 352.527> -6 58<1008 1073.97> 361 74<986.399 1042.57> 361 46<206.321 262.516 348.59 518.609 609.684 728.597> 645 38<455.352 566> 661 38<700.186 811.012>
VStem: 971 68<52.1725 205.553> 1012 73<222.543 398.534>
LayerCount: 2
Fore
SplineSet
749 661 m 0x3280
 683 661 635 579 607 413 c 0
 607 412 607 411 607 411 c 0
 607 409 609 407 610 407 c 2
 725 407 l 2
 729 407 730 400 730 395 c 27
 730 381 724 369 719 361 c 1
 602 361 l 2
 600 361 598 361 596 353 c 2
 548 106 l 2
 501 -140 349 -224 284 -224 c 0x6a80
 230 -224 198 -189 188 -175 c 1
 153 -215 106 -233 66 -233 c 0
 12 -233 -9 -206 -17 -191 c 1
 -17 -166 -6 -131 23 -131 c 0
 56 -131 53 -192 96 -192 c 0
 141 -192 192 -73 203 -10 c 0
 207 12 208 21 212 46 c 0
 265 354 l 1
 265 356 l 2
 265 359 264 361 262 361 c 2
 197 361 l 2
 196 361 195 362 195 364 c 0
 195 374 220 407 243 407 c 2
 272 407 l 2
 275 407 277 412 278 416 c 0
 310 580 436 683 530 683 c 0xac80
 584 683 626 666 640 653 c 1
 664 676 728 699 767 699 c 0
 821 699 850 678 862 678 c 0
 884 678 925 694 935 694 c 1
 940 694 940 682 940 678 c 9
 940 678 920 646 909 591 c 2
 909 591 841 244 841 241 c 0
 841 240 842 240 842 240 c 2
 843 240 843 241 843 241 c 16
 856 266 969 435 1035 435 c 0
 1074 435 1085 407 1085 369 c 0x3280
 1085 332 1075 286 1068 251 c 2
 1041 106 l 2
 1040 103 1039 94 1039 89 c 0
 1039 61 1051 52 1062 52 c 0
 1083 52 1123 125 1127 125 c 0
 1128 125 1136 111 1137 103 c 1
 1130 83 1078 -6 1027 -6 c 3
 989 -6 971 20 971 67 c 0x33
 971 127 1012 268 1012 318 c 0
 1012 341 1011 361 994 361 c 0
 958 361 839 216 810 78 c 9
 793 0 l 17
 783 -3 772 -4 762 -4 c 0
 752 -4 740 -3 728 0 c 1
 841 577 l 2
 842 582 842 585 842 589 c 3
 842 632 796 661 749 661 c 0x3280
295 -177 m 0
 353 -177 436 -102 470 60 c 0
 521 354 l 1
 521 356 l 2
 521 359 520 361 518 361 c 1
 341 361 l 2
 338 361 336 361 335 353 c 2
 280 43 l 0
 268 -19 257 -59 235 -103 c 0
 234 -104 234 -106 234 -108 c 24
 234 -111 235 -115 235 -116 c 0
 239 -136 252 -177 295 -177 c 0
509 645 m 0x2c
 432 645 375 561 353 454 c 0
 349 432 350 438 346 413 c 0
 346 412 346 411 346 411 c 0
 346 409 347 407 350 407 c 2
 528 407 l 2
 531 407 533 412 534 416 c 0
 546 478 571 551 589 584 c 0
 590 585 590 587 590 589 c 24
 590 592 589 596 589 597 c 0
 585 617 552 645 509 645 c 0x2c
EndSplineSet
Validated: 1
Ligature2: "'liga' Standard Ligatures in Latin lookup 0-1" f f h
EndChar

StartChar: uniF10B
Encoding: 61707 61707 245
Width: 617
VWidth: 0
Flags: W
HStem: -235 21G<322 341.5> -231 39<38.124 130.85> 361 46<206.321 263.125 348.709 512.016> 366 52<354.341 511.056> 661 38<436.24 510.811>
VStem: 514 76<258.921 401>
LayerCount: 2
Fore
SplineSet
529 45 m 4x1c
 522 9 505 -67 463 -124 c 28
 422 -180 359 -221 324 -235 c 5
 320 -231 315 -224 315 -215 c 31
 315 -211 321 -210 324 -208 c 4
 399 -152 435 -89 457 22 c 6
 511 293 l 6
 513 301 514 316 514 321 c 4
 514 343 507 366 488 366 c 12x9c
 431 366 341 361 341 361 c 2
 338 361 336 361 335 353 c 2
 280 54 l 2
 246 -142 151 -231 64 -231 c 0
 13 -231 -11 -207 -17 -190 c 1
 -18 -160 0 -131 24 -131 c 0
 51 -131 56 -192 98 -192 c 0
 153 -192 195 -42 205 15 c 2
 265 354 l 1
 265 356 l 2
 265 359 264 361 262 361 c 2
 197 361 l 2
 196 361 195 362 195 364 c 0
 195 374 220 407 243 407 c 2
 272 407 l 2
 275 407 277 412 278 416 c 0
 305 582 406 699 506 699 c 4
 560 699 577 686 592 672 c 4
 608 657 618 644 624 630 c 5
 624 602 610 566 579 566 c 31
 557 566 547 584 536 603 c 4
 522 628 507 661 470 661 c 4
 431 661 374 579 346 413 c 0
 346 412 346 411 346 411 c 0
 346 409 347 407 349 407 c 0x6c
 373 407 472 410 490 412 c 4
 511 414 574 418 576 418 c 7
 580 418 590 410 590 401 c 7
 590 396 586 360 583 339 c 4
 577 296 534 72 529 45 c 4x1c
EndSplineSet
Validated: 33
Ligature2: "'liga' Standard Ligatures in Latin lookup 0-1" f j
EndChar

StartChar: uniF10C
Encoding: 61708 61708 246
Width: 878
VWidth: 0
Flags: W
HStem: -235 21G<583 602.5> -233 41<63.0999 130.505> -224 47<251.483 352.45> 361 46<206.321 262.516 348.59 518.609 604.584 773.016> 645 38<455.352 566> 661 38<690.988 771.811>
VStem: 775 76<251.11 408.224>
LayerCount: 2
Fore
SplineSet
530 683 m 0x5a
 584 683 626 666 640 653 c 1
 664 676 728 699 767 699 c 0
 821 699 838 686 853 672 c 0
 869 657 879 644 885 630 c 1
 885 602 871 566 840 566 c 27
 818 566 808 584 797 603 c 0
 783 628 768 661 731 661 c 0
 645 661 606 438 602 413 c 0
 602 412 602 411 602 411 c 0
 602 409 603 407 605 407 c 0
 631 407 733 410 751 412 c 0
 772 414 835 418 837 418 c 3
 841 418 851 410 851 401 c 3
 851 396 847 360 844 339 c 0
 838 296 795 72 790 45 c 0
 783 9 766 -67 724 -124 c 24
 683 -180 620 -221 585 -235 c 1x96
 581 -231 576 -224 576 -215 c 27
 576 -211 582 -210 585 -208 c 0
 660 -152 696 -89 718 22 c 2
 772 293 l 2
 774 301 775 316 775 321 c 0
 775 343 768 366 749 366 c 0
 740 366 597 361 597 361 c 0
 594 361 592 361 591 353 c 2
 548 106 l 0
 500 -140 349 -224 284 -224 c 0x32
 230 -224 198 -189 188 -175 c 1
 153 -215 106 -233 66 -233 c 0
 12 -233 -9 -206 -17 -191 c 1
 -17 -166 -6 -131 23 -131 c 0
 56 -131 53 -192 96 -192 c 0
 141 -192 192 -73 203 -10 c 0
 207 12 208 21 212 46 c 0
 265 354 l 1
 265 356 l 2
 265 359 264 361 262 361 c 2
 197 361 l 2
 196 361 195 362 195 364 c 0
 195 374 220 407 243 407 c 2
 272 407 l 2
 275 407 277 412 278 416 c 0
 310 580 436 683 530 683 c 0x5a
235 -116 m 0
 239 -136 252 -177 295 -177 c 0x32
 353 -177 436 -102 470 60 c 0
 521 354 l 1
 521 356 l 2
 521 359 520 361 518 361 c 1
 341 361 l 2
 338 361 336 361 335 353 c 2
 280 43 l 0
 268 -19 257 -59 235 -103 c 0
 234 -104 234 -106 234 -108 c 24
 234 -111 235 -115 235 -116 c 0
509 645 m 0x1a
 432 645 375 561 353 454 c 0
 349 432 350 438 346 413 c 0
 346 412 346 411 346 411 c 0
 346 409 347 407 350 407 c 2
 528 407 l 2
 531 407 533 412 534 416 c 0
 546 478 571 551 589 584 c 0
 590 585 590 587 590 589 c 24
 590 592 589 596 589 597 c 0
 585 617 552 645 509 645 c 0x1a
EndSplineSet
Validated: 1
Ligature2: "'liga' Standard Ligatures in Latin lookup 0-1" f f j
EndChar

StartChar: T_h
Encoding: 61709 61709 247
Width: 902
VWidth: 0
Flags: W
HStem: -6 58<768.688 827.967> -3 27<74.4281 134.016 248.438 294.422> 361 74<740.399 808.5> 615 39<76.7601 253.003 347.211 572.794>
VStem: 2 30<521.522 551.296> 74 166<3.5 63.5> 725 68<52.1725 205.553> 766 73<222.543 398.534>
LayerCount: 2
Fore
SplineSet
311 654 m 0x7d
 386 654 427 658 499 660 c 0
 589 662 677 694 688 694 c 1
 693 694 693 682 693 678 c 9
 693 678 674 646 663 591 c 2
 663 591 595 244 595 241 c 0
 595 240 596 240 596 240 c 2
 597 240 597 241 597 241 c 16
 610 266 723 435 789 435 c 0
 828 435 839 407 839 369 c 0x7d
 839 332 829 286 822 251 c 2
 795 106 l 2
 794 103 793 94 793 89 c 0
 793 61 805 52 816 52 c 0
 837 52 877 125 881 125 c 0
 882 125 890 111 891 103 c 1
 884 83 832 -6 781 -6 c 3
 743 -6 725 20 725 67 c 0xbe
 725 127 766 268 766 318 c 0
 766 341 765 361 748 361 c 0
 712 361 593 216 564 78 c 9
 547 0 l 17
 537 -3 526 -4 516 -4 c 0
 506 -4 494 -3 482 0 c 1
 581 530 l 2
 582 536 583 539 583 543 c 0
 583 614 573 615 455 615 c 0
 396 615 354 610 349 600 c 0
 336 572 329 540 321 500 c 2
 251 139 l 2
 244 104 240 78 240 49 c 0
 240 30 294 24 294 24 c 2
 295 24 296 22 296 20 c 0
 296 14 292 1 290 -3 c 1
 253 -1 227 2 186 2 c 0
 143 2 119 -1 76 -3 c 1
 75 -2 74 2 74 5 c 0
 74 13 77 24 81 24 c 0
 92 24 139 33 145 46 c 0
 157 74 164 104 171 142 c 2
 240 497 l 2
 247 534 253 563 253 594 c 0
 253 604 257 615 154 615 c 0
 82 615 65 599 32 526 c 0
 30 522 27 521 22 521 c 0
 14 521 5 525 2 528 c 1
 46 671 l 1
 60 667 96 660 109 660 c 0
 192 659 236 654 311 654 c 0x7d
EndSplineSet
Validated: 33
Ligature2: "'liga' Standard Ligatures in Latin lookup 0-1" T h
EndChar

StartChar: uni0304
Encoding: 772 772 261
Width: 353
Flags: W
HStem: 550 46<185.205 391.366>
VStem: 181 216
LayerCount: 2
Fore
SplineSet
181 559 m 0
 181 561 190 596 200 596 c 2
 393 596 l 2
 395 596 398 595 397 589 c 0
 396 584 393 575 385 557 c 0
 382 551 377 550 377 550 c 1
 185 550 l 1
 185 550 179 549 181 559 c 0
EndSplineSet
Validated: 1
EndChar

StartChar: uni0305
Encoding: 773 773 262
Width: 526
Flags: W
HStem: 739 63<141.047 683.857>
LayerCount: 2
Fore
SplineSet
132 749 m 0
 132 751 145 802 155 802 c 2
 697 802 l 2
 699 802 702 801 700 793 c 0
 697 775 686 750 684 746 c 0
 681 740 675 739 675 739 c 1
 136 739 l 1
 136 739 130 739 132 749 c 0
EndSplineSet
Validated: 1
EndChar

StartChar: uni0306
Encoding: 774 774 263
Width: 233
Flags: W
HStem: 520 46<176.676 278.283>
VStem: 136 23<597.811 637.994> 321 18<620.732 639.513>
LayerCount: 2
Fore
SplineSet
226 566 m 0
 265 566 303 595 321 638 c 0
 321 640 323 641 325 641 c 0
 331 641 340 633 339 628 c 0
 339 627 337 622 337 620 c 0
 318 567 267 520 217 520 c 0
 167 520 133 564 136 621 c 0
 136 623 137 627 137 628 c 0
 138 633 150 641 156 641 c 0
 158 641 159 640 159 638 c 0
 160 595 187 566 226 566 c 0
EndSplineSet
Validated: 33
EndChar

StartChar: uni0307
Encoding: 775 775 264
Width: 240
Flags: W
HStem: 495 100<185.377 251.939>
VStem: 172 93<507.854 581.333>
LayerCount: 2
Fore
SplineSet
172 545 m 0
 177 573 203 595 229 595 c 0
 255 595 270 573 265 545 c 0
 260 517 235 495 209 495 c 0
 183 495 167 517 172 545 c 0
EndSplineSet
Validated: 33
EndChar

StartChar: uni0308
Encoding: 776 776 265
Width: 308
Flags: W
HStem: 471 92<139.747 203.921 309.747 373.921>
VStem: 128 87<481.924 550.908> 298 87<481.924 550.455>
LayerCount: 2
Fore
SplineSet
352 563 m 27
 375 563 390 541 385 516 c 24
 380 491 356 471 333 471 c 27
 310 471 293 492 298 517 c 24
 303 542 329 563 352 563 c 27
181 563 m 27
 204 563 220 541 215 516 c 24
 210 491 186 471 163 471 c 27
 140 471 123 492 128 517 c 24
 133 542 158 563 181 563 c 27
EndSplineSet
Validated: 33
EndChar

StartChar: hookabovecomb
Encoding: 777 777 266
Width: 166
Flags: W
HStem: 626 29<183.842 246.5>
VStem: 129 45<571.152 614.867>
LayerCount: 2
Fore
SplineSet
230 655 m 0
 263 655 276 634 270 604 c 0
 264 571 233 548 210 538 c 0
 192 530 185 525 183 513 c 0
 181 505 185 497 187 494 c 1
 186 489 174 480 169 480 c 1
 164 482 140 493 144 513 c 0
 149 538 179 550 194 557 c 0
 214 566 227 577 230 594 c 0
 233 610 228 626 211 626 c 0
 192 626 179 617 174 590 c 0
 171 575 153 570 142 570 c 0
 135 570 128 574 129 579 c 0
 136 613 190 655 230 655 c 0
EndSplineSet
Validated: 33
EndChar

StartChar: uni030A
Encoding: 778 778 267
Width: 225
Flags: W
HStem: 502 34<189.067 260.844> 647 34<203.906 276.779>
VStem: 151 163
LayerCount: 2
Fore
SplineSet
182 592 m 0
 176 561 194 536 222 536 c 0
 250 536 278 561 284 592 c 0
 290 623 272 647 244 647 c 0
 216 647 188 623 182 592 c 0
151 592 m 0
 161 641 206 681 251 681 c 0
 296 681 324 641 314 592 c 0
 304 543 261 502 216 502 c 0
 171 502 141 543 151 592 c 0
EndSplineSet
Validated: 33
EndChar

StartChar: uni030B
Encoding: 779 779 268
Width: 282
Flags: W
HStem: 541 143<252 262>
VStem: 119 308
LayerCount: 2
Fore
SplineSet
254 541 m 0
 252 541 247 547 247 553 c 0
 247 561 319 646 362 679 c 0
 367 682 378 684 388 684 c 0
 404 684 427 680 427 660 c 0
 427 625 262 541 254 541 c 0
126 541 m 0
 124 541 119 547 119 553 c 0
 119 561 191 646 234 679 c 0
 239 682 250 684 260 684 c 0
 276 684 299 680 299 660 c 0
 299 625 134 541 126 541 c 0
EndSplineSet
Validated: 1
EndChar

StartChar: uni030C
Encoding: 780 780 269
Width: 389
Flags: W
HStem: 493 148
VStem: 193 186
LayerCount: 2
Fore
SplineSet
277 575 m 5
 307 599 366 641 376 641 c 0
 381 641 381 627 379 618 c 1
 377 615 347 590 316 557 c 0
 301 540 286 520 272 502 c 0
 268 496 266 493 262 493 c 0
 259 493 257 495 255 502 c 0
 248 521 240 538 231 554 c 0
 215 584 198 608 193 618 c 1
 194 623 200 641 206 641 c 0
 216 641 257 601 277 575 c 5
EndSplineSet
Validated: 1
EndChar

StartChar: uni0312
Encoding: 786 786 270
Width: 147
Flags: W
HStem: 458 180
VStem: 111 99<477.748 543.702>
LayerCount: 2
Fore
SplineSet
210 513 m 0
 210 481 163 458 124 458 c 1
 111 468 111 491 111 499 c 0
 111 554 172 618 205 636 c 1
 206 637 209 638 213 638 c 0
 225 638 231 634 231 631 c 0
 231 625 188 611 180 570 c 0
 174 540 210 539 210 513 c 0
EndSplineSet
Validated: 33
EndChar

StartChar: uni0315
Encoding: 789 789 271
Width: 147
Flags: W
HStem: 465 187
VStem: 173 68<546.578 633.614>
LayerCount: 2
Fore
SplineSet
162 592 m 0
 162 630 196 652 236 652 c 1
 240 645 241 636 241 624 c 0
 241 614 240 603 238 590 c 0
 229 545 169 480 144 466 c 0
 143 465 139 465 137 465 c 0
 132 465 127 472 127 477 c 0
 127 481 173 504 173 551 c 0
 173 562 162 574 162 592 c 0
EndSplineSet
Validated: 1
EndChar

StartChar: dotbelowcomb
Encoding: 803 803 272
Width: 240
Flags: W
HStem: -132 100<83.0605 149.623>
VStem: 70 93<-118.333 -44.854>
LayerCount: 2
Fore
SplineSet
70 -82 m 0
 75 -54 100 -32 126 -32 c 0
 152 -32 168 -54 163 -82 c 0
 158 -110 132 -132 106 -132 c 0
 80 -132 65 -110 70 -82 c 0
EndSplineSet
Validated: 33
EndChar

StartChar: uni0326
Encoding: 806 806 273
Width: 147
Flags: W
HStem: -193 180
VStem: 18 99<-98.7024 -32.7479>
LayerCount: 2
Fore
SplineSet
18 -68 m 0
 18 -36 65 -13 104 -13 c 1
 117 -23 117 -46 117 -54 c 0
 117 -109 56 -173 23 -191 c 1
 22 -192 19 -193 15 -193 c 0
 3 -193 -3 -189 -3 -186 c 0
 -3 -180 40 -166 48 -125 c 0
 54 -95 18 -94 18 -68 c 0
EndSplineSet
Validated: 33
EndChar

StartChar: uni0327
Encoding: 807 807 274
Width: 405
Flags: W
HStem: -152 24<139.287 200.164> -61 34<196 212.984> -24 20G<193 217>
VStem: 119 132
LayerCount: 2
Fore
SplineSet
196 -27 m 1
 219 -27 l 2
 243 -27 256 -50 251 -76 c 0
 242 -123 197 -152 149 -152 c 0
 138 -152 124 -147 119 -143 c 1
 119 -138 118 -135 119 -129 c 0
 120 -122 128 -115 134 -115 c 0
 145 -115 151 -128 166 -128 c 0
 192 -128 210 -112 213 -95 c 0
 218 -71 203 -61 191 -61 c 0
 181 -61 175 -64 165 -68 c 0
 163 -68 155 -59 158 -55 c 0
 169 -40 188 -18 198 -4 c 1
 217 -4 l 1
 196 -27 l 1
EndSplineSet
Validated: 33
EndChar

StartChar: uni0328
Encoding: 808 808 275
Width: 203
Flags: W
HStem: -218 59<11 97.0836>
LayerCount: 2
Fore
SplineSet
165 42 m 3
 181 42 202 37 189 25 c 0
 163 3 53 -52 41 -116 c 0
 38 -131 39 -159 71 -159 c 3
 118 -159 148 -121 154 -121 c 3
 155 -121 158 -126 156 -134 c 0
 155 -139 152 -147 148 -151 c 0
 122 -180 79 -218 37 -218 c 0
 -15 -218 -19 -168 -14 -141 c 0
 -1 -75 138 42 165 42 c 3
EndSplineSet
Validated: 33
EndChar

StartChar: gravecomb.cap
Encoding: 63632 63632 284
Width: 222
Flags: W
HStem: 694 98
VStem: 170 174
LayerCount: 2
Fore
SplineSet
331 694 m 0
 314 694 170 742 170 768 c 0
 170 779 190 792 228 792 c 0
 235 792 242 791 245 790 c 0
 274 771 344 712 344 704 c 0
 344 697 334 694 331 694 c 0
EndSplineSet
Validated: 1
EndChar

StartChar: acutecomb.cap
Encoding: 63633 63633 285
Width: 208
Flags: W
HStem: 694 98
VStem: 150 174
LayerCount: 2
Fore
SplineSet
163 694 m 0
 160 694 150 697 150 704 c 0
 150 712 220 771 249 790 c 0
 252 791 259 792 266 792 c 0
 304 792 324 779 324 768 c 0
 324 742 180 694 163 694 c 0
EndSplineSet
Validated: 1
EndChar

StartChar: uni0302.cap
Encoding: 63634 63634 286
Width: 297
Flags: W
HStem: 728 130
VStem: 164 243
LayerCount: 2
Fore
SplineSet
392 728 m 0
 379 728 322 765 293 786 c 1
 255 763 183 728 170 728 c 0
 162 728 163 744 164 748 c 1
 174 757 207 778 241 804 c 0
 261 818 280 833 296 850 c 0
 303 856 304 858 309 858 c 0
 315 858 318 855 320 850 c 0
 329 834 339 817 352 802 c 0
 377 773 407 751 407 748 c 1
 405 740 399 728 392 728 c 0
EndSplineSet
Validated: 1
EndChar

StartChar: uni030A.cap
Encoding: 63635 63635 287
Width: 389
Flags: W
HStem: 502 34<240.756 312.594> 647 34<255.497 328.518>
VStem: 202 164
LayerCount: 2
Fore
SplineSet
233 592 m 0
 227 561 246 536 274 536 c 0
 302 536 329 561 335 592 c 0
 341 623 324 647 296 647 c 0
 268 647 239 623 233 592 c 0
202 592 m 0
 212 641 258 681 303 681 c 0
 348 681 376 641 366 592 c 0
 356 543 313 502 268 502 c 0
 223 502 192 543 202 592 c 0
EndSplineSet
Validated: 33
EndChar

StartChar: tildecomb.cap
Encoding: 63636 63636 288
Width: 374
Flags: W
HStem: 714 51<359.438 458.032> 767 51<216.43 315.099>
VStem: 174 325
LayerCount: 2
Fore
SplineSet
177 723 m 0
 170 723 172 732 174 740 c 0
 177 755 188 768 197 778 c 0
 223 805 247 818 277 818 c 0
 340 818 364 765 427 765 c 0
 453 765 492 809 496 809 c 0
 500 809 501 800 499 792 c 0
 497 780 485 763 476 753 c 0
 450 725 428 714 398 714 c 0
 334 714 311 767 247 767 c 0
 221 767 184 723 177 723 c 0
EndSplineSet
Validated: 1
EndChar

StartChar: uni0304.cap
Encoding: 63637 63637 289
Width: 354
Flags: W
HStem: 548 48<165.666 412.063>
VStem: 161 257
LayerCount: 2
Fore
SplineSet
161 557 m 0
 161 559 170 596 182 596 c 2
 414 596 l 2
 416 596 419 595 418 589 c 0
 417 584 414 573 405 555 c 0
 402 549 396 548 396 548 c 1
 166 548 l 1
 166 548 159 547 161 557 c 0
EndSplineSet
Validated: 1
EndChar

StartChar: uni0306.cap
Encoding: 63638 63638 290
Width: 233
Flags: W
HStem: 525 48<171.263 281.447>
VStem: 135 23<598.719 630.925> 319 19<615.095 631.975>
LayerCount: 2
Fore
SplineSet
227 573 m 0
 266 573 303 594 319 631 c 0
 319 633 322 633 324 633 c 0
 330 633 339 626 338 622 c 0
 338 621 336 617 336 615 c 0
 319 569 268 525 218 525 c 0
 168 525 134 566 135 616 c 0
 135 618 135 621 135 622 c 0
 136 626 148 633 154 633 c 0
 156 633 158 633 158 631 c 0
 160 594 188 573 227 573 c 0
EndSplineSet
Validated: 33
EndChar

StartChar: uni0327.cap
Encoding: 63639 63639 291
Width: 406
Flags: W
HStem: -174 28<126.253 197.388> -67 40<193 212.29>
VStem: 102 156
LayerCount: 2
Fore
SplineSet
193 -27 m 1
 221 -27 l 2
 250 -27 264 -54 258 -85 c 0
 247 -140 194 -174 137 -174 c 0
 124 -174 108 -169 102 -164 c 1
 102 -158 101 -154 102 -147 c 0
 104 -139 113 -131 120 -131 c 0
 133 -131 140 -146 158 -146 c 0
 189 -146 209 -127 213 -107 c 0
 218 -79 201 -67 187 -67 c 0
 175 -67 168 -70 156 -75 c 0
 154 -75 145 -65 148 -60 c 0
 162 -42 183 -17 195 0 c 1
 218 0 l 1
 193 -27 l 1
EndSplineSet
Validated: 33
EndChar

StartChar: uni0307.cap
Encoding: 63640 63640 292
Width: 240
Flags: W
HStem: 711 100<246.377 312.939>
VStem: 233 93<723.854 797.333>
LayerCount: 2
Fore
SplineSet
233 761 m 0
 238 789 264 811 290 811 c 0
 316 811 331 789 326 761 c 0
 321 733 296 711 270 711 c 0
 244 711 228 733 233 761 c 0
EndSplineSet
Validated: 33
EndChar

StartChar: uni0323.cap
Encoding: 63641 63641 293
Width: 240
Flags: W
HStem: -136 100<82.0605 148.939>
VStem: 69 93<-123.146 -48.854>
LayerCount: 2
Fore
SplineSet
69 -86 m 0
 74 -58 99 -36 125 -36 c 0
 151 -36 167 -58 162 -86 c 0
 157 -114 132 -136 106 -136 c 0
 80 -136 64 -114 69 -86 c 0
EndSplineSet
Validated: 33
EndChar

StartChar: uni0305.cap
Encoding: 63642 63642 294
Width: 526
Flags: W
HStem: 739 63<141.047 683.857>
LayerCount: 2
Fore
SplineSet
132 749 m 0
 132 751 145 802 155 802 c 2
 697 802 l 2
 699 802 702 801 700 793 c 0
 697 775 686 750 684 746 c 0
 681 740 675 739 675 739 c 1
 136 739 l 1
 136 739 130 739 132 749 c 0
EndSplineSet
Validated: 1
EndChar

StartChar: hookabovecomb.cap
Encoding: 63643 63643 295
Width: 166
Flags: W
HStem: 626 29<183.842 246.5>
VStem: 129 45<571.152 614.867> 144 39<499.612 534.432>
LayerCount: 2
Fore
SplineSet
230 655 m 0xc0
 263 655 276 634 270 604 c 0
 264 571 233 548 210 538 c 0
 192 530 185 525 183 513 c 0
 183 511 183 509 183 506 c 1
 182 503 160 498 149 498 c 1
 146 501 143 510 144 513 c 0xa0
 149 538 179 550 194 557 c 0
 214 566 227 577 230 594 c 0
 233 610 228 626 211 626 c 0
 192 626 179 617 174 590 c 0
 171 575 153 570 142 570 c 0
 135 570 128 574 129 579 c 0
 136 613 190 655 230 655 c 0xc0
EndSplineSet
Validated: 33
EndChar

StartChar: uni030B.cap
Encoding: 63644 63644 296
Width: 361
Flags: W
HStem: 704 133<305 323>
VStem: 161 333
LayerCount: 2
Fore
SplineSet
301 717 m 0
 303 727 396 808 434 834 c 0
 438 836 444 837 451 837 c 0
 487 837 496 819 494 807 c 0
 487 772 323 704 307 704 c 0
 303 704 299 708 301 717 c 0
161 717 m 0
 163 727 257 808 295 834 c 0
 299 836 305 837 312 837 c 0
 348 837 356 819 354 807 c 0
 347 772 184 704 168 704 c 0
 164 704 159 708 161 717 c 0
EndSplineSet
Validated: 33
EndChar

StartChar: uni0308.cap
Encoding: 63645 63645 297
Width: 312
Flags: W
HStem: 712 100<187.061 253.623 355.061 421.939>
VStem: 174 93<725.667 799.146> 342 93<724.854 799.146>
LayerCount: 2
Fore
SplineSet
342 762 m 0
 347 790 372 812 398 812 c 0
 424 812 440 790 435 762 c 0
 430 734 405 712 379 712 c 0
 353 712 337 734 342 762 c 0
174 762 m 0
 179 790 204 812 230 812 c 0
 256 812 272 790 267 762 c 0
 262 734 236 712 210 712 c 0
 184 712 169 734 174 762 c 0
EndSplineSet
Validated: 33
EndChar

StartChar: uni0308.narrow
Encoding: 63646 63646 298
Width: 269
VWidth: 0
Flags: W
HStem: 477 100<144.312 209.228 277.312 342.228>
VStem: 134 88<488.666 567.191> 267 88<488.666 567.191>
LayerCount: 2
Fore
SplineSet
318 577 m 27
 339 577 355 558 355 537 c 27
 355 506 332 477 301 477 c 27
 279 477 267 499 267 521 c 27
 267 551 288 577 318 577 c 27
185 577 m 27
 206 577 222 558 222 537 c 27
 222 506 199 477 168 477 c 27
 146 477 134 499 134 521 c 27
 134 551 155 577 185 577 c 27
EndSplineSet
Validated: 1
EndChar

StartChar: uni030C.cap
Encoding: 63647 63647 299
Width: 240
Flags: W
HStem: 728 130
VStem: 182 211
LayerCount: 2
Fore
SplineSet
280 800 m 1
 313 821 378 858 389 858 c 0
 395 858 395 846 393 838 c 1
 391 835 359 813 325 784 c 0
 308 769 291 752 277 736 c 0
 273 731 271 728 266 728 c 0
 262 728 261 730 258 736 c 0
 250 753 239 768 228 782 c 0
 208 808 188 829 182 838 c 1
 183 842 188 858 195 858 c 0
 206 858 256 823 280 800 c 1
EndSplineSet
Validated: 1
EndChar

StartChar: Aogonek
Encoding: 260 260 302
Width: 642
VWidth: 0
Flags: W
HStem: -230 59<329 404.084> -3 27<-2.57193 51.3152 151.292 196.156 560.859 599.927> 249 49<266.904 421.491> 642 20G<432 439.5>
VStem: 293 54<-191.5 -110.891> 454 147<16.2063 73>
LayerCount: 2
Fore
SplineSet
343 298 m 0
 372 298 389 298 418 300 c 0
 420 300 422 302 422 304 c 0
 422 315 397 470 389 526 c 1
 266 303 266 303 266 301 c 0
 266 300 266 299 267 299 c 0
 290 298 322 298 343 298 c 0
399 635 m 2
 409 653 426 662 438 662 c 0
 441 662 444 661 446 660 c 1
 529 132 l 2
 535 95 537 80 541 60 c 0
 546 36 592 24 599 24 c 0
 601 24 601 22 601 19 c 0
 601 13 598 1 596 -3 c 1
 571 -2 522 1 519 1 c 0
 451 1 347 -88 347 -139 c 0
 347 -154 353 -171 378 -171 c 0
 425 -171 455 -133 461 -133 c 0
 469 -133 458 -160 455 -163 c 0
 429 -192 386 -230 344 -230 c 0
 314 -230 293 -205 293 -178 c 0
 293 -123 352 -52 401 -11 c 0
 440 22 454 35 454 63 c 0
 454 83 439 181 431 239 c 0
 431 241 429 243 428 244 c 0
 424 248 409 249 330 249 c 0
 294 249 276 248 240 246 c 0
 237 244 l 0
 234 242 140 89 140 55 c 0
 140 30 193 24 195 24 c 0
 197 24 197 21 197 18 c 0
 197 11 194 1 192 -3 c 1
 155 -1 138 2 97 2 c 0
 54 2 42 -1 -1 -3 c 1
 -2 -2 -3 2 -3 5 c 0
 -3 13 0 24 4 24 c 0
 15 24 50 32 62 45 c 0
 86 71 103 103 123 139 c 2
 399 635 l 2
EndSplineSet
Validated: 1
EndChar

StartChar: aogonek
Encoding: 261 261 303
Width: 444
VWidth: 0
Flags: W
HStem: -230 59<259 334.084> -7 59<107.895 196.67> 397 38<285.104 364.5>
VStem: 57 76<58.1026 195.852> 223 54<-193.5 -113.694> 291 69<52.2778 135.999>
LayerCount: 2
Fore
SplineSet
340 397 m 0
 249 397 133 225 133 121 c 0
 133 98 132 52 177 52 c 0
 220 52 306 177 325 270 c 2
 345 373 l 2
 345 376 346 381 346 385 c 0
 346 391 345 397 340 397 c 0
347 435 m 0
 382 435 414 428 421 421 c 1
 361 106 l 2
 360 101 360 94 360 89 c 0
 360 61 371 52 382 52 c 0
 403 52 443 125 447 125 c 0
 448 125 456 111 457 103 c 1
 452 90 425 47 395 14 c 0
 362 -22 277 -88 277 -139 c 0
 277 -154 283 -171 308 -171 c 0
 355 -171 385 -133 391 -133 c 0
 399 -133 388 -160 385 -163 c 0
 359 -192 316 -230 274 -230 c 0
 244 -230 223 -207 223 -180 c 0
 223 -128 286 -49 333 -2 c 1
 306 2 291 31 291 67 c 0
 291 93 298 128 298 134 c 0
 298 135 297 136 297 136 c 2
 296 136 296 135 295 134 c 0
 277 96 206 -7 141 -7 c 0
 76 -7 57 33 57 98 c 0
 57 256 247 435 347 435 c 0
EndSplineSet
Validated: 33
Substitution2: "'smcp' Lowercase to Small Capitals in Latin lookup 3-1" aogonek.sc
EndChar

StartChar: Eogonek
Encoding: 280 280 319
Width: 536
VWidth: 0
Flags: W
HStem: -230 59<236 311.084> -3 47<167 321 344.455 402.027> -3 27<-1.85946 54.0173> 309 44<222.5 371.546> 616 48<311.752 479.643> 616 40<267.78 442.151> 631 27<122.16 167.784>
VStem: -2 169<3 80.5> 200 54<-193.5 -110.914> 387 28<230.001 271.196> 499 30<523.143 587.695>
LayerCount: 2
Fore
SplineSet
426 -4 m 1xd9e0
 332 -4 254 -89 254 -139 c 0
 254 -154 260 -171 285 -171 c 0
 332 -171 362 -133 368 -133 c 0
 376 -133 365 -160 362 -163 c 0
 336 -192 293 -230 251 -230 c 0
 221 -230 200 -207 200 -180 c 0
 200 -127 264 -30 321 -3 c 1xd9e0
 245 -1 167 2 110 2 c 0
 49 2 -1 -3 -1 -3 c 1
 -2 -2 -2 1 -2 5 c 0
 -2 15 -1 24 3 24 c 0
 14 24 64 36 70 49 c 0
 84 78 89 105 96 142 c 2
 168 514 l 2
 174 547 181 585 179 607 c 0
 178 619 134 631 123 631 c 0
 122 631 121 632 121 635 c 0
 121 643 124 654 128 658 c 1xb3e0
 128 658 174 656 235 656 c 0x95e0
 321 656 427 664 528 664 c 1
 527 650 527 638 527 625 c 0
 527 592 529 561 529 528 c 1
 526 525 518 523 511 523 c 0
 505 523 499 525 499 530 c 0
 495 611 457 616 400 616 c 2
 346 616 l 2
 310 616 275 615 270 603 c 0
 260 576 257 563 252 536 c 2
 220 361 l 2
 219 354 238 353 257 353 c 2
 302 353 l 2
 391 353 392 355 423 424 c 0
 425 429 431 431 437 431 c 0
 443 431 450 429 452 426 c 1
 415 234 l 1
 412 232 407 230 401 230 c 0
 394 230 388 232 387 238 c 0
 384 295 379 295 372 301 c 0
 363 308 310 309 275 309 c 0
 249 309 209 309 207 300 c 2
 178 152 l 2
 171 118 167 96 167 65 c 0
 167 45 167 44 228 44 c 2
 273 44 l 2
 308 44 364 46 394 61 c 0
 414 71 446 109 472 162 c 0
 474 166 480 168 487 168 c 0
 496 168 506 165 508 162 c 1
 479 108 441 40 426 -4 c 1xd9e0
EndSplineSet
Validated: 33
EndChar

StartChar: eogonek
Encoding: 281 281 320
Width: 349
VWidth: 0
Flags: W
HStem: -230 59<58 133.084> 183 35<106.001 163.68> 396 39<191.231 290>
VStem: 23 53<-170.24 -124.64> 26 80<74.2825 256.299> 257 69<300.073 395.166>
LayerCount: 2
Fore
SplineSet
236 396 m 0xec
 171 396 106 261 106 224 c 0
 106 222 107 218 113 218 c 0
 152 218 257 283 257 352 c 0
 257 364 258 396 236 396 c 0xec
256 435 m 0
 324 435 326 375 326 356 c 0
 326 272 165 183 103 183 c 0
 99 183 99 179 99 174 c 0
 99 81 135 56 175 56 c 0
 220 56 264 124 268 124 c 0
 269 124 277 110 278 102 c 0
 277 98 273 91 267 82 c 0
 213 0 76 -92 76 -139 c 0
 76 -154 82 -171 107 -171 c 0
 154 -171 184 -133 190 -133 c 0
 198 -133 187 -160 184 -163 c 0
 158 -192 115 -230 73 -230 c 0
 43 -230 23 -207 23 -180 c 1xf4
 22 -130 122 -25 146 -4 c 1
 84 -4 26 59 26 152 c 0
 26 279 139 435 256 435 c 0
EndSplineSet
Validated: 33
Substitution2: "'smcp' Lowercase to Small Capitals in Latin lookup 3-1" eogonek.sc
EndChar

StartChar: Iogonek
Encoding: 302 302 339
Width: 341
VWidth: 0
Flags: W
HStem: -230 59<22 97.0836> -3 27<-2.57193 57.0156 171.438 217.422> 631 27<119.364 165.227 285.049 338.93>
VStem: -13 53<-193.5 -106.025> -3 166<3.5 63.5>
LayerCount: 2
Fore
SplineSet
245 515 m 2xe8
 174 139 l 2
 167 104 163 78 163 49 c 0xe8
 163 30 217 24 217 24 c 2
 218 24 219 22 219 20 c 0
 219 14 215 1 213 -3 c 1
 197 -3 181 -6 166 -10 c 0
 94 -31 40 -97 40 -139 c 0
 40 -154 46 -171 71 -171 c 0
 118 -171 148 -133 154 -133 c 0
 162 -133 151 -160 148 -163 c 0
 122 -192 79 -230 37 -230 c 0
 7 -230 -13 -207 -13 -180 c 0xf0
 -13 -118 52 -25 109 2 c 1
 66 2 42 -1 -1 -3 c 1
 -2 -2 -3 2 -3 5 c 0
 -3 13 0 24 4 24 c 0
 15 24 62 33 68 46 c 0
 80 74 87 104 94 142 c 2
 165 512 l 2
 172 547 176 568 176 604 c 0
 176 621 131 631 120 631 c 0
 119 631 118 633 118 636 c 0
 118 643 122 654 126 658 c 1
 168 656 191 652 234 652 c 0
 275 652 302 656 340 658 c 1
 340 657 340 656 340 655 c 0
 340 647 337 631 333 631 c 0
 326 631 276 619 271 608 c 0
 259 581 251 544 245 515 c 2xe8
EndSplineSet
Validated: 1
EndChar

StartChar: iogonek
Encoding: 303 303 340
Width: 273
VWidth: 0
Flags: W
HStem: -230 59<66 141.084> 377 58<86.0232 152> 546 100<150.035 214.228>
VStem: 30 54<-193.5 -107.512> 75 69<52.6719 158.006> 121 69<223.624 375.988> 139 88<557.783 635.875>
LayerCount: 2
Fore
SplineSet
84 -139 m 0xf0
 84 -154 90 -171 115 -171 c 0
 162 -171 192 -133 198 -133 c 0
 206 -133 195 -160 192 -163 c 0
 166 -192 123 -230 81 -230 c 0
 51 -230 30 -207 30 -180 c 0
 30 -129 89 -38 121 -3 c 1xf4
 90 1 75 27 75 67 c 0xe8
 75 85 77 105 82 128 c 2
 118 308 l 2
 119 315 121 331 121 336 c 0
 121 358 112 377 93 377 c 0
 76 377 38 304 34 304 c 0
 33 304 24 318 23 326 c 1
 30 346 82 435 133 435 c 0
 171 435 190 410 190 363 c 0xe4
 190 324 155 167 146 108 c 0
 145 99 144 93 144 89 c 0xe8
 144 61 155 52 166 52 c 0
 187 52 227 125 231 125 c 0
 232 125 240 111 241 103 c 1
 236 90 211 49 183 20 c 0
 133 -32 84 -88 84 -139 c 0xf0
191 646 m 0
 212 646 227 627 227 606 c 0
 227 575 204 546 173 546 c 0
 151 546 139 567 139 589 c 0xe2
 139 619 161 646 191 646 c 0
EndSplineSet
Validated: 1
Substitution2: "'smcp' Lowercase to Small Capitals in Latin lookup 3-1" iogonek.sc
EndChar

StartChar: Uogonek
Encoding: 370 370 388
Width: 674
VWidth: 0
Flags: W
HStem: -230 59<210 285.084> 0 49<193.52 328.324> 631 27<59.3642 105.227 225.049 278.93 451.898 512.113 610.087 670.675>
VStem: 52 84<111.678 354.133> 174 54<-188.5 -111.687>
LayerCount: 2
Fore
SplineSet
228 -139 m 0
 228 -154 234 -171 259 -171 c 0
 306 -171 336 -133 342 -133 c 0
 350 -133 339 -160 336 -163 c 0
 310 -192 267 -230 225 -230 c 0
 195 -230 174 -202 174 -175 c 0
 174 -122 247 -36 302 4 c 1
 283 2 257 0 236 0 c 0
 122 0 52 71 52 206 c 0
 52 227 56 263 66 312 c 2
 105 512 l 2
 112 548 116 568 116 604 c 0
 116 621 71 631 60 631 c 0
 59 631 58 633 58 636 c 0
 58 643 62 654 66 658 c 1
 108 656 131 652 174 652 c 0
 215 652 242 656 280 658 c 1
 280 657 280 656 280 655 c 0
 280 647 277 631 273 631 c 0
 266 631 216 619 211 608 c 0
 199 581 191 544 185 515 c 2
 144 298 l 2
 140 276 136 239 136 213 c 0
 136 114 178 49 267 49 c 0
 357 49 440 102 472 274 c 2
 516 512 l 2
 522 547 528 571 528 602 c 0
 528 621 467 631 453 631 c 0
 451 631 451 633 451 637 c 0
 451 644 454 655 458 658 c 1
 500 656 524 652 566 652 c 0
 608 652 635 656 673 658 c 1
 673 649 671 631 666 631 c 0
 659 631 598 618 591 608 c 0
 583 598 572 547 564 510 c 2
 519 276 l 2
 496 155 458 82 405 42 c 0
 325 -18 228 -89 228 -139 c 0
EndSplineSet
Validated: 1
EndChar

